GILDA Display.otf.ufo
<glyph name="exclam" format="1">
  <advance width="244"/>
  <unicode hex="0021"/>
  <outline>
    <contour>
      <point x="122" y="709" type="curve" smooth="yes" name="hr00"/>
      <point x="155" y="709" smooth="yes"/>
      <point x="167" y="685" smooth="yes"/>
      <point x="167" y="661" type="curve" smooth="yes"/>
      <point x="167" y="533"/>
      <point x="135" y="320"/>
      <point x="135" y="175" type="curve"/>
      <point x="110" y="175" type="line"/>
      <point x="110" y="320" smooth="yes"/>
      <point x="78" y="533" smooth="yes"/>
      <point x="78" y="661" type="curve" smooth="yes"/>
      <point x="78" y="685" smooth="yes"/>
      <point x="90" y="709" smooth="yes"/>
    </contour>
    <contour>
      <point x="122" y="96" type="curve" smooth="yes"/>
      <point x="94" y="96" smooth="yes"/>
      <point x="70" y="73" smooth="yes"/>
      <point x="70" y="42" type="curve" smooth="yes"/>
      <point x="70" y="13" smooth="yes"/>
      <point x="94" y="-10" smooth="yes"/>
      <point x="122" y="-10" type="curve" smooth="yes"/>
      <point x="152" y="-10" smooth="yes"/>
      <point x="175" y="13" smooth="yes"/>
      <point x="175" y="42" type="curve" smooth="yes"/>
      <point x="175" y="73" smooth="yes"/>
      <point x="152" y="96" smooth="yes"/>
    </contour>
  </outline>
</glyph>
<glyph name="numbersign" format="1">
  <advance width="724"/>
  <unicode hex="0023"/>
  <outline>
    <contour>
      <point x="361" y="-40" type="line" name="hr00"/>
      <point x="412" y="-40" type="line"/>
      <point x="480" y="205" type="line"/>
      <point x="581" y="205" type="line"/>
      <point x="594" y="253" type="line"/>
      <point x="494" y="253" type="line"/>
      <point x="531" y="385" type="line"/>
      <point x="631" y="385" type="line"/>
      <point x="644" y="433" type="line"/>
      <point x="544" y="433" type="line"/>
      <point x="614" y="683" type="line"/>
      <point x="563" y="683" type="line"/>
      <point x="493" y="433" type="line"/>
      <point x="294" y="433" type="line"/>
      <point x="364" y="683" type="line"/>
      <point x="313" y="683" type="line"/>
      <point x="243" y="433" type="line"/>
      <point x="142" y="433" type="line"/>
      <point x="129" y="385" type="line"/>
      <point x="230" y="385" type="line"/>
      <point x="193" y="253" type="line"/>
      <point x="93" y="253" type="line"/>
      <point x="80" y="205" type="line"/>
      <point x="179" y="205" type="line"/>
      <point x="111" y="-40" type="line"/>
      <point x="162" y="-40" type="line"/>
      <point x="230" y="205" type="line"/>
      <point x="429" y="205" type="line"/>
    </contour>
    <contour>
      <point x="281" y="385" type="line"/>
      <point x="480" y="385" type="line"/>
      <point x="443" y="253" type="line"/>
      <point x="244" y="253" type="line"/>
    </contour>
  </outline>
</glyph>
<glyph name="dollar" format="1">
  <advance width="550"/>
  <unicode hex="0024"/>
  <outline>
    <contour>
      <point x="208" y="-70" type="line"/>
      <point x="244" y="-70" type="line"/>
      <point x="249" y="-10" type="line"/>
      <point x="364" y="-10" smooth="yes"/>
      <point x="468" y="40" smooth="yes"/>
      <point x="468" y="162" type="curve" smooth="yes"/>
      <point x="468" y="272"/>
      <point x="369" y="325"/>
      <point x="282" y="374" type="curve"/>
      <point x="303" y="623" type="line"/>
      <point x="358" y="609"/>
      <point x="410" y="562"/>
      <point x="410" y="460" type="curve"/>
      <point x="423" y="457" type="line"/>
      <point x="430" y="502"/>
      <point x="437" y="557"/>
      <point x="437" y="615" type="curve" name="hr01"/>
      <point x="404" y="631"/>
      <point x="355" y="646"/>
      <point x="306" y="651" type="curve"/>
      <point x="311" y="713" type="line"/>
      <point x="275" y="713" type="line"/>
      <point x="270" y="653" type="line"/>
      <point x="167" y="653" smooth="yes"/>
      <point x="87" y="592" smooth="yes"/>
      <point x="87" y="501" type="curve" smooth="yes"/>
      <point x="87" y="404"/>
      <point x="162" y="352"/>
      <point x="240" y="306" type="curve"/>
      <point x="216" y="23" type="line"/>
      <point x="156" y="41"/>
      <point x="110" y="96"/>
      <point x="110" y="195" type="curve"/>
      <point x="96" y="197" type="line"/>
      <point x="91" y="152"/>
      <point x="85" y="106"/>
      <point x="85" y="48" type="curve"/>
      <point x="117" y="18"/>
      <point x="167" y="0"/>
      <point x="213" y="-6" type="curve"/>
    </contour>
    <contour>
      <point x="251" y="17" type="curve"/>
      <point x="274" y="286" type="line"/>
      <point x="344" y="245" smooth="yes"/>
      <point x="406" y="205" smooth="yes"/>
      <point x="406" y="139" type="curve" smooth="yes"/>
      <point x="406" y="45"/>
      <point x="338" y="17"/>
    </contour>
    <contour>
      <point x="149" y="520" type="curve" smooth="yes" name="hr02"/>
      <point x="149" y="584"/>
      <point x="196" y="626"/>
      <point x="267" y="627" type="curve"/>
      <point x="247" y="393" type="line"/>
      <point x="192" y="426" smooth="yes"/>
      <point x="149" y="462" smooth="yes"/>
    </contour>
  </outline>
</glyph>
<glyph name="ampersand" format="1">
  <advance width="786"/>
  <unicode hex="0026"/>
  <outline>
    <contour>
      <point x="774" y="12" type="line"/>
      <point x="687" y="14"/>
      <point x="570" y="87"/>
      <point x="507" y="139" type="curve"/>
      <point x="539" y="199"/>
      <point x="559" y="278"/>
      <point x="561" y="378" type="curve"/>
      <point x="606" y="381" smooth="yes"/>
      <point x="732" y="398" smooth="yes"/>
      <point x="732" y="445" type="curve" smooth="yes"/>
      <point x="732" y="458" smooth="yes"/>
      <point x="727" y="470" smooth="yes"/>
      <point x="709" y="470" type="curve" smooth="yes"/>
      <point x="697" y="470" smooth="yes"/>
      <point x="681" y="462" smooth="yes"/>
      <point x="663" y="449" type="curve" smooth="yes"/>
      <point x="635" y="429" smooth="yes"/>
      <point x="594" y="403" smooth="yes"/>
      <point x="537" y="403" type="curve" smooth="yes"/>
      <point x="455" y="403"/>
      <point x="394" y="425"/>
      <point x="360" y="443" type="curve"/>
      <point x="488" y="448" smooth="yes"/>
      <point x="526" y="521" smooth="yes"/>
      <point x="526" y="585" type="curve" smooth="yes" name="hr01"/>
      <point x="526" y="648" smooth="yes"/>
      <point x="476" y="699" smooth="yes"/>
      <point x="403" y="699" type="curve" smooth="yes"/>
      <point x="299" y="699" smooth="yes"/>
      <point x="229" y="613" smooth="yes"/>
      <point x="229" y="502" type="curve" smooth="yes"/>
      <point x="229" y="477"/>
      <point x="232" y="453"/>
      <point x="236" y="430" type="curve"/>
      <point x="128" y="388" smooth="yes"/>
      <point x="30" y="300" smooth="yes"/>
      <point x="30" y="194" type="curve" smooth="yes"/>
      <point x="30" y="68" smooth="yes"/>
      <point x="110" y="-10" smooth="yes"/>
      <point x="252" y="-10" type="curve" smooth="yes"/>
      <point x="335" y="-10"/>
      <point x="414" y="18"/>
      <point x="471" y="85" type="curve"/>
      <point x="531" y="38"/>
      <point x="589" y="8"/>
      <point x="625" y="0" type="curve"/>
      <point x="776" y="0" type="line"/>
    </contour>
    <contour>
      <point x="267" y="20" type="curve"/>
      <point x="184" y="20" smooth="yes"/>
      <point x="110" y="78" smooth="yes"/>
      <point x="110" y="193" type="curve" smooth="yes"/>
      <point x="110" y="291"/>
      <point x="152" y="366"/>
      <point x="239" y="415" type="curve"/>
      <point x="269" y="289"/>
      <point x="357" y="180"/>
      <point x="446" y="105" type="curve"/>
      <point x="405" y="44" smooth="yes"/>
      <point x="346" y="20" smooth="yes"/>
    </contour>
    <contour>
      <point x="301" y="501" type="curve"/>
      <point x="301" y="615" smooth="yes"/>
      <point x="344" y="681" smooth="yes"/>
      <point x="397" y="681" type="curve" smooth="yes"/>
      <point x="439" y="681" smooth="yes"/>
      <point x="463" y="635" smooth="yes"/>
      <point x="463" y="575" type="curve" smooth="yes"/>
      <point x="463" y="509"/>
      <point x="414" y="452"/>
      <point x="347" y="452" type="curve"/>
      <point x="347" y="443" type="line"/>
      <point x="383" y="415"/>
      <point x="436" y="386"/>
      <point x="517" y="379" type="curve" name="hr02"/>
      <point x="516" y="302"/>
      <point x="503" y="227"/>
      <point x="477" y="165" type="curve"/>
      <point x="346" y="287" smooth="yes"/>
      <point x="301" y="426" smooth="yes"/>
    </contour>
  </outline>
</glyph>
<glyph name="quotesingle" format="1">
  <advance width="139"/>
  <unicode hex="0027"/>
  <outline>
    <contour>
      <point x="78" y="478" type="line" name="hr00"/>
      <point x="87" y="518" smooth="yes"/>
      <point x="114" y="647" smooth="yes"/>
      <point x="114" y="689" type="curve" smooth="yes"/>
      <point x="114" y="714" smooth="yes"/>
      <point x="93" y="735" smooth="yes"/>
      <point x="70" y="735" type="curve" smooth="yes"/>
      <point x="44" y="735" smooth="yes"/>
      <point x="25" y="714" smooth="yes"/>
      <point x="25" y="689" type="curve" smooth="yes"/>
      <point x="25" y="647"/>
      <point x="52" y="518"/>
      <point x="62" y="478" type="curve"/>
    </contour>
  </outline>
</glyph>
<glyph name="parenleft" format="1">
  <advance width="258"/>
  <unicode hex="0028"/>
  <outline>
    <contour>
      <point x="237" y="722" type="curve" name="hr00"/>
      <point x="216" y="742" type="line"/>
      <point x="216" y="742" smooth="yes"/>
      <point x="15" y="590" smooth="yes"/>
      <point x="15" y="319" type="curve" smooth="yes"/>
      <point x="15" y="48"/>
      <point x="216" y="-103"/>
      <point x="216" y="-103" type="curve"/>
      <point x="237" y="-83" type="line"/>
      <point x="237" y="-83" smooth="yes"/>
      <point x="89" y="59" smooth="yes"/>
      <point x="89" y="319" type="curve" smooth="yes"/>
      <point x="89" y="579"/>
      <point x="237" y="722"/>
    </contour>
  </outline>
</glyph>
<glyph name="parenright" format="1">
  <advance width="258"/>
  <unicode hex="0029"/>
  <outline>
    <contour>
      <point x="21" y="722" type="curve" name="hr00"/>
      <point x="42" y="742" type="line"/>
      <point x="42" y="742" smooth="yes"/>
      <point x="243" y="590" smooth="yes"/>
      <point x="243" y="319" type="curve" smooth="yes"/>
      <point x="243" y="48"/>
      <point x="42" y="-103"/>
      <point x="42" y="-103" type="curve"/>
      <point x="21" y="-83" type="line"/>
      <point x="21" y="-83" smooth="yes"/>
      <point x="169" y="59" smooth="yes"/>
      <point x="169" y="319" type="curve" smooth="yes"/>
      <point x="169" y="579"/>
      <point x="21" y="722"/>
    </contour>
  </outline>
</glyph>
<glyph name="asterisk" format="1">
  <advance width="460"/>
  <unicode hex="002A"/>
  <outline>
    <contour>
      <point x="393" y="481" type="curve" smooth="yes" name="hr00"/>
      <point x="358" y="502"/>
      <point x="364" y="479"/>
      <point x="240" y="533" type="curve"/>
      <point x="364" y="588" smooth="yes"/>
      <point x="358" y="566" smooth="yes"/>
      <point x="393" y="587" type="curve" smooth="yes"/>
      <point x="403" y="593" smooth="yes"/>
      <point x="409" y="603" smooth="yes"/>
      <point x="409" y="615" type="curve" smooth="yes"/>
      <point x="409" y="635" smooth="yes"/>
      <point x="392" y="653" smooth="yes"/>
      <point x="373" y="653" type="curve" smooth="yes"/>
      <point x="368" y="653" smooth="yes"/>
      <point x="363" y="652" smooth="yes"/>
      <point x="358" y="649" type="curve" smooth="yes"/>
      <point x="322" y="629"/>
      <point x="344" y="622"/>
      <point x="235" y="542" type="curve"/>
      <point x="249" y="677" smooth="yes"/>
      <point x="266" y="660" smooth="yes"/>
      <point x="266" y="701" type="curve" smooth="yes"/>
      <point x="266" y="720" smooth="yes"/>
      <point x="250" y="735" smooth="yes"/>
      <point x="229" y="735" type="curve" smooth="yes"/>
      <point x="208" y="735" smooth="yes"/>
      <point x="193" y="720" smooth="yes"/>
      <point x="193" y="701" type="curve" smooth="yes"/>
      <point x="193" y="660"/>
      <point x="211" y="677"/>
      <point x="225" y="542" type="curve"/>
      <point x="115" y="622" smooth="yes"/>
      <point x="137" y="629" smooth="yes"/>
      <point x="102" y="649" type="curve" smooth="yes"/>
      <point x="97" y="652" smooth="yes"/>
      <point x="91" y="653" smooth="yes"/>
      <point x="86" y="653" type="curve" smooth="yes"/>
      <point x="68" y="653" smooth="yes"/>
      <point x="50" y="636" smooth="yes"/>
      <point x="50" y="615" type="curve" smooth="yes"/>
      <point x="50" y="604" smooth="yes"/>
      <point x="56" y="593" smooth="yes"/>
      <point x="66" y="587" type="curve" smooth="yes"/>
      <point x="102" y="566"/>
      <point x="96" y="588"/>
      <point x="220" y="533" type="curve"/>
      <point x="96" y="479" smooth="yes"/>
      <point x="101" y="503" smooth="yes"/>
      <point x="66" y="481" type="curve" smooth="yes"/>
      <point x="56" y="474" smooth="yes"/>
      <point x="50" y="464" smooth="yes"/>
      <point x="50" y="452" type="curve" smooth="yes"/>
      <point x="50" y="431" smooth="yes"/>
      <point x="69" y="414" smooth="yes"/>
      <point x="85" y="414" type="curve" smooth="yes"/>
      <point x="91" y="414" smooth="yes"/>
      <point x="97" y="416" smooth="yes"/>
      <point x="102" y="419" type="curve" smooth="yes"/>
      <point x="137" y="440"/>
      <point x="115" y="446"/>
      <point x="225" y="525" type="curve"/>
      <point x="211" y="391" smooth="yes"/>
      <point x="193" y="407" smooth="yes"/>
      <point x="193" y="365" type="curve" smooth="yes"/>
      <point x="193" y="347" smooth="yes"/>
      <point x="208" y="332" smooth="yes"/>
      <point x="229" y="332" type="curve" smooth="yes"/>
      <point x="250" y="332" smooth="yes"/>
      <point x="266" y="347" smooth="yes"/>
      <point x="266" y="365" type="curve" smooth="yes"/>
      <point x="266" y="407"/>
      <point x="249" y="391"/>
      <point x="235" y="525" type="curve"/>
      <point x="344" y="446" smooth="yes"/>
      <point x="322" y="440" smooth="yes"/>
      <point x="358" y="419" type="curve" smooth="yes"/>
      <point x="363" y="416" smooth="yes"/>
      <point x="368" y="414" smooth="yes"/>
      <point x="374" y="414" type="curve" smooth="yes"/>
      <point x="392" y="414" smooth="yes"/>
      <point x="409" y="433" smooth="yes"/>
      <point x="409" y="453" type="curve" smooth="yes"/>
      <point x="409" y="464" smooth="yes"/>
      <point x="403" y="475" smooth="yes"/>
    </contour>
  </outline>
</glyph>
<glyph name="plus" format="1">
  <advance width="550"/>
  <unicode hex="002B"/>
  <outline>
    <contour>
      <point x="98" y="295" type="line" name="hr00"/>
      <point x="251" y="295" type="line"/>
      <point x="251" y="142" type="line"/>
      <point x="299" y="142" type="line"/>
      <point x="299" y="295" type="line"/>
      <point x="452" y="295" type="line"/>
      <point x="452" y="343" type="line"/>
      <point x="299" y="343" type="line"/>
      <point x="299" y="496" type="line"/>
      <point x="251" y="496" type="line"/>
      <point x="251" y="343" type="line"/>
      <point x="98" y="343" type="line"/>
    </contour>
  </outline>
</glyph>
<glyph name="hyphen" format="1">
  <advance width="379"/>
  <unicode hex="002D"/>
  <outline>
    <contour>
      <point x="35" y="277" type="line" name="hr00"/>
      <point x="344" y="277" type="line"/>
      <point x="344" y="327" type="line"/>
      <point x="35" y="327" type="line"/>
    </contour>
  </outline>
</glyph>
<glyph name="period" format="1">
  <advance width="173"/>
  <unicode hex="002E"/>
  <outline>
    <contour>
      <point x="86" y="96" type="curve" smooth="yes" name="hr00"/>
      <point x="58" y="96" smooth="yes"/>
      <point x="34" y="73" smooth="yes"/>
      <point x="34" y="42" type="curve" smooth="yes"/>
      <point x="34" y="13" smooth="yes"/>
      <point x="58" y="-10" smooth="yes"/>
      <point x="86" y="-10" type="curve" smooth="yes"/>
      <point x="116" y="-10" smooth="yes"/>
      <point x="139" y="13" smooth="yes"/>
      <point x="139" y="42" type="curve" smooth="yes"/>
      <point x="139" y="73" smooth="yes"/>
      <point x="116" y="96" smooth="yes"/>
    </contour>
  </outline>
</glyph>
<glyph name="slash" format="1">
  <advance width="329"/>
  <unicode hex="002F"/>
  <outline>
    <contour>
      <point x="15" y="-85" type="line" name="hr00"/>
      <point x="76" y="-85" type="line"/>
      <point x="288" y="670" type="line"/>
      <point x="227" y="670" type="line"/>
    </contour>
  </outline>
</glyph>
<glyph name="zero" format="1">
  <advance width="550"/>
  <unicode hex="0030"/>
  <outline>
    <contour>
      <point x="277" y="653" type="curve" smooth="yes" name="hr00"/>
      <point x="145" y="653" smooth="yes"/>
      <point x="46" y="532" smooth="yes"/>
      <point x="46" y="320" type="curve" smooth="yes"/>
      <point x="46" y="106" smooth="yes"/>
      <point x="145" y="-10" smooth="yes"/>
      <point x="277" y="-10" type="curve" smooth="yes"/>
      <point x="407" y="-10" smooth="yes"/>
      <point x="504" y="106" smooth="yes"/>
      <point x="504" y="320" type="curve" smooth="yes"/>
      <point x="504" y="532" smooth="yes"/>
      <point x="407" y="653" smooth="yes"/>
    </contour>
    <contour>
      <point x="277" y="19" type="curve" smooth="yes"/>
      <point x="188" y="19" smooth="yes"/>
      <point x="118" y="138" smooth="yes"/>
      <point x="118" y="320" type="curve" smooth="yes"/>
      <point x="118" y="500" smooth="yes"/>
      <point x="187" y="627" smooth="yes"/>
      <point x="277" y="627" type="curve" smooth="yes"/>
      <point x="365" y="627" smooth="yes"/>
      <point x="432" y="500" smooth="yes"/>
      <point x="432" y="320" type="curve" smooth="yes"/>
      <point x="432" y="138" smooth="yes"/>
      <point x="365" y="19" smooth="yes"/>
    </contour>
  </outline>
</glyph>
<glyph name="one" format="1">
  <advance width="550"/>
  <unicode hex="0031"/>
  <outline>
    <contour>
      <point x="321" y="654" type="line" name="hr00"/>
      <point x="262" y="613"/>
      <point x="175" y="576"/>
      <point x="97" y="541" type="curve"/>
      <point x="105" y="522" type="line"/>
      <point x="152" y="543" smooth="yes"/>
      <point x="188" y="558" smooth="yes"/>
      <point x="218" y="558" type="curve" smooth="yes"/>
      <point x="245" y="558" smooth="yes"/>
      <point x="262" y="541" smooth="yes"/>
      <point x="262" y="490" type="curve" smooth="yes"/>
      <point x="262" y="226" type="line" smooth="yes"/>
      <point x="262" y="32"/>
      <point x="255" y="12"/>
      <point x="144" y="12" type="curve"/>
      <point x="142" y="0" type="line"/>
      <point x="452" y="0" type="line"/>
      <point x="450" y="12" type="line"/>
      <point x="340" y="12" smooth="yes"/>
      <point x="332" y="32" smooth="yes"/>
      <point x="332" y="226" type="curve" smooth="yes"/>
      <point x="332" y="649" type="line"/>
    </contour>
  </outline>
</glyph>
<glyph name="two" format="1">
  <advance width="550"/>
  <unicode hex="0032"/>
  <outline>
    <contour>
      <point x="139" y="40" type="curve" name="hr00"/>
      <point x="318" y="219" smooth="yes"/>
      <point x="459" y="366" smooth="yes"/>
      <point x="459" y="497" type="curve" smooth="yes"/>
      <point x="459" y="616" smooth="yes"/>
      <point x="363" y="653" smooth="yes"/>
      <point x="274" y="653" type="curve" smooth="yes"/>
      <point x="169" y="653" smooth="yes"/>
      <point x="87" y="607" smooth="yes"/>
      <point x="87" y="558" type="curve" smooth="yes"/>
      <point x="87" y="540" smooth="yes"/>
      <point x="101" y="525" smooth="yes"/>
      <point x="121" y="525" type="curve" smooth="yes"/>
      <point x="168" y="525" smooth="yes"/>
      <point x="173" y="627" smooth="yes"/>
      <point x="273" y="627" type="curve" smooth="yes"/>
      <point x="348" y="627" smooth="yes"/>
      <point x="385" y="573" smooth="yes"/>
      <point x="385" y="501" type="curve" smooth="yes"/>
      <point x="385" y="382"/>
      <point x="259" y="196"/>
      <point x="74" y="13" type="curve"/>
      <point x="74" y="0" type="line"/>
      <point x="475" y="0" type="line"/>
      <point x="475" y="143" type="line"/>
      <point x="463" y="143" type="line"/>
      <point x="463" y="56"/>
      <point x="332" y="40"/>
    </contour>
  </outline>
</glyph>
<glyph name="three" format="1">
  <advance width="550"/>
  <unicode hex="0033"/>
  <outline>
    <contour>
      <point x="287" y="347" type="line"/>
      <point x="422" y="340" smooth="yes"/>
      <point x="470" y="258" smooth="yes"/>
      <point x="470" y="189" type="curve" smooth="yes"/>
      <point x="470" y="71" smooth="yes"/>
      <point x="360" y="-10" smooth="yes"/>
      <point x="246" y="-10" type="curve" smooth="yes"/>
      <point x="183" y="-10"/>
      <point x="109" y="10"/>
      <point x="62" y="68" type="curve"/>
      <point x="82" y="87" type="line"/>
      <point x="120" y="43" smooth="yes"/>
      <point x="183" y="27" smooth="yes"/>
      <point x="234" y="27" type="curve" smooth="yes"/>
      <point x="318" y="27" smooth="yes"/>
      <point x="396" y="81" smooth="yes"/>
      <point x="396" y="175" type="curve" smooth="yes"/>
      <point x="396" y="318"/>
      <point x="247" y="333"/>
      <point x="157" y="333" type="curve"/>
      <point x="157" y="352" type="line"/>
      <point x="245" y="352" smooth="yes"/>
      <point x="368" y="398" smooth="yes"/>
      <point x="368" y="514" type="curve" smooth="yes" name="hr01"/>
      <point x="368" y="578" smooth="yes"/>
      <point x="335" y="627" smooth="yes"/>
      <point x="266" y="627" type="curve" smooth="yes"/>
      <point x="175" y="627" smooth="yes"/>
      <point x="165" y="523" smooth="yes"/>
      <point x="116" y="523" type="curve" smooth="yes"/>
      <point x="95" y="523" smooth="yes"/>
      <point x="80" y="539" smooth="yes"/>
      <point x="80" y="558" type="curve" smooth="yes"/>
      <point x="80" y="609" smooth="yes"/>
      <point x="162" y="653" smooth="yes"/>
      <point x="267" y="653" type="curve" smooth="yes"/>
      <point x="356" y="653" smooth="yes"/>
      <point x="442" y="622" smooth="yes"/>
      <point x="442" y="513" type="curve" smooth="yes"/>
      <point x="442" y="425"/>
      <point x="359" y="371"/>
      <point x="287" y="351" type="curve"/>
    </contour>
  </outline>
</glyph>
<glyph name="four" format="1">
  <advance width="550"/>
  <unicode hex="0034"/>
  <outline>
    <contour>
      <point x="212" y="12" type="curve" name="hr00"/>
      <point x="210" y="0" type="line"/>
      <point x="520" y="0" type="line"/>
      <point x="518" y="12" type="line"/>
      <point x="427" y="12"/>
      <point x="405" y="26"/>
      <point x="401" y="140" type="curve"/>
      <point x="524" y="140" type="line"/>
      <point x="524" y="170" type="line"/>
      <point x="400" y="170" type="line"/>
      <point x="400" y="649" type="line"/>
      <point x="371" y="654" type="line"/>
      <point x="33" y="171" type="line"/>
      <point x="33" y="140" type="line"/>
      <point x="329" y="140" type="line"/>
      <point x="324" y="26"/>
      <point x="303" y="12"/>
    </contour>
    <contour>
      <point x="330" y="541" type="line"/>
      <point x="330" y="226" type="line" smooth="yes"/>
      <point x="330" y="205"/>
      <point x="330" y="187"/>
      <point x="329" y="170" type="curve"/>
      <point x="70" y="170" type="line"/>
    </contour>
  </outline>
</glyph>
<glyph name="five" format="1">
  <advance width="550"/>
  <unicode hex="0035"/>
  <outline>
    <contour>
      <point x="477" y="189" type="curve" name="hr00"/>
      <point x="477" y="71" smooth="yes"/>
      <point x="367" y="-10" smooth="yes"/>
      <point x="253" y="-10" type="curve" smooth="yes"/>
      <point x="190" y="-10"/>
      <point x="116" y="10"/>
      <point x="69" y="68" type="curve"/>
      <point x="89" y="87" type="line"/>
      <point x="127" y="43" smooth="yes"/>
      <point x="190" y="27" smooth="yes"/>
      <point x="241" y="27" type="curve" smooth="yes"/>
      <point x="325" y="27" smooth="yes"/>
      <point x="403" y="81" smooth="yes"/>
      <point x="403" y="175" type="curve" smooth="yes"/>
      <point x="403" y="293" smooth="yes"/>
      <point x="331" y="339" smooth="yes"/>
      <point x="231" y="339" type="curve" smooth="yes"/>
      <point x="199" y="339"/>
      <point x="163" y="335"/>
      <point x="127" y="326" type="curve"/>
      <point x="107" y="346" type="line"/>
      <point x="123" y="623" type="line"/>
      <point x="353" y="635"/>
      <point x="437" y="639"/>
      <point x="437" y="696" type="curve"/>
      <point x="449" y="696" type="line"/>
      <point x="449" y="575" type="line"/>
      <point x="157" y="575" type="line"/>
      <point x="145" y="362" type="line"/>
      <point x="183" y="372" smooth="yes"/>
      <point x="222" y="377" smooth="yes"/>
      <point x="259" y="377" type="curve" smooth="yes"/>
      <point x="377" y="377" smooth="yes"/>
      <point x="477" y="323" smooth="yes"/>
    </contour>
  </outline>
</glyph>
<glyph name="six" format="1">
  <advance width="550"/>
  <unicode hex="0036"/>
  <outline>
    <contour>
      <point x="295" y="653" type="curve" smooth="yes" name="hr00"/>
      <point x="394" y="653" smooth="yes"/>
      <point x="472" y="609" smooth="yes"/>
      <point x="472" y="558" type="curve" smooth="yes"/>
      <point x="472" y="539" smooth="yes"/>
      <point x="455" y="523" smooth="yes"/>
      <point x="435" y="523" type="curve" smooth="yes"/>
      <point x="388" y="523" smooth="yes"/>
      <point x="379" y="627" smooth="yes"/>
      <point x="296" y="627" type="curve" smooth="yes"/>
      <point x="202" y="627" smooth="yes"/>
      <point x="134" y="506" smooth="yes"/>
      <point x="134" y="291" type="curve" smooth="yes"/>
      <point x="134" y="93" smooth="yes"/>
      <point x="209" y="19" smooth="yes"/>
      <point x="283" y="19" type="curve" smooth="yes"/>
      <point x="375" y="19" smooth="yes"/>
      <point x="415" y="91" smooth="yes"/>
      <point x="415" y="194" type="curve" smooth="yes"/>
      <point x="415" y="301" smooth="yes"/>
      <point x="364" y="345" smooth="yes"/>
      <point x="289" y="345" type="curve" smooth="yes"/>
      <point x="260" y="345" smooth="yes"/>
      <point x="227" y="339" smooth="yes"/>
      <point x="192" y="327" type="curve" smooth="yes"/>
      <point x="183" y="356" type="line"/>
      <point x="217" y="369" smooth="yes"/>
      <point x="260" y="378" smooth="yes"/>
      <point x="305" y="378" type="curve" smooth="yes"/>
      <point x="440" y="378" smooth="yes"/>
      <point x="492" y="296" smooth="yes"/>
      <point x="492" y="195" type="curve" smooth="yes"/>
      <point x="492" y="71" smooth="yes"/>
      <point x="396" y="-10" smooth="yes"/>
      <point x="283" y="-10" type="curve" smooth="yes"/>
      <point x="167" y="-10" smooth="yes"/>
      <point x="62" y="80" smooth="yes"/>
      <point x="62" y="304" type="curve" smooth="yes"/>
      <point x="62" y="515" smooth="yes"/>
      <point x="146" y="653" smooth="yes"/>
    </contour>
  </outline>
</glyph>
<glyph name="seven" format="1">
  <advance width="550"/>
  <unicode hex="0037"/>
  <outline>
    <contour>
      <point x="279" y="136" type="curve" smooth="yes"/>
      <point x="279" y="255"/>
      <point x="363" y="454"/>
      <point x="511" y="630" type="curve"/>
      <point x="511" y="643" type="line"/>
      <point x="100" y="643" type="line"/>
      <point x="100" y="498" type="line"/>
      <point x="112" y="497" type="line"/>
      <point x="112" y="584"/>
      <point x="195" y="603"/>
      <point x="456" y="603" type="curve"/>
      <point x="318" y="438" smooth="yes"/>
      <point x="197" y="178" smooth="yes"/>
      <point x="197" y="47" type="curve" smooth="yes"/>
      <point x="197" y="8" smooth="yes"/>
      <point x="221" y="-10" smooth="yes"/>
      <point x="244" y="-10" type="curve" smooth="yes"/>
      <point x="268" y="-10" smooth="yes"/>
      <point x="291" y="7" smooth="yes"/>
      <point x="291" y="36" type="curve" smooth="yes"/>
      <point x="291" y="62" smooth="yes"/>
      <point x="279" y="103" smooth="yes"/>
    </contour>
  </outline>
</glyph>
<glyph name="eight" format="1">
  <advance width="550"/>
  <unicode hex="0038"/>
  <outline>
    <contour>
      <point x="483" y="165" type="curve" smooth="yes"/>
      <point x="483" y="59" smooth="yes"/>
      <point x="398" y="-10" smooth="yes"/>
      <point x="274" y="-10" type="curve" smooth="yes"/>
      <point x="152" y="-10" smooth="yes"/>
      <point x="66" y="59" smooth="yes"/>
      <point x="66" y="165" type="curve" smooth="yes"/>
      <point x="66" y="263"/>
      <point x="145" y="305"/>
      <point x="226" y="334" type="curve"/>
      <point x="226" y="338" type="line"/>
      <point x="155" y="361" smooth="yes"/>
      <point x="87" y="417" smooth="yes"/>
      <point x="87" y="502" type="curve" smooth="yes" name="hr01"/>
      <point x="87" y="600" smooth="yes"/>
      <point x="170" y="653" smooth="yes"/>
      <point x="274" y="653" type="curve" smooth="yes"/>
      <point x="377" y="653" smooth="yes"/>
      <point x="463" y="600" smooth="yes"/>
      <point x="463" y="502" type="curve" smooth="yes"/>
      <point x="463" y="415"/>
      <point x="400" y="371"/>
      <point x="326" y="341" type="curve"/>
      <point x="326" y="337" type="line"/>
      <point x="403" y="315" smooth="yes"/>
      <point x="483" y="266" smooth="yes"/>
    </contour>
    <contour>
      <point x="161" y="501" type="curve" smooth="yes"/>
      <point x="161" y="411"/>
      <point x="234" y="363"/>
      <point x="296" y="354" type="curve"/>
      <point x="320" y="364" smooth="yes"/>
      <point x="389" y="410" smooth="yes"/>
      <point x="389" y="501" type="curve" smooth="yes" name="hr03"/>
      <point x="389" y="577" smooth="yes"/>
      <point x="341" y="627" smooth="yes"/>
      <point x="274" y="627" type="curve" smooth="yes"/>
      <point x="205" y="627" smooth="yes"/>
      <point x="161" y="573" smooth="yes"/>
    </contour>
    <contour>
      <point x="409" y="163" type="curve" smooth="yes"/>
      <point x="409" y="260"/>
      <point x="323" y="313"/>
      <point x="249" y="322" type="curve"/>
      <point x="222" y="312" smooth="yes"/>
      <point x="140" y="264" smooth="yes"/>
      <point x="140" y="165" type="curve" smooth="yes" name="hr04"/>
      <point x="140" y="76" smooth="yes"/>
      <point x="204" y="20" smooth="yes"/>
      <point x="275" y="20" type="curve" smooth="yes"/>
      <point x="351" y="20" smooth="yes"/>
      <point x="409" y="76" smooth="yes"/>
    </contour>
  </outline>
</glyph>
<glyph name="nine" format="1">
  <advance width="550"/>
  <unicode hex="0039"/>
  <outline>
    <contour>
      <point x="226" y="27" type="curve" smooth="yes" name="hr00"/>
      <point x="343" y="27" smooth="yes"/>
      <point x="420" y="141" smooth="yes"/>
      <point x="420" y="364" type="curve" smooth="yes"/>
      <point x="420" y="553" smooth="yes"/>
      <point x="348" y="624" smooth="yes"/>
      <point x="276" y="624" type="curve" smooth="yes"/>
      <point x="182" y="624" smooth="yes"/>
      <point x="138" y="559" smooth="yes"/>
      <point x="138" y="453" type="curve" smooth="yes"/>
      <point x="138" y="357" smooth="yes"/>
      <point x="191" y="311" smooth="yes"/>
      <point x="266" y="311" type="curve" smooth="yes"/>
      <point x="292" y="311"/>
      <point x="321" y="316"/>
      <point x="351" y="327" type="curve"/>
      <point x="360" y="298" type="line"/>
      <point x="320" y="283" smooth="yes"/>
      <point x="280" y="276" smooth="yes"/>
      <point x="244" y="276" type="curve" smooth="yes"/>
      <point x="140" y="276" smooth="yes"/>
      <point x="61" y="337" smooth="yes"/>
      <point x="61" y="458" type="curve" smooth="yes"/>
      <point x="61" y="582" smooth="yes"/>
      <point x="164" y="653" smooth="yes"/>
      <point x="276" y="653" type="curve" smooth="yes"/>
      <point x="395" y="653" smooth="yes"/>
      <point x="492" y="563" smooth="yes"/>
      <point x="492" y="339" type="curve" smooth="yes"/>
      <point x="492" y="128" smooth="yes"/>
      <point x="384" y="-10" smooth="yes"/>
      <point x="235" y="-10" type="curve" smooth="yes"/>
      <point x="172" y="-10"/>
      <point x="116" y="10"/>
      <point x="69" y="68" type="curve"/>
      <point x="89" y="87" type="line"/>
      <point x="128" y="46" smooth="yes"/>
      <point x="169" y="27" smooth="yes"/>
    </contour>
  </outline>
</glyph>
<glyph name="colon" format="1">
  <advance width="173"/>
  <unicode hex="003A"/>
  <outline>
    <contour>
      <point x="86" y="96" type="curve" smooth="yes" name="hr00"/>
      <point x="58" y="96" smooth="yes"/>
      <point x="34" y="73" smooth="yes"/>
      <point x="34" y="42" type="curve" smooth="yes"/>
      <point x="34" y="13" smooth="yes"/>
      <point x="58" y="-10" smooth="yes"/>
      <point x="86" y="-10" type="curve" smooth="yes"/>
      <point x="116" y="-10" smooth="yes"/>
      <point x="139" y="13" smooth="yes"/>
      <point x="139" y="42" type="curve" smooth="yes"/>
      <point x="139" y="73" smooth="yes"/>
      <point x="116" y="96" smooth="yes"/>
    </contour>
    <contour>
      <point x="86" y="463" type="curve" smooth="yes"/>
      <point x="58" y="463" smooth="yes"/>
      <point x="34" y="440" smooth="yes"/>
      <point x="34" y="409" type="curve" smooth="yes"/>
      <point x="34" y="380" smooth="yes"/>
      <point x="58" y="357" smooth="yes"/>
      <point x="86" y="357" type="curve" smooth="yes"/>
      <point x="116" y="357" smooth="yes"/>
      <point x="139" y="380" smooth="yes"/>
      <point x="139" y="409" type="curve" smooth="yes"/>
      <point x="139" y="440" smooth="yes"/>
      <point x="116" y="463" smooth="yes"/>
    </contour>
  </outline>
</glyph>
<glyph name="equal" format="1">
  <advance width="550"/>
  <unicode hex="003D"/>
  <outline>
    <contour>
      <point x="98" y="385" type="line" name="hr00"/>
      <point x="452" y="385" type="line"/>
      <point x="452" y="433" type="line"/>
      <point x="98" y="433" type="line"/>
    </contour>
    <contour>
      <point x="98" y="205" type="line"/>
      <point x="452" y="205" type="line"/>
      <point x="452" y="253" type="line"/>
      <point x="98" y="253" type="line"/>
    </contour>
  </outline>
</glyph>
<glyph name="greater" format="1">
  <advance width="550"/>
  <unicode hex="003E"/>
  <outline>
    <contour>
      <point x="452" y="343" type="line" name="hr00"/>
      <point x="98" y="483" type="line"/>
      <point x="98" y="435" type="line"/>
      <point x="397" y="319" type="line"/>
      <point x="98" y="203" type="line"/>
      <point x="98" y="155" type="line"/>
      <point x="452" y="295" type="line"/>
    </contour>
  </outline>
</glyph>
<glyph name="question" format="1">
  <advance width="363"/>
  <unicode hex="003F"/>
  <outline>
    <contour>
      <point x="199" y="709" type="curve" smooth="yes" name="hr00"/>
      <point x="101" y="709" smooth="yes"/>
      <point x="20" y="647" smooth="yes"/>
      <point x="20" y="597" type="curve" smooth="yes"/>
      <point x="20" y="575" smooth="yes"/>
      <point x="34" y="561" smooth="yes"/>
      <point x="50" y="561" type="curve" smooth="yes"/>
      <point x="113" y="561" smooth="yes"/>
      <point x="83" y="683" smooth="yes"/>
      <point x="198" y="683" type="curve" smooth="yes"/>
      <point x="248" y="683" smooth="yes"/>
      <point x="278" y="657" smooth="yes"/>
      <point x="278" y="594" type="curve" smooth="yes"/>
      <point x="278" y="472" smooth="yes"/>
      <point x="88" y="399" smooth="yes"/>
      <point x="88" y="280" type="curve" smooth="yes"/>
      <point x="88" y="241"/>
      <point x="108" y="200"/>
      <point x="160" y="155" type="curve"/>
      <point x="178" y="174" type="line"/>
      <point x="147" y="199" smooth="yes"/>
      <point x="135" y="223" smooth="yes"/>
      <point x="135" y="248" type="curve" smooth="yes"/>
      <point x="135" y="337" smooth="yes"/>
      <point x="347" y="459" smooth="yes"/>
      <point x="347" y="582" type="curve" smooth="yes"/>
      <point x="347" y="669" smooth="yes"/>
      <point x="285" y="709" smooth="yes"/>
    </contour>
    <contour>
      <point x="161" y="96" type="curve" smooth="yes"/>
      <point x="133" y="96" smooth="yes"/>
      <point x="109" y="73" smooth="yes"/>
      <point x="109" y="42" type="curve" smooth="yes"/>
      <point x="109" y="13" smooth="yes"/>
      <point x="133" y="-10" smooth="yes"/>
      <point x="161" y="-10" type="curve" smooth="yes"/>
      <point x="191" y="-10" smooth="yes"/>
      <point x="214" y="13" smooth="yes"/>
      <point x="214" y="42" type="curve" smooth="yes"/>
      <point x="214" y="73" smooth="yes"/>
      <point x="191" y="96" smooth="yes"/>
    </contour>
  </outline>
</glyph>
<glyph name="at" format="1">
  <advance width="793"/>
  <unicode hex="0040"/>
  <outline>
    <contour>
      <point x="559" y="108" type="curve" smooth="yes" name="hr00"/>
      <point x="635" y="108" smooth="yes"/>
      <point x="743" y="185" smooth="yes"/>
      <point x="743" y="327" type="curve" smooth="yes"/>
      <point x="743" y="517" smooth="yes"/>
      <point x="613" y="622" smooth="yes"/>
      <point x="424" y="622" type="curve" smooth="yes"/>
      <point x="234" y="622" smooth="yes"/>
      <point x="80" y="467" smooth="yes"/>
      <point x="80" y="278" type="curve" smooth="yes"/>
      <point x="80" y="88" smooth="yes"/>
      <point x="234" y="-66" smooth="yes"/>
      <point x="424" y="-66" type="curve" smooth="yes"/>
      <point x="506" y="-66"/>
      <point x="582" y="-42"/>
      <point x="622" y="-19" type="curve"/>
      <point x="622" y="7" type="line"/>
      <point x="583" y="-13" smooth="yes"/>
      <point x="512" y="-37" smooth="yes"/>
      <point x="433" y="-37" type="curve" smooth="yes"/>
      <point x="268" y="-37" smooth="yes"/>
      <point x="155" y="96" smooth="yes"/>
      <point x="155" y="275" type="curve" smooth="yes"/>
      <point x="155" y="455" smooth="yes"/>
      <point x="268" y="596" smooth="yes"/>
      <point x="433" y="596" type="curve" smooth="yes"/>
      <point x="595" y="596" smooth="yes"/>
      <point x="723" y="505" smooth="yes"/>
      <point x="724" y="327" type="curve" smooth="yes"/>
      <point x="724" y="217" smooth="yes"/>
      <point x="643" y="137" smooth="yes"/>
      <point x="588" y="137" type="curve" smooth="yes"/>
      <point x="572" y="137" smooth="yes"/>
      <point x="560" y="150" smooth="yes"/>
      <point x="560" y="198" type="curve" smooth="yes"/>
      <point x="560" y="248"/>
      <point x="583" y="371"/>
      <point x="612" y="471" type="curve"/>
      <point x="612" y="471" smooth="yes"/>
      <point x="566" y="476" smooth="yes"/>
      <point x="533" y="476" type="curve" smooth="yes"/>
      <point x="328" y="476" smooth="yes"/>
      <point x="239" y="321" smooth="yes"/>
      <point x="239" y="236" type="curve" smooth="yes"/>
      <point x="239" y="160" smooth="yes"/>
      <point x="278" y="108" smooth="yes"/>
      <point x="356" y="108" type="curve" smooth="yes"/>
      <point x="435" y="108"/>
      <point x="478" y="180"/>
      <point x="496" y="233" type="curve"/>
      <point x="501" y="233" type="line"/>
      <point x="493" y="209" smooth="yes"/>
      <point x="490" y="193" smooth="yes"/>
      <point x="490" y="179" type="curve" smooth="yes"/>
      <point x="490" y="139" smooth="yes"/>
      <point x="506" y="108" smooth="yes"/>
    </contour>
    <contour>
      <point x="378" y="137" type="curve" smooth="yes"/>
      <point x="339" y="137" smooth="yes"/>
      <point x="317" y="177" smooth="yes"/>
      <point x="317" y="225" type="curve" smooth="yes"/>
      <point x="317" y="300"/>
      <point x="374" y="451"/>
      <point x="529" y="451" type="curve"/>
      <point x="521" y="383" smooth="yes"/>
      <point x="480" y="137" smooth="yes"/>
    </contour>
  </outline>
</glyph>
<glyph name="B" format="1">
  <advance width="618"/>
  <unicode hex="0042"/>
  <outline>
    <contour>
      <point x="358" y="384" type="curve"/>
      <point x="429" y="400" smooth="yes"/>
      <point x="521" y="442" smooth="yes"/>
      <point x="521" y="542" type="curve" smooth="yes"/>
      <point x="521" y="683" smooth="yes"/>
      <point x="348" y="700" smooth="yes"/>
      <point x="274" y="700" type="curve" smooth="yes"/>
      <point x="50" y="700" type="line"/>
      <point x="52" y="688" type="line"/>
      <point x="143" y="688" smooth="yes"/>
      <point x="150" y="668" smooth="yes"/>
      <point x="150" y="474" type="curve" smooth="yes"/>
      <point x="150" y="226" type="line" smooth="yes"/>
      <point x="150" y="32"/>
      <point x="143" y="12"/>
      <point x="52" y="12" type="curve"/>
      <point x="50" y="0" type="line"/>
      <point x="285" y="0" type="line" smooth="yes"/>
      <point x="452" y="0" smooth="yes"/>
      <point x="571" y="56" smooth="yes"/>
      <point x="571" y="196" type="curve" smooth="yes" name="hr01"/>
      <point x="571" y="326"/>
      <point x="450" y="374"/>
    </contour>
    <contour>
      <point x="434" y="542" type="curve" smooth="yes" name="hr02"/>
      <point x="434" y="420" smooth="yes"/>
      <point x="334" y="391" smooth="yes"/>
      <point x="229" y="391" type="curve" smooth="yes"/>
      <point x="220" y="391" type="line"/>
      <point x="220" y="677" type="line"/>
      <point x="385" y="677" smooth="yes"/>
      <point x="434" y="617" smooth="yes"/>
    </contour>
    <contour>
      <point x="259" y="23" type="curve"/>
      <point x="223" y="39" smooth="yes"/>
      <point x="220" y="72" smooth="yes"/>
      <point x="220" y="211" type="curve" smooth="yes"/>
      <point x="220" y="371" type="line"/>
      <point x="235" y="371" type="line" smooth="yes"/>
      <point x="324" y="371" smooth="yes"/>
      <point x="484" y="357" smooth="yes"/>
      <point x="484" y="196" type="curve" smooth="yes" name="hr03"/>
      <point x="484" y="31"/>
      <point x="307" y="23"/>
    </contour>
  </outline>
</glyph>
<glyph name="C" format="1">
  <advance width="712"/>
  <unicode hex="0043"/>
  <outline>
    <contour>
      <point x="682" y="107" type="line" name="hr00"/>
      <point x="615" y="59" smooth="yes"/>
      <point x="542" y="19" smooth="yes"/>
      <point x="407" y="19" type="curve" smooth="yes"/>
      <point x="232" y="19" smooth="yes"/>
      <point x="137" y="160" smooth="yes"/>
      <point x="137" y="350" type="curve" smooth="yes"/>
      <point x="137" y="544" smooth="yes"/>
      <point x="223" y="686" smooth="yes"/>
      <point x="399" y="686" type="curve" smooth="yes"/>
      <point x="526" y="686"/>
      <point x="613" y="647"/>
      <point x="648" y="522" type="curve"/>
      <point x="659" y="520" type="line"/>
      <point x="659" y="648" type="line"/>
      <point x="620" y="669" smooth="yes"/>
      <point x="509" y="709" smooth="yes"/>
      <point x="399" y="709" type="curve" smooth="yes"/>
      <point x="179" y="709" smooth="yes"/>
      <point x="50" y="549" smooth="yes"/>
      <point x="50" y="350" type="curve" smooth="yes"/>
      <point x="50" y="150" smooth="yes"/>
      <point x="188" y="-10" smooth="yes"/>
      <point x="407" y="-10" type="curve" smooth="yes"/>
      <point x="536" y="-10"/>
      <point x="616" y="27"/>
      <point x="682" y="77" type="curve"/>
    </contour>
  </outline>
</glyph>
<glyph name="E" format="1">
  <advance width="616"/>
  <unicode hex="0045"/>
  <outline>
    <contour>
      <point x="542" y="143" type="line" name="hr00"/>
      <point x="542" y="56"/>
      <point x="425" y="23"/>
      <point x="260" y="23" type="curve"/>
      <point x="224" y="39" smooth="yes"/>
      <point x="219" y="72" smooth="yes"/>
      <point x="219" y="211" type="curve" smooth="yes"/>
      <point x="219" y="340" type="line"/>
      <point x="408" y="340"/>
      <point x="423" y="321"/>
      <point x="423" y="232" type="curve"/>
      <point x="434" y="230" type="line"/>
      <point x="434" y="473" type="line"/>
      <point x="423" y="471" type="line"/>
      <point x="423" y="383"/>
      <point x="408" y="362"/>
      <point x="219" y="362" type="curve"/>
      <point x="219" y="677" type="line"/>
      <point x="401" y="677"/>
      <point x="505" y="651"/>
      <point x="505" y="558" type="curve"/>
      <point x="517" y="556" type="line"/>
      <point x="517" y="700" type="line"/>
      <point x="50" y="700" type="line"/>
      <point x="52" y="689" type="line"/>
      <point x="142" y="689" smooth="yes"/>
      <point x="150" y="668" smooth="yes"/>
      <point x="150" y="474" type="curve" smooth="yes"/>
      <point x="150" y="226" type="line" smooth="yes"/>
      <point x="150" y="32"/>
      <point x="142" y="12"/>
      <point x="52" y="12" type="curve"/>
      <point x="50" y="0" type="line"/>
      <point x="554" y="0" type="line"/>
      <point x="554" y="145" type="line"/>
    </contour>
  </outline>
</glyph>
<glyph name="F" format="1">
  <advance width="539"/>
  <unicode hex="0046"/>
  <outline>
    <contour>
      <point x="50" y="700" type="line" name="hr00"/>
      <point x="52" y="689" type="line"/>
      <point x="142" y="689" smooth="yes"/>
      <point x="150" y="668" smooth="yes"/>
      <point x="150" y="474" type="curve" smooth="yes"/>
      <point x="150" y="226" type="line" smooth="yes"/>
      <point x="150" y="32"/>
      <point x="142" y="12"/>
      <point x="52" y="12" type="curve"/>
      <point x="50" y="0" type="line"/>
      <point x="350" y="0" type="line"/>
      <point x="348" y="12" type="line"/>
      <point x="228" y="12" smooth="yes"/>
      <point x="221" y="32" smooth="yes"/>
      <point x="221" y="226" type="curve" smooth="yes"/>
      <point x="221" y="340" type="line"/>
      <point x="374" y="337"/>
      <point x="386" y="316"/>
      <point x="386" y="232" type="curve"/>
      <point x="398" y="230" type="line"/>
      <point x="398" y="473" type="line"/>
      <point x="386" y="471" type="line"/>
      <point x="386" y="388"/>
      <point x="374" y="366"/>
      <point x="221" y="362" type="curve"/>
      <point x="221" y="677" type="line"/>
      <point x="401" y="677"/>
      <point x="506" y="651"/>
      <point x="506" y="558" type="curve"/>
      <point x="517" y="556" type="line"/>
      <point x="517" y="700" type="line"/>
    </contour>
  </outline>
</glyph>
<glyph name="G" format="1">
  <advance width="795"/>
  <unicode hex="0047"/>
  <outline>
    <contour>
      <point x="755" y="337" type="curve" name="hr00"/>
      <point x="757" y="347" type="line"/>
      <point x="512" y="347" type="line"/>
      <point x="514" y="337" type="line"/>
      <point x="596" y="337" smooth="yes"/>
      <point x="599" y="320" smooth="yes"/>
      <point x="599" y="175" type="curve" smooth="yes"/>
      <point x="599" y="97" type="line"/>
      <point x="562" y="40" smooth="yes"/>
      <point x="502" y="13" smooth="yes"/>
      <point x="405" y="13" type="curve" smooth="yes"/>
      <point x="230" y="13" smooth="yes"/>
      <point x="137" y="155" smooth="yes"/>
      <point x="137" y="350" type="curve" smooth="yes"/>
      <point x="137" y="544" smooth="yes"/>
      <point x="222" y="686" smooth="yes"/>
      <point x="399" y="686" type="curve" smooth="yes"/>
      <point x="510" y="686"/>
      <point x="618" y="635"/>
      <point x="634" y="522" type="curve"/>
      <point x="645" y="520" type="line"/>
      <point x="645" y="648" type="line"/>
      <point x="606" y="673" smooth="yes"/>
      <point x="501" y="709" smooth="yes"/>
      <point x="399" y="709" type="curve" smooth="yes"/>
      <point x="179" y="709" smooth="yes"/>
      <point x="50" y="549" smooth="yes"/>
      <point x="50" y="350" type="curve" smooth="yes"/>
      <point x="50" y="150" smooth="yes"/>
      <point x="188" y="-10" smooth="yes"/>
      <point x="405" y="-10" type="curve" smooth="yes"/>
      <point x="507" y="-10"/>
      <point x="607" y="24"/>
      <point x="669" y="63" type="curve"/>
      <point x="669" y="187" type="line" smooth="yes"/>
      <point x="669" y="313"/>
      <point x="678" y="337"/>
    </contour>
  </outline>
</glyph>
<glyph name="H" format="1">
  <advance width="844"/>
  <unicode hex="0048"/>
  <outline>
    <contour>
      <point x="792" y="689" type="curve" name="hr00"/>
      <point x="794" y="700" type="line"/>
      <point x="524" y="700" type="line"/>
      <point x="526" y="689" type="line"/>
      <point x="618" y="689" smooth="yes"/>
      <point x="625" y="668" smooth="yes"/>
      <point x="625" y="474" type="curve" smooth="yes"/>
      <point x="625" y="362" type="line"/>
      <point x="220" y="362" type="line"/>
      <point x="220" y="474" type="line" smooth="yes"/>
      <point x="220" y="668"/>
      <point x="228" y="689"/>
      <point x="318" y="689" type="curve"/>
      <point x="320" y="700" type="line"/>
      <point x="50" y="700" type="line"/>
      <point x="52" y="689" type="line"/>
      <point x="143" y="689" smooth="yes"/>
      <point x="150" y="668" smooth="yes"/>
      <point x="150" y="474" type="curve" smooth="yes"/>
      <point x="150" y="226" type="line" smooth="yes"/>
      <point x="150" y="32"/>
      <point x="143" y="12"/>
      <point x="52" y="12" type="curve"/>
      <point x="50" y="0" type="line"/>
      <point x="320" y="0" type="line"/>
      <point x="318" y="12" type="line"/>
      <point x="228" y="12" smooth="yes"/>
      <point x="220" y="32" smooth="yes"/>
      <point x="220" y="226" type="curve" smooth="yes"/>
      <point x="220" y="336" type="line"/>
      <point x="625" y="336" type="line"/>
      <point x="625" y="226" type="line" smooth="yes"/>
      <point x="625" y="32"/>
      <point x="618" y="12"/>
      <point x="526" y="12" type="curve"/>
      <point x="524" y="0" type="line"/>
      <point x="794" y="0" type="line"/>
      <point x="792" y="12" type="line"/>
      <point x="702" y="12" smooth="yes"/>
      <point x="695" y="32" smooth="yes"/>
      <point x="695" y="226" type="curve" smooth="yes"/>
      <point x="695" y="474" type="line" smooth="yes"/>
      <point x="695" y="668"/>
      <point x="702" y="689"/>
    </contour>
  </outline>
</glyph>
<glyph name="I" format="1">
  <advance width="370"/>
  <unicode hex="0049"/>
  <outline>
    <contour>
      <point x="220" y="474" type="line" name="hr00"/>
      <point x="220" y="668"/>
      <point x="228" y="689"/>
      <point x="318" y="689" type="curve"/>
      <point x="320" y="700" type="line"/>
      <point x="50" y="700" type="line"/>
      <point x="52" y="689" type="line"/>
      <point x="143" y="689" smooth="yes"/>
      <point x="150" y="668" smooth="yes"/>
      <point x="150" y="474" type="curve" smooth="yes"/>
      <point x="150" y="226" type="line" smooth="yes"/>
      <point x="150" y="32"/>
      <point x="143" y="12"/>
      <point x="52" y="12" type="curve"/>
      <point x="50" y="0" type="line"/>
      <point x="320" y="0" type="line"/>
      <point x="318" y="12" type="line"/>
      <point x="228" y="12" smooth="yes"/>
      <point x="220" y="32" smooth="yes"/>
      <point x="220" y="226" type="curve" smooth="yes"/>
    </contour>
  </outline>
</glyph>
<glyph name="J" format="1">
  <advance width="464"/>
  <unicode hex="004A"/>
  <outline>
    <contour>
      <point x="152" y="-10" type="curve" smooth="yes" name="hr00"/>
      <point x="226" y="-10" smooth="yes"/>
      <point x="329" y="9" smooth="yes"/>
      <point x="329" y="219" type="curve" smooth="yes"/>
      <point x="329" y="474" type="line" smooth="yes"/>
      <point x="329" y="669"/>
      <point x="337" y="689"/>
      <point x="427" y="689" type="curve"/>
      <point x="429" y="700" type="line"/>
      <point x="160" y="700" type="line"/>
      <point x="162" y="689" type="line"/>
      <point x="252" y="689" smooth="yes"/>
      <point x="259" y="668" smooth="yes"/>
      <point x="259" y="474" type="curve" smooth="yes"/>
      <point x="259" y="172" type="line" smooth="yes"/>
      <point x="259" y="65" smooth="yes"/>
      <point x="223" y="13" smooth="yes"/>
      <point x="156" y="13" type="curve" smooth="yes"/>
      <point x="47" y="13" smooth="yes"/>
      <point x="114" y="147" smooth="yes"/>
      <point x="40" y="147" type="curve" smooth="yes"/>
      <point x="15" y="147" smooth="yes"/>
      <point x="0" y="129" smooth="yes"/>
      <point x="0" y="104" type="curve" smooth="yes"/>
      <point x="0" y="57" smooth="yes"/>
      <point x="63" y="-10" smooth="yes"/>
    </contour>
  </outline>
</glyph>
<glyph name="K" format="1">
  <advance width="668"/>
  <unicode hex="004B"/>
  <outline>
    <contour>
      <point x="282" y="357" type="curve" name="hr00"/>
      <point x="520" y="510"/>
      <point x="461" y="689"/>
      <point x="667" y="689" type="curve"/>
      <point x="669" y="700" type="line"/>
      <point x="421" y="700" type="line"/>
      <point x="423" y="689" type="line"/>
      <point x="462" y="689" smooth="yes"/>
      <point x="472" y="678" smooth="yes"/>
      <point x="472" y="656" type="curve" smooth="yes"/>
      <point x="472" y="543"/>
      <point x="306" y="375"/>
      <point x="220" y="360" type="curve"/>
      <point x="220" y="474" type="line" smooth="yes"/>
      <point x="220" y="668"/>
      <point x="227" y="689"/>
      <point x="317" y="689" type="curve"/>
      <point x="319" y="700" type="line"/>
      <point x="50" y="700" type="line"/>
      <point x="52" y="689" type="line"/>
      <point x="142" y="689" smooth="yes"/>
      <point x="150" y="668" smooth="yes"/>
      <point x="150" y="474" type="curve" smooth="yes"/>
      <point x="150" y="226" type="line" smooth="yes"/>
      <point x="150" y="32"/>
      <point x="142" y="12"/>
      <point x="52" y="12" type="curve"/>
      <point x="50" y="0" type="line"/>
      <point x="319" y="0" type="line"/>
      <point x="317" y="12" type="line"/>
      <point x="227" y="12" smooth="yes"/>
      <point x="220" y="32" smooth="yes"/>
      <point x="220" y="226" type="curve" smooth="yes"/>
      <point x="220" y="342" type="line"/>
      <point x="380" y="337" smooth="yes"/>
      <point x="478" y="0" smooth="yes"/>
      <point x="584" y="0" type="curve" smooth="yes"/>
      <point x="723" y="0" type="line"/>
      <point x="721" y="12" type="line"/>
      <point x="515" y="12"/>
      <point x="527" y="343"/>
    </contour>
  </outline>
</glyph>
<glyph name="L" format="1">
  <advance width="554"/>
  <unicode hex="004C"/>
  <outline>
    <contour>
      <point x="518" y="143" type="line" name="hr00"/>
      <point x="518" y="56"/>
      <point x="420" y="20"/>
      <point x="260" y="20" type="curve"/>
      <point x="224" y="36" smooth="yes"/>
      <point x="220" y="72" smooth="yes"/>
      <point x="220" y="211" type="curve" smooth="yes"/>
      <point x="220" y="474" type="line" smooth="yes"/>
      <point x="220" y="668"/>
      <point x="228" y="689"/>
      <point x="318" y="689" type="curve"/>
      <point x="320" y="700" type="line"/>
      <point x="51" y="700" type="line"/>
      <point x="53" y="689" type="line"/>
      <point x="143" y="689" smooth="yes"/>
      <point x="150" y="668" smooth="yes"/>
      <point x="150" y="474" type="curve" smooth="yes"/>
      <point x="150" y="226" type="line" smooth="yes"/>
      <point x="150" y="32"/>
      <point x="143" y="12"/>
      <point x="53" y="12" type="curve"/>
      <point x="51" y="0" type="line"/>
      <point x="529" y="0" type="line"/>
      <point x="529" y="145" type="line"/>
    </contour>
  </outline>
</glyph>
<glyph name="M" format="1">
  <advance width="974"/>
  <unicode hex="004D"/>
  <outline>
    <contour>
      <point x="824" y="474" type="line" name="hr00"/>
      <point x="824" y="668"/>
      <point x="832" y="689"/>
      <point x="922" y="689" type="curve"/>
      <point x="924" y="700" type="line"/>
      <point x="749" y="700" type="line"/>
      <point x="494" y="117" type="line"/>
      <point x="185" y="700" type="line"/>
      <point x="51" y="700" type="line"/>
      <point x="53" y="689" type="line"/>
      <point x="143" y="689" smooth="yes"/>
      <point x="160" y="669" smooth="yes"/>
      <point x="160" y="473" type="curve" smooth="yes"/>
      <point x="160" y="228" type="line" smooth="yes"/>
      <point x="160" y="32"/>
      <point x="143" y="12"/>
      <point x="53" y="12" type="curve"/>
      <point x="51" y="0" type="line"/>
      <point x="297" y="0" type="line"/>
      <point x="295" y="12" type="line"/>
      <point x="205" y="12" smooth="yes"/>
      <point x="185" y="32" smooth="yes"/>
      <point x="185" y="228" type="curve" smooth="yes"/>
      <point x="185" y="551" type="line"/>
      <point x="474" y="10" type="line"/>
      <point x="754" y="649" type="line"/>
      <point x="754" y="226" type="line" smooth="yes"/>
      <point x="754" y="32"/>
      <point x="748" y="12"/>
      <point x="658" y="12" type="curve"/>
      <point x="656" y="0" type="line"/>
      <point x="924" y="0" type="line"/>
      <point x="922" y="12" type="line"/>
      <point x="832" y="12" smooth="yes"/>
      <point x="824" y="32" smooth="yes"/>
      <point x="824" y="226" type="curve" smooth="yes"/>
    </contour>
  </outline>
</glyph>
<glyph name="N" format="1">
  <advance width="827"/>
  <unicode hex="004E"/>
  <outline>
    <contour>
      <point x="540" y="700" type="line" name="hr00"/>
      <point x="542" y="689" type="line"/>
      <point x="632" y="689" smooth="yes"/>
      <point x="652" y="669" smooth="yes"/>
      <point x="652" y="475" type="curve" smooth="yes"/>
      <point x="652" y="105" type="line"/>
      <point x="175" y="700" type="line"/>
      <point x="39" y="700" type="line"/>
      <point x="41" y="689" type="line"/>
      <point x="131" y="689" smooth="yes"/>
      <point x="150" y="670" smooth="yes"/>
      <point x="150" y="475" type="curve" smooth="yes"/>
      <point x="150" y="228" type="line" smooth="yes"/>
      <point x="150" y="33"/>
      <point x="131" y="12"/>
      <point x="41" y="12" type="curve"/>
      <point x="39" y="0" type="line"/>
      <point x="285" y="0" type="line"/>
      <point x="283" y="12" type="line"/>
      <point x="193" y="12" smooth="yes"/>
      <point x="175" y="33" smooth="yes"/>
      <point x="175" y="228" type="curve" smooth="yes"/>
      <point x="175" y="590" type="line"/>
      <point x="646" y="-5" type="line"/>
      <point x="677" y="-5" type="line"/>
      <point x="677" y="475" type="line" smooth="yes"/>
      <point x="677" y="669"/>
      <point x="695" y="689"/>
      <point x="786" y="689" type="curve"/>
      <point x="788" y="700" type="line"/>
    </contour>
  </outline>
</glyph>
<glyph name="O" format="1">
  <advance width="772"/>
  <unicode hex="004F"/>
  <outline>
    <contour>
      <point x="737" y="357" type="curve" smooth="yes" name="hr00"/>
      <point x="737" y="560" smooth="yes"/>
      <point x="601" y="709" smooth="yes"/>
      <point x="382" y="709" type="curve" smooth="yes"/>
      <point x="164" y="709" smooth="yes"/>
      <point x="35" y="560" smooth="yes"/>
      <point x="35" y="357" type="curve" smooth="yes"/>
      <point x="35" y="153" smooth="yes"/>
      <point x="171" y="-10" smooth="yes"/>
      <point x="390" y="-10" type="curve" smooth="yes"/>
      <point x="610" y="-10" smooth="yes"/>
      <point x="737" y="153" smooth="yes"/>
    </contour>
    <contour>
      <point x="650" y="350" type="curve" smooth="yes"/>
      <point x="650" y="155" smooth="yes"/>
      <point x="565" y="13" smooth="yes"/>
      <point x="390" y="13" type="curve" smooth="yes"/>
      <point x="215" y="13" smooth="yes"/>
      <point x="122" y="155" smooth="yes"/>
      <point x="122" y="350" type="curve" smooth="yes"/>
      <point x="122" y="544" smooth="yes"/>
      <point x="207" y="686" smooth="yes"/>
      <point x="382" y="686" type="curve" smooth="yes"/>
      <point x="557" y="686" smooth="yes"/>
      <point x="650" y="544" smooth="yes"/>
    </contour>
  </outline>
</glyph>
<glyph name="P" format="1">
  <advance width="597"/>
  <unicode hex="0050"/>
  <outline>
    <contour>
      <point x="50" y="700" type="line" name="hr00"/>
      <point x="52" y="688" type="line"/>
      <point x="142" y="688" smooth="yes"/>
      <point x="150" y="668" smooth="yes"/>
      <point x="150" y="474" type="curve" smooth="yes"/>
      <point x="150" y="226" type="line" smooth="yes"/>
      <point x="150" y="32"/>
      <point x="142" y="12"/>
      <point x="52" y="12" type="curve"/>
      <point x="50" y="0" type="line"/>
      <point x="320" y="0" type="line"/>
      <point x="318" y="12" type="line"/>
      <point x="228" y="12" smooth="yes"/>
      <point x="220" y="32" smooth="yes"/>
      <point x="220" y="226" type="curve" smooth="yes"/>
      <point x="220" y="323" type="line"/>
      <point x="252" y="308" smooth="yes"/>
      <point x="294" y="295" smooth="yes"/>
      <point x="363" y="295" type="curve" smooth="yes"/>
      <point x="479" y="295" smooth="yes"/>
      <point x="577" y="377" smooth="yes"/>
      <point x="577" y="498" type="curve" smooth="yes"/>
      <point x="577" y="661" smooth="yes"/>
      <point x="446" y="700" smooth="yes"/>
      <point x="312" y="700" type="curve" smooth="yes"/>
    </contour>
    <contour>
      <point x="220" y="677" type="line"/>
      <point x="285" y="677" type="line" smooth="yes"/>
      <point x="382" y="677" smooth="yes"/>
      <point x="499" y="655" smooth="yes"/>
      <point x="499" y="498" type="curve" smooth="yes"/>
      <point x="499" y="372" smooth="yes"/>
      <point x="429" y="320" smooth="yes"/>
      <point x="346" y="320" type="curve" smooth="yes"/>
      <point x="310" y="320"/>
      <point x="255" y="329"/>
      <point x="220" y="348" type="curve"/>
    </contour>
  </outline>
</glyph>
<glyph name="Q" format="1">
  <advance width="772"/>
  <unicode hex="0051"/>
  <outline>
    <contour>
      <point x="737" y="357" type="curve" smooth="yes" name="hr00"/>
      <point x="737" y="560" smooth="yes"/>
      <point x="601" y="709" smooth="yes"/>
      <point x="382" y="709" type="curve" smooth="yes"/>
      <point x="164" y="709" smooth="yes"/>
      <point x="35" y="560" smooth="yes"/>
      <point x="35" y="357" type="curve" smooth="yes"/>
      <point x="35" y="175"/>
      <point x="142" y="27"/>
      <point x="320" y="-4" type="curve"/>
      <point x="287" y="-8"/>
      <point x="268" y="-13"/>
      <point x="257" y="-18" type="curve"/>
      <point x="262" y="-38" type="line"/>
      <point x="280" y="-32" smooth="yes"/>
      <point x="301" y="-27" smooth="yes"/>
      <point x="323" y="-27" type="curve" smooth="yes"/>
      <point x="446" y="-27" smooth="yes"/>
      <point x="549" y="-135" smooth="yes"/>
      <point x="660" y="-135" type="curve" smooth="yes"/>
      <point x="750" y="-135"/>
      <point x="798" y="-94"/>
      <point x="834" y="-55" type="curve"/>
      <point x="822" y="-42" type="line"/>
      <point x="788" y="-65" smooth="yes"/>
      <point x="746" y="-82" smooth="yes"/>
      <point x="691" y="-82" type="curve" smooth="yes"/>
      <point x="593" y="-82"/>
      <point x="536" y="-24"/>
      <point x="450" y="-5" type="curve"/>
      <point x="633" y="21" smooth="yes"/>
      <point x="737" y="172" smooth="yes"/>
    </contour>
    <contour>
      <point x="650" y="350" type="curve" smooth="yes"/>
      <point x="650" y="155" smooth="yes"/>
      <point x="565" y="13" smooth="yes"/>
      <point x="390" y="13" type="curve" smooth="yes"/>
      <point x="215" y="13" smooth="yes"/>
      <point x="122" y="155" smooth="yes"/>
      <point x="122" y="350" type="curve" smooth="yes"/>
      <point x="122" y="544" smooth="yes"/>
      <point x="207" y="686" smooth="yes"/>
      <point x="382" y="686" type="curve" smooth="yes"/>
      <point x="557" y="686" smooth="yes"/>
      <point x="650" y="544" smooth="yes"/>
    </contour>
  </outline>
</glyph>
<glyph name="R" format="1">
  <advance width="650"/>
  <unicode hex="0052"/>
  <outline>
    <contour>
      <point x="698" y="12" type="line" name="hr00"/>
      <point x="519" y="13"/>
      <point x="515" y="259"/>
      <point x="360" y="350" type="curve"/>
      <point x="452" y="360" smooth="yes"/>
      <point x="536" y="428" smooth="yes"/>
      <point x="536" y="530" type="curve" smooth="yes"/>
      <point x="536" y="674" smooth="yes"/>
      <point x="398" y="700" smooth="yes"/>
      <point x="284" y="700" type="curve" smooth="yes"/>
      <point x="52" y="700" type="line"/>
      <point x="54" y="688" type="line"/>
      <point x="144" y="688" smooth="yes"/>
      <point x="150" y="673" smooth="yes"/>
      <point x="150" y="479" type="curve" smooth="yes"/>
      <point x="150" y="226" type="line" smooth="yes"/>
      <point x="150" y="32"/>
      <point x="144" y="12"/>
      <point x="54" y="12" type="curve"/>
      <point x="52" y="0" type="line"/>
      <point x="320" y="0" type="line"/>
      <point x="318" y="12" type="line"/>
      <point x="228" y="12" smooth="yes"/>
      <point x="219" y="32" smooth="yes"/>
      <point x="219" y="226" type="curve" smooth="yes"/>
      <point x="219" y="350" type="line"/>
      <point x="413" y="341" smooth="yes"/>
      <point x="452" y="0" smooth="yes"/>
      <point x="561" y="0" type="curve" smooth="yes"/>
      <point x="700" y="0" type="line"/>
    </contour>
    <contour>
      <point x="219" y="677" type="line"/>
      <point x="284" y="677" type="line" smooth="yes"/>
      <point x="394" y="677" smooth="yes"/>
      <point x="458" y="628" smooth="yes"/>
      <point x="458" y="528" type="curve" smooth="yes"/>
      <point x="458" y="414" smooth="yes"/>
      <point x="375" y="370" smooth="yes"/>
      <point x="282" y="370" type="curve" smooth="yes"/>
      <point x="219" y="370" type="line"/>
    </contour>
  </outline>
</glyph>
<glyph name="T" format="1">
  <advance width="606"/>
  <unicode hex="0054"/>
  <outline>
    <contour>
      <point x="15" y="700" type="line" name="hr00"/>
      <point x="15" y="556" type="line"/>
      <point x="27" y="558" type="line"/>
      <point x="27" y="644"/>
      <point x="115" y="680"/>
      <point x="269" y="680" type="curve"/>
      <point x="269" y="226" type="line" smooth="yes"/>
      <point x="269" y="32"/>
      <point x="263" y="12"/>
      <point x="152" y="12" type="curve"/>
      <point x="150" y="0" type="line"/>
      <point x="458" y="0" type="line"/>
      <point x="456" y="12" type="line"/>
      <point x="346" y="12" smooth="yes"/>
      <point x="339" y="32" smooth="yes"/>
      <point x="339" y="226" type="curve" smooth="yes"/>
      <point x="339" y="680" type="line"/>
      <point x="493" y="680"/>
      <point x="581" y="644"/>
      <point x="581" y="558" type="curve"/>
      <point x="591" y="556" type="line"/>
      <point x="591" y="700" type="line"/>
    </contour>
  </outline>
</glyph>
<glyph name="U" format="1">
  <advance width="792"/>
  <unicode hex="0055"/>
  <outline>
    <contour>
      <point x="773" y="700" type="line" name="hr00"/>
      <point x="527" y="700" type="line"/>
      <point x="529" y="688" type="line"/>
      <point x="619" y="688" smooth="yes"/>
      <point x="637" y="668" smooth="yes"/>
      <point x="637" y="473" type="curve" smooth="yes"/>
      <point x="637" y="275" type="line" smooth="yes"/>
      <point x="637" y="88" smooth="yes"/>
      <point x="528" y="19" smooth="yes"/>
      <point x="414" y="19" type="curve" smooth="yes"/>
      <point x="292" y="19" smooth="yes"/>
      <point x="200" y="82" smooth="yes"/>
      <point x="200" y="262" type="curve" smooth="yes"/>
      <point x="200" y="474" type="line" smooth="yes"/>
      <point x="200" y="668"/>
      <point x="207" y="688"/>
      <point x="297" y="688" type="curve"/>
      <point x="299" y="700" type="line"/>
      <point x="30" y="700" type="line"/>
      <point x="32" y="688" type="line"/>
      <point x="122" y="688" smooth="yes"/>
      <point x="130" y="668" smooth="yes"/>
      <point x="130" y="474" type="curve" smooth="yes"/>
      <point x="130" y="267" type="line" smooth="yes"/>
      <point x="130" y="102" smooth="yes"/>
      <point x="202" y="-10" smooth="yes"/>
      <point x="401" y="-10" type="curve" smooth="yes"/>
      <point x="513" y="-10" smooth="yes"/>
      <point x="662" y="44" smooth="yes"/>
      <point x="662" y="277" type="curve" smooth="yes"/>
      <point x="662" y="473" type="line" smooth="yes"/>
      <point x="662" y="668"/>
      <point x="681" y="688"/>
      <point x="771" y="688" type="curve"/>
    </contour>
  </outline>
</glyph>
<glyph name="V" format="1">
  <advance width="777"/>
  <unicode hex="0056"/>
  <outline>
    <contour>
      <point x="529" y="688" type="line" name="hr00"/>
      <point x="580" y="688" smooth="yes"/>
      <point x="605" y="682" smooth="yes"/>
      <point x="605" y="641" type="curve" smooth="yes"/>
      <point x="605" y="610" smooth="yes"/>
      <point x="590" y="563" smooth="yes"/>
      <point x="561" y="479" type="curve" smooth="yes"/>
      <point x="413" y="54" type="line"/>
      <point x="257" y="479" type="line" smooth="yes"/>
      <point x="223" y="573" smooth="yes"/>
      <point x="204" y="621" smooth="yes"/>
      <point x="204" y="651" type="curve" smooth="yes"/>
      <point x="204" y="684"/>
      <point x="227" y="688"/>
      <point x="273" y="688" type="curve"/>
      <point x="275" y="700" type="line"/>
      <point x="5" y="700" type="line"/>
      <point x="7" y="688" type="line"/>
      <point x="98" y="688" smooth="yes"/>
      <point x="109" y="673" smooth="yes"/>
      <point x="180" y="479" type="curve" smooth="yes"/>
      <point x="357" y="-5" type="line"/>
      <point x="420" y="-5" type="line"/>
      <point x="588" y="479" type="line" smooth="yes"/>
      <point x="656" y="673"/>
      <point x="680" y="688"/>
      <point x="770" y="688" type="curve"/>
      <point x="772" y="700" type="line"/>
      <point x="527" y="700" type="line"/>
    </contour>
  </outline>
</glyph>
<glyph name="W" format="1">
  <advance width="1091"/>
  <unicode hex="0057"/>
  <outline>
    <contour>
      <point x="706" y="-5" type="line" name="hr00"/>
      <point x="770" y="-5" type="line"/>
      <point x="903" y="479" type="line" smooth="yes"/>
      <point x="957" y="675"/>
      <point x="985" y="688"/>
      <point x="1077" y="688" type="curve"/>
      <point x="1078" y="700" type="line"/>
      <point x="835" y="700" type="line"/>
      <point x="837" y="688" type="line"/>
      <point x="882" y="688" smooth="yes"/>
      <point x="913" y="684" smooth="yes"/>
      <point x="913" y="650" type="curve" smooth="yes"/>
      <point x="913" y="620" smooth="yes"/>
      <point x="894" y="555" smooth="yes"/>
      <point x="874" y="479" type="curve" smooth="yes"/>
      <point x="762" y="58" type="line"/>
      <point x="648" y="479" type="line" smooth="yes"/>
      <point x="623" y="572" smooth="yes"/>
      <point x="617" y="614" smooth="yes"/>
      <point x="617" y="645" type="curve" smooth="yes"/>
      <point x="617" y="681"/>
      <point x="644" y="688"/>
      <point x="691" y="688" type="curve"/>
      <point x="693" y="700" type="line"/>
      <point x="424" y="700" type="line"/>
      <point x="426" y="688" type="line"/>
      <point x="496" y="688"/>
      <point x="514" y="679"/>
      <point x="556" y="538" type="curve"/>
      <point x="398" y="58" type="line"/>
      <point x="259" y="479" type="line" smooth="yes"/>
      <point x="229" y="571" smooth="yes"/>
      <point x="211" y="619" smooth="yes"/>
      <point x="211" y="650" type="curve" smooth="yes"/>
      <point x="211" y="684"/>
      <point x="233" y="688"/>
      <point x="281" y="688" type="curve"/>
      <point x="283" y="700" type="line"/>
      <point x="14" y="700" type="line"/>
      <point x="16" y="688" type="line"/>
      <point x="106" y="688" smooth="yes"/>
      <point x="117" y="674" smooth="yes"/>
      <point x="182" y="479" type="curve" smooth="yes"/>
      <point x="344" y="-5" type="line"/>
      <point x="407" y="-5" type="line"/>
      <point x="568" y="496" type="line"/>
    </contour>
  </outline>
</glyph>
<glyph name="X" format="1">
  <advance width="840"/>
  <unicode hex="0058"/>
  <outline>
    <contour>
      <point x="379" y="479" type="line" smooth="yes" name="hr00"/>
      <point x="298" y="597" smooth="yes"/>
      <point x="256" y="646" smooth="yes"/>
      <point x="256" y="670" type="curve" smooth="yes"/>
      <point x="256" y="686"/>
      <point x="266" y="688"/>
      <point x="309" y="688" type="curve"/>
      <point x="311" y="700" type="line"/>
      <point x="42" y="700" type="line"/>
      <point x="44" y="688" type="line"/>
      <point x="133" y="688" smooth="yes"/>
      <point x="161" y="673" smooth="yes"/>
      <point x="292" y="479" type="curve" smooth="yes"/>
      <point x="388" y="336" type="line"/>
      <point x="308" y="221" type="line" smooth="yes"/>
      <point x="172" y="26"/>
      <point x="133" y="12"/>
      <point x="41" y="12" type="curve"/>
      <point x="39" y="0" type="line"/>
      <point x="294" y="0" type="line"/>
      <point x="292" y="12" type="line"/>
      <point x="251" y="12" smooth="yes"/>
      <point x="229" y="15" smooth="yes"/>
      <point x="229" y="37" type="curve" smooth="yes"/>
      <point x="229" y="63" smooth="yes"/>
      <point x="264" y="110" smooth="yes"/>
      <point x="340" y="221" type="curve" smooth="yes"/>
      <point x="403" y="314" type="line"/>
      <point x="466" y="221" type="line" smooth="yes"/>
      <point x="546" y="102" smooth="yes"/>
      <point x="588" y="55" smooth="yes"/>
      <point x="588" y="31" type="curve" smooth="yes"/>
      <point x="588" y="14"/>
      <point x="576" y="12"/>
      <point x="536" y="12" type="curve"/>
      <point x="534" y="0" type="line"/>
      <point x="802" y="0" type="line"/>
      <point x="800" y="12" type="line"/>
      <point x="710" y="12" smooth="yes"/>
      <point x="685" y="27" smooth="yes"/>
      <point x="554" y="221" type="curve" smooth="yes"/>
      <point x="448" y="376" type="line"/>
      <point x="520" y="479" type="line" smooth="yes"/>
      <point x="656" y="674"/>
      <point x="697" y="688"/>
      <point x="785" y="688" type="curve"/>
      <point x="787" y="700" type="line"/>
      <point x="534" y="700" type="line"/>
      <point x="536" y="688" type="line"/>
      <point x="577" y="688" smooth="yes"/>
      <point x="599" y="686" smooth="yes"/>
      <point x="599" y="664" type="curve" smooth="yes"/>
      <point x="599" y="637" smooth="yes"/>
      <point x="564" y="587" smooth="yes"/>
      <point x="488" y="479" type="curve" smooth="yes"/>
      <point x="432" y="400" type="line"/>
    </contour>
  </outline>
</glyph>
<glyph name="Y" format="1">
  <advance width="721"/>
  <unicode hex="0059"/>
  <outline>
    <contour>
      <point x="410" y="300" type="line" name="hr00"/>
      <point x="497" y="478" type="line" smooth="yes"/>
      <point x="594" y="676"/>
      <point x="604" y="688"/>
      <point x="694" y="688" type="curve"/>
      <point x="696" y="700" type="line"/>
      <point x="472" y="700" type="line"/>
      <point x="474" y="688" type="line"/>
      <point x="520" y="688" smooth="yes"/>
      <point x="541" y="685" smooth="yes"/>
      <point x="541" y="654" type="curve" smooth="yes"/>
      <point x="541" y="623" smooth="yes"/>
      <point x="519" y="575" smooth="yes"/>
      <point x="472" y="478" type="curve" smooth="yes"/>
      <point x="395" y="323" type="line"/>
      <point x="305" y="478" type="line" smooth="yes"/>
      <point x="243" y="585" smooth="yes"/>
      <point x="211" y="636" smooth="yes"/>
      <point x="211" y="663" type="curve" smooth="yes"/>
      <point x="211" y="685"/>
      <point x="230" y="688"/>
      <point x="271" y="688" type="curve"/>
      <point x="273" y="700" type="line"/>
      <point x="24" y="700" type="line"/>
      <point x="26" y="688" type="line"/>
      <point x="98" y="688" smooth="yes"/>
      <point x="113" y="673" smooth="yes"/>
      <point x="228" y="478" type="curve" smooth="yes"/>
      <point x="340" y="289" type="line"/>
      <point x="340" y="226" type="line" smooth="yes"/>
      <point x="340" y="32"/>
      <point x="334" y="12"/>
      <point x="223" y="12" type="curve"/>
      <point x="221" y="0" type="line"/>
      <point x="529" y="0" type="line"/>
      <point x="527" y="12" type="line"/>
      <point x="417" y="12" smooth="yes"/>
      <point x="410" y="32" smooth="yes"/>
      <point x="410" y="226" type="curve" smooth="yes"/>
    </contour>
  </outline>
</glyph>
<glyph name="Z" format="1">
  <advance width="673"/>
  <unicode hex="005A"/>
  <outline>
    <contour>
      <point x="93" y="700" type="line" name="hr00"/>
      <point x="93" y="556" type="line"/>
      <point x="105" y="558" type="line"/>
      <point x="105" y="668"/>
      <point x="285" y="677"/>
      <point x="520" y="677" type="curve"/>
      <point x="56" y="32" type="line"/>
      <point x="56" y="0" type="line"/>
      <point x="603" y="0" type="line"/>
      <point x="603" y="145" type="line"/>
      <point x="592" y="143" type="line"/>
      <point x="592" y="44" smooth="yes"/>
      <point x="491" y="23" smooth="yes"/>
      <point x="296" y="23" type="curve" smooth="yes"/>
      <point x="136" y="23" type="line"/>
      <point x="610" y="672" type="line"/>
      <point x="610" y="700" type="line"/>
    </contour>
  </outline>
</glyph>
<glyph name="bracketleft" format="1">
  <advance width="247"/>
  <unicode hex="005B"/>
  <outline>
    <contour>
      <point x="75" y="-93" type="line" name="hr00"/>
      <point x="222" y="-93" type="line"/>
      <point x="222" y="-71" type="line"/>
      <point x="149" y="-71" type="line"/>
      <point x="149" y="710" type="line"/>
      <point x="222" y="710" type="line"/>
      <point x="222" y="732" type="line"/>
      <point x="75" y="732" type="line"/>
    </contour>
  </outline>
</glyph>
<glyph name="bracketright" format="1">
  <advance width="247"/>
  <unicode hex="005D"/>
  <outline>
    <contour>
      <point x="172" y="-93" type="line" name="hr00"/>
      <point x="25" y="-93" type="line"/>
      <point x="25" y="-71" type="line"/>
      <point x="98" y="-71" type="line"/>
      <point x="98" y="710" type="line"/>
      <point x="25" y="710" type="line"/>
      <point x="25" y="732" type="line"/>
      <point x="172" y="732" type="line"/>
    </contour>
  </outline>
</glyph>
<glyph name="asciicircum" format="1">
  <advance width="550"/>
  <unicode hex="005E"/>
  <outline>
    <contour>
      <point x="251" y="700" type="line" name="hr00"/>
      <point x="131" y="496" type="line"/>
      <point x="179" y="496" type="line"/>
      <point x="275" y="663" type="line"/>
      <point x="371" y="496" type="line"/>
      <point x="419" y="496" type="line"/>
      <point x="299" y="700" type="line"/>
    </contour>
  </outline>
</glyph>
<glyph name="underscore" format="1">
  <advance width="482"/>
  <unicode hex="005F"/>
  <outline>
    <contour>
      <point x="25" y="-98" type="line" name="hr00"/>
      <point x="457" y="-98" type="line"/>
      <point x="457" y="-63" type="line"/>
      <point x="25" y="-63" type="line"/>
    </contour>
  </outline>
</glyph>
<glyph name="grave" format="1">
  <advance width="321"/>
  <unicode hex="0060"/>
  <outline>
    <contour>
      <point x="74" y="729" type="curve" name="hr00"/>
      <point x="53" y="729" smooth="yes"/>
      <point x="39" y="713" smooth="yes"/>
      <point x="39" y="694" type="curve" smooth="yes"/>
      <point x="39" y="679" smooth="yes"/>
      <point x="44" y="663" smooth="yes"/>
      <point x="74" y="647" type="curve" smooth="yes"/>
      <point x="236" y="564" type="line"/>
      <point x="251" y="587" type="line"/>
      <point x="117" y="709" type="line" smooth="yes"/>
      <point x="100" y="724" smooth="yes"/>
      <point x="89" y="729" smooth="yes"/>
    </contour>
  </outline>
</glyph>
<glyph name="a" format="1">
  <advance width="528"/>
  <unicode hex="0061"/>
  <outline>
    <contour>
      <point x="412" y="323" type="line" smooth="yes"/>
      <point x="412" y="433" smooth="yes"/>
      <point x="342" y="483" smooth="yes"/>
      <point x="247" y="483" type="curve" smooth="yes"/>
      <point x="162" y="483" smooth="yes"/>
      <point x="80" y="449" smooth="yes"/>
      <point x="80" y="392" type="curve" smooth="yes"/>
      <point x="80" y="370" smooth="yes"/>
      <point x="92" y="358" smooth="yes"/>
      <point x="114" y="358" type="curve" smooth="yes"/>
      <point x="171" y="358" smooth="yes"/>
      <point x="149" y="461" smooth="yes"/>
      <point x="243" y="461" type="curve" smooth="yes"/>
      <point x="325" y="461" smooth="yes"/>
      <point x="342" y="399" smooth="yes"/>
      <point x="342" y="313" type="curve" smooth="yes"/>
      <point x="342" y="277" type="line"/>
      <point x="130" y="276" smooth="yes"/>
      <point x="50" y="211" smooth="yes"/>
      <point x="50" y="115" type="curve" smooth="yes"/>
      <point x="50" y="36" smooth="yes"/>
      <point x="104" y="-10" smooth="yes"/>
      <point x="183" y="-10" type="curve" smooth="yes"/>
      <point x="281" y="-10"/>
      <point x="319" y="63"/>
      <point x="342" y="129" type="curve"/>
      <point x="342" y="74"/>
      <point x="346" y="20"/>
      <point x="352" y="-5" type="curve"/>
      <point x="436" y="-5"/>
      <point x="503" y="46"/>
      <point x="503" y="46" type="curve"/>
      <point x="498" y="56" type="line"/>
      <point x="484" y="49" smooth="yes"/>
      <point x="470" y="42" smooth="yes"/>
      <point x="453" y="42" type="curve" smooth="yes"/>
      <point x="416" y="42" smooth="yes"/>
      <point x="412" y="80" smooth="yes"/>
      <point x="412" y="222" type="curve" smooth="yes"/>
    </contour>
    <contour>
      <point x="199" y="21" type="curve" smooth="yes" name="hr01"/>
      <point x="150" y="21" smooth="yes"/>
      <point x="126" y="61" smooth="yes"/>
      <point x="126" y="111" type="curve" smooth="yes"/>
      <point x="126" y="186"/>
      <point x="184" y="252"/>
      <point x="342" y="254" type="curve"/>
      <point x="339" y="162" smooth="yes"/>
      <point x="303" y="21" smooth="yes"/>
    </contour>
  </outline>
</glyph>
<glyph name="b" format="1">
  <advance width="556"/>
  <unicode hex="0062"/>
  <outline>
    <contour>
      <point x="329" y="483" type="curve" smooth="yes" name="hr00"/>
      <point x="239" y="483"/>
      <point x="197" y="417"/>
      <point x="176" y="352" type="curve"/>
      <point x="176" y="735" type="line"/>
      <point x="92" y="735"/>
      <point x="20" y="723"/>
      <point x="20" y="723" type="curve"/>
      <point x="22" y="712" type="line"/>
      <point x="102" y="712" smooth="yes"/>
      <point x="106" y="702" smooth="yes"/>
      <point x="106" y="558" type="curve" smooth="yes"/>
      <point x="106" y="17" type="line"/>
      <point x="106" y="17" smooth="yes"/>
      <point x="160" y="-10" smooth="yes"/>
      <point x="266" y="-10" type="curve" smooth="yes"/>
      <point x="422" y="-10" smooth="yes"/>
      <point x="516" y="96" smooth="yes"/>
      <point x="516" y="235" type="curve" smooth="yes"/>
      <point x="516" y="351" smooth="yes"/>
      <point x="466" y="483" smooth="yes"/>
    </contour>
    <contour>
      <point x="275" y="19" type="curve" smooth="yes"/>
      <point x="239" y="19"/>
      <point x="205" y="26"/>
      <point x="176" y="49" type="curve"/>
      <point x="176" y="233" type="line" smooth="yes"/>
      <point x="176" y="292" smooth="yes"/>
      <point x="211" y="452" smooth="yes"/>
      <point x="313" y="452" type="curve" smooth="yes"/>
      <point x="419" y="452" smooth="yes"/>
      <point x="440" y="318" smooth="yes"/>
      <point x="440" y="235" type="curve" smooth="yes"/>
      <point x="440" y="147" smooth="yes"/>
      <point x="404" y="19" smooth="yes"/>
    </contour>
  </outline>
</glyph>
<glyph name="c" format="1">
  <advance width="450"/>
  <unicode hex="0063"/>
  <outline>
    <contour>
      <point x="410" y="99" type="line"/>
      <point x="380" y="42" smooth="yes"/>
      <point x="324" y="19" smooth="yes"/>
      <point x="269" y="19" type="curve" smooth="yes"/>
      <point x="189" y="19" smooth="yes"/>
      <point x="116" y="86" smooth="yes"/>
      <point x="116" y="248" type="curve" smooth="yes"/>
      <point x="116" y="368" smooth="yes"/>
      <point x="161" y="463" smooth="yes"/>
      <point x="262" y="463" type="curve" smooth="yes"/>
      <point x="354" y="463" smooth="yes"/>
      <point x="329" y="368" smooth="yes"/>
      <point x="388" y="368" type="curve" smooth="yes" name="hr01"/>
      <point x="410" y="368" smooth="yes"/>
      <point x="425" y="380" smooth="yes"/>
      <point x="425" y="402" type="curve" smooth="yes"/>
      <point x="425" y="455" smooth="yes"/>
      <point x="342" y="483" smooth="yes"/>
      <point x="261" y="483" type="curve" smooth="yes"/>
      <point x="113" y="483" smooth="yes"/>
      <point x="40" y="371" smooth="yes"/>
      <point x="40" y="236" type="curve" smooth="yes"/>
      <point x="40" y="73" smooth="yes"/>
      <point x="144" y="-10" smooth="yes"/>
      <point x="254" y="-10" type="curve" smooth="yes"/>
      <point x="324" y="-10"/>
      <point x="388" y="17"/>
      <point x="425" y="91" type="curve"/>
    </contour>
  </outline>
</glyph>
<glyph name="d" format="1">
  <advance width="562"/>
  <unicode hex="0064"/>
  <outline>
    <contour>
      <point x="378" y="111" type="curve"/>
      <point x="378" y="56"/>
      <point x="385" y="20"/>
      <point x="391" y="-5" type="curve"/>
      <point x="475" y="-5"/>
      <point x="542" y="46"/>
      <point x="542" y="46" type="curve"/>
      <point x="537" y="56" type="line"/>
      <point x="523" y="49" smooth="yes"/>
      <point x="509" y="42" smooth="yes"/>
      <point x="492" y="42" type="curve" smooth="yes"/>
      <point x="455" y="42" smooth="yes"/>
      <point x="451" y="80" smooth="yes"/>
      <point x="451" y="222" type="curve" smooth="yes"/>
      <point x="451" y="735" type="line"/>
      <point x="367" y="735"/>
      <point x="295" y="723"/>
      <point x="295" y="723" type="curve"/>
      <point x="297" y="712" type="line"/>
      <point x="376" y="712" smooth="yes"/>
      <point x="381" y="702" smooth="yes"/>
      <point x="381" y="566" type="curve" smooth="yes"/>
      <point x="381" y="471" type="line"/>
      <point x="357" y="478" smooth="yes"/>
      <point x="327" y="483" smooth="yes"/>
      <point x="290" y="483" type="curve" smooth="yes"/>
      <point x="134" y="483" smooth="yes"/>
      <point x="40" y="368" smooth="yes"/>
      <point x="40" y="229" type="curve" smooth="yes"/>
      <point x="40" y="123" smooth="yes"/>
      <point x="86" y="-10" smooth="yes"/>
      <point x="223" y="-10" type="curve" smooth="yes"/>
      <point x="312" y="-10"/>
      <point x="359" y="49"/>
    </contour>
    <contour>
      <point x="238" y="21" type="curve" smooth="yes" name="hr01"/>
      <point x="139" y="21" smooth="yes"/>
      <point x="116" y="145" smooth="yes"/>
      <point x="116" y="229" type="curve" smooth="yes"/>
      <point x="116" y="316" smooth="yes"/>
      <point x="153" y="452" smooth="yes"/>
      <point x="282" y="452" type="curve" smooth="yes"/>
      <point x="318" y="452"/>
      <point x="352" y="441"/>
      <point x="381" y="418" type="curve"/>
      <point x="381" y="265" type="line" smooth="yes"/>
      <point x="381" y="174" smooth="yes"/>
      <point x="346" y="21" smooth="yes"/>
    </contour>
  </outline>
</glyph>
<glyph name="f" format="1">
  <advance width="356"/>
  <unicode hex="0066"/>
  <outline>
    <contour>
      <point x="204" y="451" type="line" name="hr00"/>
      <point x="336" y="451" type="line"/>
      <point x="336" y="473" type="line"/>
      <point x="204" y="473" type="line"/>
      <point x="204" y="520" type="line" smooth="yes"/>
      <point x="204" y="641" smooth="yes"/>
      <point x="214" y="717" smooth="yes"/>
      <point x="288" y="717" type="curve" smooth="yes"/>
      <point x="361" y="717" smooth="yes"/>
      <point x="342" y="616" smooth="yes"/>
      <point x="407" y="616" type="curve" smooth="yes"/>
      <point x="429" y="616" smooth="yes"/>
      <point x="446" y="633" smooth="yes"/>
      <point x="446" y="653" type="curve" smooth="yes"/>
      <point x="446" y="703" smooth="yes"/>
      <point x="364" y="745" smooth="yes"/>
      <point x="298" y="745" type="curve" smooth="yes"/>
      <point x="219" y="745"/>
      <point x="134" y="709"/>
      <point x="134" y="473" type="curve"/>
      <point x="42" y="473" type="line"/>
      <point x="42" y="451" type="line"/>
      <point x="134" y="451" type="line"/>
      <point x="134" y="226" type="line" smooth="yes"/>
      <point x="134" y="32"/>
      <point x="127" y="12"/>
      <point x="37" y="12" type="curve"/>
      <point x="35" y="0" type="line"/>
      <point x="304" y="0" type="line"/>
      <point x="302" y="12" type="line"/>
      <point x="212" y="12" smooth="yes"/>
      <point x="204" y="32" smooth="yes"/>
      <point x="204" y="226" type="curve" smooth="yes"/>
    </contour>
  </outline>
</glyph>
<glyph name="g" format="1">
  <advance width="498"/>
  <unicode hex="0067"/>
  <outline>
    <contour>
      <point x="425" y="312" type="curve" smooth="yes"/>
      <point x="425" y="356"/>
      <point x="408" y="394"/>
      <point x="381" y="424" type="curve"/>
      <point x="426" y="459" smooth="yes"/>
      <point x="464" y="506" smooth="yes"/>
      <point x="464" y="545" type="curve" smooth="yes" name="hr01"/>
      <point x="464" y="572" smooth="yes"/>
      <point x="445" y="586" smooth="yes"/>
      <point x="426" y="586" type="curve" smooth="yes"/>
      <point x="407" y="586" smooth="yes"/>
      <point x="388" y="572" smooth="yes"/>
      <point x="388" y="545" type="curve" smooth="yes"/>
      <point x="388" y="530" smooth="yes"/>
      <point x="394" y="511" smooth="yes"/>
      <point x="394" y="494" type="curve" smooth="yes"/>
      <point x="394" y="477"/>
      <point x="386" y="453"/>
      <point x="369" y="436" type="curve"/>
      <point x="336" y="465" smooth="yes"/>
      <point x="290" y="483" smooth="yes"/>
      <point x="239" y="483" type="curve" smooth="yes"/>
      <point x="136" y="483" smooth="yes"/>
      <point x="53" y="411" smooth="yes"/>
      <point x="53" y="312" type="curve" smooth="yes"/>
      <point x="53" y="255"/>
      <point x="81" y="204"/>
      <point x="124" y="171" type="curve"/>
      <point x="81" y="143" smooth="yes"/>
      <point x="49" y="95" smooth="yes"/>
      <point x="49" y="51" type="curve" smooth="yes"/>
      <point x="49" y="13"/>
      <point x="65" y="-22"/>
      <point x="107" y="-39" type="curve"/>
      <point x="51" y="-57" smooth="yes"/>
      <point x="14" y="-111" smooth="yes"/>
      <point x="14" y="-162" type="curve" smooth="yes" name="hr02"/>
      <point x="14" y="-236" smooth="yes"/>
      <point x="96" y="-284" smooth="yes"/>
      <point x="216" y="-284" type="curve" smooth="yes"/>
      <point x="379" y="-284" smooth="yes"/>
      <point x="483" y="-196" smooth="yes"/>
      <point x="483" y="-105" type="curve" smooth="yes"/>
      <point x="483" y="12" smooth="yes"/>
      <point x="349" y="15" smooth="yes"/>
      <point x="178" y="15" type="curve" smooth="yes"/>
      <point x="130" y="15" smooth="yes"/>
      <point x="99" y="41" smooth="yes"/>
      <point x="99" y="79" type="curve" smooth="yes" name="hr03"/>
      <point x="99" y="105"/>
      <point x="111" y="133"/>
      <point x="141" y="160" type="curve"/>
      <point x="169" y="143" smooth="yes"/>
      <point x="203" y="134" smooth="yes"/>
      <point x="239" y="134" type="curve" smooth="yes"/>
      <point x="343" y="134" smooth="yes"/>
      <point x="425" y="214" smooth="yes"/>
    </contour>
    <contour>
      <point x="136" y="-45" type="curve"/>
      <point x="353" y="-45" smooth="yes"/>
      <point x="413" y="-58" smooth="yes"/>
      <point x="413" y="-129" type="curve" smooth="yes" name="hr04"/>
      <point x="413" y="-203" smooth="yes"/>
      <point x="326" y="-262" smooth="yes"/>
      <point x="227" y="-262" type="curve" smooth="yes"/>
      <point x="141" y="-262" smooth="yes"/>
      <point x="84" y="-218" smooth="yes"/>
      <point x="84" y="-152" type="curve" smooth="yes"/>
      <point x="84" y="-101"/>
      <point x="114" y="-58"/>
    </contour>
    <contour>
      <point x="239" y="160" type="curve" smooth="yes"/>
      <point x="163" y="160" smooth="yes"/>
      <point x="126" y="227" smooth="yes"/>
      <point x="126" y="312" type="curve" smooth="yes" name="hr05"/>
      <point x="126" y="397" smooth="yes"/>
      <point x="163" y="458" smooth="yes"/>
      <point x="239" y="458" type="curve" smooth="yes"/>
      <point x="315" y="458" smooth="yes"/>
      <point x="352" y="397" smooth="yes"/>
      <point x="352" y="312" type="curve" smooth="yes"/>
      <point x="352" y="227" smooth="yes"/>
      <point x="315" y="160" smooth="yes"/>
    </contour>
  </outline>
</glyph>
<glyph name="h" format="1">
  <advance width="625"/>
  <unicode hex="0068"/>
  <outline>
    <contour>
      <point x="196" y="736" type="line" name="hr00"/>
      <point x="112" y="736"/>
      <point x="25" y="725"/>
      <point x="25" y="725" type="curve"/>
      <point x="27" y="714" type="line"/>
      <point x="119" y="714" smooth="yes"/>
      <point x="126" y="695" smooth="yes"/>
      <point x="126" y="500" type="curve" smooth="yes"/>
      <point x="126" y="167" type="line" smooth="yes"/>
      <point x="126" y="28"/>
      <point x="122" y="12"/>
      <point x="40" y="12" type="curve"/>
      <point x="38" y="0" type="line"/>
      <point x="282" y="0" type="line"/>
      <point x="280" y="12" type="line"/>
      <point x="201" y="12" smooth="yes"/>
      <point x="196" y="27" smooth="yes"/>
      <point x="196" y="165" type="curve" smooth="yes"/>
      <point x="196" y="254" smooth="yes"/>
      <point x="226" y="452" smooth="yes"/>
      <point x="343" y="452" type="curve" smooth="yes"/>
      <point x="416" y="452" smooth="yes"/>
      <point x="438" y="399" smooth="yes"/>
      <point x="438" y="313" type="curve" smooth="yes"/>
      <point x="438" y="174" type="line" smooth="yes"/>
      <point x="438" y="28"/>
      <point x="436" y="12"/>
      <point x="354" y="12" type="curve"/>
      <point x="352" y="0" type="line"/>
      <point x="595" y="0" type="line"/>
      <point x="593" y="12" type="line"/>
      <point x="515" y="12" smooth="yes"/>
      <point x="508" y="28" smooth="yes"/>
      <point x="508" y="165" type="curve" smooth="yes"/>
      <point x="508" y="323" type="line" smooth="yes"/>
      <point x="508" y="426" smooth="yes"/>
      <point x="458" y="483" smooth="yes"/>
      <point x="355" y="483" type="curve" smooth="yes"/>
      <point x="257" y="483"/>
      <point x="207" y="388"/>
      <point x="196" y="304" type="curve"/>
    </contour>
  </outline>
</glyph>
<glyph name="i" format="1">
  <advance width="317"/>
  <unicode hex="0069"/>
  <outline>
    <contour>
      <point x="106" y="643" type="curve" smooth="yes" name="hr00"/>
      <point x="106" y="612" smooth="yes"/>
      <point x="132" y="586" smooth="yes"/>
      <point x="163" y="586" type="curve" smooth="yes"/>
      <point x="194" y="586" smooth="yes"/>
      <point x="220" y="612" smooth="yes"/>
      <point x="220" y="643" type="curve" smooth="yes"/>
      <point x="220" y="674" smooth="yes"/>
      <point x="194" y="700" smooth="yes"/>
      <point x="163" y="700" type="curve" smooth="yes"/>
      <point x="132" y="700" smooth="yes"/>
      <point x="106" y="674" smooth="yes"/>
    </contour>
    <contour>
      <point x="201" y="483" type="line"/>
      <point x="117" y="483"/>
      <point x="30" y="472"/>
      <point x="30" y="472" type="curve"/>
      <point x="32" y="461" type="line"/>
      <point x="124" y="461" smooth="yes"/>
      <point x="131" y="432" smooth="yes"/>
      <point x="131" y="237" type="curve" smooth="yes"/>
      <point x="131" y="167" type="line" smooth="yes"/>
      <point x="131" y="28"/>
      <point x="127" y="12"/>
      <point x="45" y="12" type="curve"/>
      <point x="43" y="0" type="line"/>
      <point x="287" y="0" type="line"/>
      <point x="285" y="12" type="line"/>
      <point x="206" y="12" smooth="yes"/>
      <point x="201" y="27" smooth="yes"/>
      <point x="201" y="165" type="curve" smooth="yes"/>
    </contour>
  </outline>
</glyph>
<glyph name="j" format="1">
  <advance width="283"/>
  <unicode hex="006A"/>
  <outline>
    <contour>
      <point x="96" y="643" type="curve" smooth="yes"/>
      <point x="96" y="612" smooth="yes"/>
      <point x="122" y="586" smooth="yes"/>
      <point x="153" y="586" type="curve" smooth="yes"/>
      <point x="184" y="586" smooth="yes"/>
      <point x="210" y="612" smooth="yes"/>
      <point x="210" y="643" type="curve" smooth="yes"/>
      <point x="210" y="674" smooth="yes"/>
      <point x="184" y="700" smooth="yes"/>
      <point x="153" y="700" type="curve" smooth="yes"/>
      <point x="122" y="700" smooth="yes"/>
      <point x="96" y="674" smooth="yes"/>
    </contour>
    <contour>
      <point x="191" y="483" type="line"/>
      <point x="107" y="483"/>
      <point x="20" y="472"/>
      <point x="20" y="472" type="curve"/>
      <point x="22" y="461" type="line"/>
      <point x="114" y="461" smooth="yes"/>
      <point x="121" y="442" smooth="yes"/>
      <point x="121" y="247" type="curve" smooth="yes"/>
      <point x="121" y="-30" type="line" smooth="yes"/>
      <point x="121" y="-163" smooth="yes"/>
      <point x="105" y="-228" smooth="yes"/>
      <point x="37" y="-228" type="curve" smooth="yes"/>
      <point x="-10" y="-228" smooth="yes"/>
      <point x="-26" y="-197" smooth="yes"/>
      <point x="-58" y="-197" type="curve" smooth="yes" name="hr01"/>
      <point x="-79" y="-197" smooth="yes"/>
      <point x="-102" y="-211" smooth="yes"/>
      <point x="-102" y="-240" type="curve" smooth="yes"/>
      <point x="-102" y="-269" smooth="yes"/>
      <point x="-71" y="-284" smooth="yes"/>
      <point x="-35" y="-284" type="curve" smooth="yes"/>
      <point x="114" y="-284" smooth="yes"/>
      <point x="191" y="-144" smooth="yes"/>
      <point x="191" y="32" type="curve" smooth="yes"/>
    </contour>
  </outline>
</glyph>
<glyph name="k" format="1">
  <advance width="522"/>
  <unicode hex="006B"/>
  <outline>
    <contour>
      <point x="227" y="262" type="curve" name="hr00"/>
      <point x="291" y="278" smooth="yes"/>
      <point x="323" y="334" smooth="yes"/>
      <point x="417" y="428" type="curve" smooth="yes"/>
      <point x="448" y="459"/>
      <point x="491" y="462"/>
      <point x="516" y="462" type="curve"/>
      <point x="518" y="473" type="line"/>
      <point x="305" y="473" type="line"/>
      <point x="307" y="462" type="line"/>
      <point x="336" y="462" smooth="yes"/>
      <point x="346" y="453" smooth="yes"/>
      <point x="346" y="431" type="curve" smooth="yes"/>
      <point x="346" y="375"/>
      <point x="266" y="275"/>
      <point x="183" y="269" type="curve"/>
      <point x="183" y="735" type="line"/>
      <point x="100" y="735"/>
      <point x="25" y="724"/>
      <point x="25" y="724" type="curve"/>
      <point x="27" y="712" type="line"/>
      <point x="109" y="712" smooth="yes"/>
      <point x="113" y="702" smooth="yes"/>
      <point x="113" y="557" type="curve" smooth="yes"/>
      <point x="113" y="174" type="line" smooth="yes"/>
      <point x="113" y="29"/>
      <point x="109" y="12"/>
      <point x="27" y="12" type="curve"/>
      <point x="25" y="0" type="line"/>
      <point x="269" y="0" type="line"/>
      <point x="267" y="12" type="line"/>
      <point x="188" y="12" smooth="yes"/>
      <point x="183" y="28" smooth="yes"/>
      <point x="183" y="165" type="curve" smooth="yes"/>
      <point x="183" y="252" type="line"/>
      <point x="283" y="238" smooth="yes"/>
      <point x="344" y="0" smooth="yes"/>
      <point x="452" y="0" type="curve" smooth="yes"/>
      <point x="552" y="0" type="line"/>
      <point x="550" y="12" type="line"/>
      <point x="406" y="12"/>
      <point x="392" y="241"/>
    </contour>
  </outline>
</glyph>
<glyph name="l" format="1">
  <advance width="300"/>
  <unicode hex="006C"/>
  <outline>
    <contour>
      <point x="183" y="736" type="line" name="hr00"/>
      <point x="100" y="736"/>
      <point x="25" y="724"/>
      <point x="25" y="724" type="curve"/>
      <point x="27" y="713" type="line"/>
      <point x="109" y="713" smooth="yes"/>
      <point x="113" y="701" smooth="yes"/>
      <point x="113" y="556" type="curve" smooth="yes"/>
      <point x="113" y="174" type="line" smooth="yes"/>
      <point x="113" y="28"/>
      <point x="109" y="12"/>
      <point x="27" y="12" type="curve"/>
      <point x="25" y="0" type="line"/>
      <point x="270" y="0" type="line"/>
      <point x="268" y="12" type="line"/>
      <point x="188" y="12" smooth="yes"/>
      <point x="183" y="28" smooth="yes"/>
      <point x="183" y="174" type="curve" smooth="yes"/>
    </contour>
  </outline>
</glyph>
<glyph name="m" format="1">
  <advance width="902"/>
  <unicode hex="006D"/>
  <outline>
    <contour>
      <point x="493" y="304" type="curve" name="hr00"/>
      <point x="503" y="388" smooth="yes"/>
      <point x="549" y="483" smooth="yes"/>
      <point x="639" y="483" type="curve" smooth="yes"/>
      <point x="735" y="483" smooth="yes"/>
      <point x="785" y="426" smooth="yes"/>
      <point x="785" y="323" type="curve" smooth="yes"/>
      <point x="785" y="165" type="line" smooth="yes"/>
      <point x="785" y="28"/>
      <point x="792" y="12"/>
      <point x="870" y="12" type="curve"/>
      <point x="872" y="0" type="line"/>
      <point x="636" y="0" type="line"/>
      <point x="638" y="12" type="line"/>
      <point x="713" y="12" smooth="yes"/>
      <point x="715" y="28" smooth="yes"/>
      <point x="715" y="174" type="curve" smooth="yes"/>
      <point x="715" y="313" type="line" smooth="yes"/>
      <point x="715" y="399" smooth="yes"/>
      <point x="695" y="452" smooth="yes"/>
      <point x="628" y="452" type="curve" smooth="yes"/>
      <point x="521" y="452" smooth="yes"/>
      <point x="493" y="254" smooth="yes"/>
      <point x="493" y="165" type="curve" smooth="yes"/>
      <point x="493" y="27"/>
      <point x="498" y="12"/>
      <point x="577" y="12" type="curve"/>
      <point x="579" y="0" type="line"/>
      <point x="344" y="0" type="line"/>
      <point x="346" y="12" type="line"/>
      <point x="421" y="12" smooth="yes"/>
      <point x="423" y="28" smooth="yes"/>
      <point x="423" y="174" type="curve" smooth="yes"/>
      <point x="423" y="313" type="line" smooth="yes"/>
      <point x="423" y="399" smooth="yes"/>
      <point x="403" y="452" smooth="yes"/>
      <point x="336" y="452" type="curve" smooth="yes"/>
      <point x="229" y="452" smooth="yes"/>
      <point x="201" y="254" smooth="yes"/>
      <point x="201" y="165" type="curve" smooth="yes"/>
      <point x="201" y="27"/>
      <point x="206" y="12"/>
      <point x="285" y="12" type="curve"/>
      <point x="287" y="0" type="line"/>
      <point x="43" y="0" type="line"/>
      <point x="45" y="12" type="line"/>
      <point x="127" y="12" smooth="yes"/>
      <point x="131" y="28" smooth="yes"/>
      <point x="131" y="167" type="curve" smooth="yes"/>
      <point x="131" y="247" type="line" smooth="yes"/>
      <point x="131" y="442"/>
      <point x="124" y="461"/>
      <point x="32" y="461" type="curve"/>
      <point x="30" y="472" type="line"/>
      <point x="30" y="472"/>
      <point x="117" y="483"/>
      <point x="201" y="483" type="curve"/>
      <point x="201" y="304" type="line"/>
      <point x="211" y="388" smooth="yes"/>
      <point x="257" y="483" smooth="yes"/>
      <point x="347" y="483" type="curve" smooth="yes"/>
      <point x="443" y="483"/>
      <point x="493" y="431"/>
    </contour>
  </outline>
</glyph>
<glyph name="n" format="1">
  <advance width="630"/>
  <unicode hex="006E"/>
  <outline>
    <contour>
      <point x="201" y="483" type="line" name="hr00"/>
      <point x="117" y="483"/>
      <point x="30" y="472"/>
      <point x="30" y="472" type="curve"/>
      <point x="32" y="461" type="line"/>
      <point x="124" y="461" smooth="yes"/>
      <point x="131" y="442" smooth="yes"/>
      <point x="131" y="247" type="curve" smooth="yes"/>
      <point x="131" y="167" type="line" smooth="yes"/>
      <point x="131" y="28"/>
      <point x="127" y="12"/>
      <point x="45" y="12" type="curve"/>
      <point x="43" y="0" type="line"/>
      <point x="287" y="0" type="line"/>
      <point x="285" y="12" type="line"/>
      <point x="206" y="12" smooth="yes"/>
      <point x="201" y="27" smooth="yes"/>
      <point x="201" y="165" type="curve" smooth="yes"/>
      <point x="201" y="254" smooth="yes"/>
      <point x="231" y="452" smooth="yes"/>
      <point x="348" y="452" type="curve" smooth="yes"/>
      <point x="421" y="452" smooth="yes"/>
      <point x="443" y="399" smooth="yes"/>
      <point x="443" y="313" type="curve" smooth="yes"/>
      <point x="443" y="174" type="line" smooth="yes"/>
      <point x="443" y="28"/>
      <point x="441" y="12"/>
      <point x="359" y="12" type="curve"/>
      <point x="357" y="0" type="line"/>
      <point x="600" y="0" type="line"/>
      <point x="598" y="12" type="line"/>
      <point x="520" y="12" smooth="yes"/>
      <point x="513" y="28" smooth="yes"/>
      <point x="513" y="165" type="curve" smooth="yes"/>
      <point x="513" y="323" type="line" smooth="yes"/>
      <point x="513" y="426" smooth="yes"/>
      <point x="463" y="483" smooth="yes"/>
      <point x="360" y="483" type="curve" smooth="yes"/>
      <point x="262" y="483"/>
      <point x="212" y="388"/>
      <point x="201" y="304" type="curve"/>
    </contour>
  </outline>
</glyph>
<glyph name="o" format="1">
  <advance width="532"/>
  <unicode hex="006F"/>
  <outline>
    <contour>
      <point x="262" y="483" type="curve" smooth="yes" name="hr00"/>
      <point x="121" y="483" smooth="yes"/>
      <point x="40" y="371" smooth="yes"/>
      <point x="40" y="236" type="curve" smooth="yes"/>
      <point x="40" y="101" smooth="yes"/>
      <point x="127" y="-10" smooth="yes"/>
      <point x="268" y="-10" type="curve" smooth="yes"/>
      <point x="410" y="-10" smooth="yes"/>
      <point x="492" y="101" smooth="yes"/>
      <point x="492" y="236" type="curve" smooth="yes"/>
      <point x="492" y="371" smooth="yes"/>
      <point x="405" y="483" smooth="yes"/>
    </contour>
    <contour>
      <point x="268" y="10" type="curve" smooth="yes"/>
      <point x="167" y="10" smooth="yes"/>
      <point x="116" y="111" smooth="yes"/>
      <point x="116" y="236" type="curve" smooth="yes"/>
      <point x="116" y="362" smooth="yes"/>
      <point x="162" y="463" smooth="yes"/>
      <point x="263" y="463" type="curve" smooth="yes"/>
      <point x="364" y="463" smooth="yes"/>
      <point x="416" y="362" smooth="yes"/>
      <point x="416" y="236" type="curve" smooth="yes"/>
      <point x="416" y="111" smooth="yes"/>
      <point x="370" y="10" smooth="yes"/>
    </contour>
  </outline>
</glyph>
<glyph name="q" format="1">
  <advance width="545"/>
  <unicode hex="0071"/>
  <outline>
    <contour>
      <point x="290" y="483" type="curve" smooth="yes" name="hr00"/>
      <point x="134" y="483" smooth="yes"/>
      <point x="40" y="368" smooth="yes"/>
      <point x="40" y="229" type="curve" smooth="yes"/>
      <point x="40" y="123" smooth="yes"/>
      <point x="86" y="-10" smooth="yes"/>
      <point x="223" y="-10" type="curve" smooth="yes"/>
      <point x="312" y="-10"/>
      <point x="359" y="49"/>
      <point x="378" y="111" type="curve"/>
      <point x="378" y="-109" type="line" smooth="yes"/>
      <point x="378" y="-247"/>
      <point x="373" y="-262"/>
      <point x="293" y="-262" type="curve"/>
      <point x="291" y="-274" type="line"/>
      <point x="535" y="-274" type="line"/>
      <point x="533" y="-262" type="line"/>
      <point x="452" y="-262" smooth="yes"/>
      <point x="448" y="-246" smooth="yes"/>
      <point x="448" y="-109" type="curve" smooth="yes"/>
      <point x="448" y="478" type="line"/>
      <point x="418" y="458" type="line"/>
      <point x="392" y="469" smooth="yes"/>
      <point x="351" y="483" smooth="yes"/>
    </contour>
    <contour>
      <point x="238" y="21" type="curve" smooth="yes"/>
      <point x="139" y="21" smooth="yes"/>
      <point x="116" y="145" smooth="yes"/>
      <point x="116" y="229" type="curve" smooth="yes"/>
      <point x="116" y="316" smooth="yes"/>
      <point x="153" y="452" smooth="yes"/>
      <point x="282" y="452" type="curve" smooth="yes"/>
      <point x="318" y="452"/>
      <point x="352" y="441"/>
      <point x="381" y="418" type="curve"/>
      <point x="381" y="265" type="line" smooth="yes"/>
      <point x="381" y="174" smooth="yes"/>
      <point x="346" y="21" smooth="yes"/>
    </contour>
  </outline>
</glyph>
<glyph name="r" format="1">
  <advance width="411"/>
  <unicode hex="0072"/>
  <outline>
    <contour>
      <point x="348" y="488" type="curve"/>
      <point x="266" y="488"/>
      <point x="213" y="430"/>
      <point x="199" y="336" type="curve"/>
      <point x="199" y="483" type="line" name="hr01"/>
      <point x="115" y="483"/>
      <point x="30" y="471"/>
      <point x="30" y="471" type="curve"/>
      <point x="32" y="460" type="line"/>
      <point x="122" y="460" smooth="yes"/>
      <point x="129" y="446" smooth="yes"/>
      <point x="129" y="251" type="curve" smooth="yes"/>
      <point x="129" y="193" type="line" smooth="yes"/>
      <point x="129" y="24"/>
      <point x="123" y="12"/>
      <point x="45" y="12" type="curve"/>
      <point x="43" y="0" type="line"/>
      <point x="286" y="0" type="line"/>
      <point x="284" y="12" type="line"/>
      <point x="205" y="12" smooth="yes"/>
      <point x="199" y="24" smooth="yes"/>
      <point x="199" y="193" type="curve" smooth="yes"/>
      <point x="199" y="313" smooth="yes"/>
      <point x="232" y="432" smooth="yes"/>
      <point x="287" y="432" type="curve" smooth="yes" name="hr02"/>
      <point x="333" y="432" smooth="yes"/>
      <point x="340" y="406" smooth="yes"/>
      <point x="371" y="406" type="curve" smooth="yes" name="hr03"/>
      <point x="390" y="406" smooth="yes"/>
      <point x="411" y="420" smooth="yes"/>
      <point x="411" y="447" type="curve" smooth="yes"/>
      <point x="411" y="474" smooth="yes"/>
      <point x="378" y="488" smooth="yes"/>
    </contour>
  </outline>
</glyph>
<glyph name="s" format="1">
  <advance width="411"/>
  <unicode hex="0073"/>
  <outline>
    <contour>
      <point x="190" y="19" type="curve"/>
      <point x="134" y="19"/>
      <point x="72" y="55"/>
      <point x="72" y="149" type="curve"/>
      <point x="60" y="151" type="line"/>
      <point x="55" y="117"/>
      <point x="50" y="76"/>
      <point x="50" y="33" type="curve"/>
      <point x="89" y="3" smooth="yes"/>
      <point x="147" y="-10" smooth="yes"/>
      <point x="197" y="-10" type="curve" smooth="yes"/>
      <point x="287" y="-10" smooth="yes"/>
      <point x="369" y="34" smooth="yes"/>
      <point x="369" y="124" type="curve" smooth="yes"/>
      <point x="369" y="283" smooth="yes"/>
      <point x="122" y="251" smooth="yes"/>
      <point x="122" y="370" type="curve" smooth="yes" name="hr01"/>
      <point x="122" y="429" smooth="yes"/>
      <point x="164" y="456" smooth="yes"/>
      <point x="211" y="456" type="curve" smooth="yes"/>
      <point x="267" y="456"/>
      <point x="318" y="424"/>
      <point x="318" y="330" type="curve"/>
      <point x="330" y="327" type="line"/>
      <point x="335" y="361"/>
      <point x="342" y="412"/>
      <point x="342" y="455" type="curve"/>
      <point x="314" y="471" smooth="yes"/>
      <point x="254" y="483" smooth="yes"/>
      <point x="206" y="483" type="curve" smooth="yes"/>
      <point x="130" y="483" smooth="yes"/>
      <point x="52" y="438" smooth="yes"/>
      <point x="52" y="356" type="curve" smooth="yes"/>
      <point x="52" y="191" smooth="yes"/>
      <point x="299" y="232" smooth="yes"/>
      <point x="299" y="102" type="curve" smooth="yes" name="hr02"/>
      <point x="299" y="50" smooth="yes"/>
      <point x="255" y="19" smooth="yes"/>
    </contour>
  </outline>
</glyph>
<glyph name="t" format="1">
  <advance width="319"/>
  <unicode hex="0074"/>
  <outline>
    <contour>
      <point x="176" y="596" type="line" name="hr00"/>
      <point x="154" y="594" type="line"/>
      <point x="142" y="529"/>
      <point x="126" y="473"/>
      <point x="46" y="473" type="curve"/>
      <point x="46" y="451" type="line"/>
      <point x="106" y="451" type="line"/>
      <point x="106" y="66" type="line" smooth="yes"/>
      <point x="106" y="7" smooth="yes"/>
      <point x="131" y="-10" smooth="yes"/>
      <point x="175" y="-10" type="curve" smooth="yes"/>
      <point x="220" y="-10"/>
      <point x="261" y="10"/>
      <point x="299" y="34" type="curve"/>
      <point x="297" y="45" type="line"/>
      <point x="264" y="31" smooth="yes"/>
      <point x="239" y="24" smooth="yes"/>
      <point x="212" y="24" type="curve" smooth="yes"/>
      <point x="191" y="24" smooth="yes"/>
      <point x="176" y="41" smooth="yes"/>
      <point x="176" y="70" type="curve" smooth="yes"/>
      <point x="176" y="451" type="line"/>
      <point x="299" y="451" type="line"/>
      <point x="299" y="473" type="line"/>
      <point x="176" y="473" type="line"/>
    </contour>
  </outline>
</glyph>
<glyph name="v" format="1">
  <advance width="500"/>
  <unicode hex="0076"/>
  <outline>
    <contour>
      <point x="314" y="461" type="line" name="hr00"/>
      <point x="367" y="461" smooth="yes"/>
      <point x="384" y="439" smooth="yes"/>
      <point x="384" y="407" type="curve" smooth="yes"/>
      <point x="384" y="386" smooth="yes"/>
      <point x="379" y="354" smooth="yes"/>
      <point x="361" y="298" type="curve" smooth="yes"/>
      <point x="283" y="58" type="line"/>
      <point x="206" y="252" type="line" smooth="yes"/>
      <point x="178" y="322" smooth="yes"/>
      <point x="159" y="380" smooth="yes"/>
      <point x="159" y="416" type="curve" smooth="yes"/>
      <point x="159" y="445"/>
      <point x="173" y="461"/>
      <point x="221" y="461" type="curve"/>
      <point x="223" y="473" type="line"/>
      <point x="-25" y="473" type="line"/>
      <point x="-23" y="461" type="line"/>
      <point x="19" y="461" smooth="yes"/>
      <point x="52" y="451" smooth="yes"/>
      <point x="100" y="329" type="curve" smooth="yes"/>
      <point x="230" y="-3" type="line"/>
      <point x="289" y="-3" type="line"/>
      <point x="379" y="271" type="line" smooth="yes"/>
      <point x="438" y="450"/>
      <point x="442" y="461"/>
      <point x="498" y="461" type="curve"/>
      <point x="500" y="473" type="line"/>
      <point x="312" y="473" type="line"/>
    </contour>
  </outline>
</glyph>
<glyph name="w" format="1">
  <advance width="800"/>
  <unicode hex="0077"/>
  <outline>
    <contour>
      <point x="614" y="461" type="line" name="hr00"/>
      <point x="667" y="461" smooth="yes"/>
      <point x="684" y="439" smooth="yes"/>
      <point x="684" y="407" type="curve" smooth="yes"/>
      <point x="684" y="386" smooth="yes"/>
      <point x="679" y="354" smooth="yes"/>
      <point x="661" y="298" type="curve" smooth="yes"/>
      <point x="583" y="58" type="line"/>
      <point x="516" y="252" type="line" smooth="yes"/>
      <point x="491" y="323" smooth="yes"/>
      <point x="469" y="380" smooth="yes"/>
      <point x="469" y="416" type="curve" smooth="yes"/>
      <point x="469" y="445"/>
      <point x="483" y="461"/>
      <point x="531" y="461" type="curve"/>
      <point x="533" y="473" type="line"/>
      <point x="302" y="473" type="line"/>
      <point x="304" y="461" type="line"/>
      <point x="355" y="461"/>
      <point x="377" y="420"/>
      <point x="386" y="395" type="curve"/>
      <point x="283" y="58" type="line"/>
      <point x="206" y="252" type="line" smooth="yes"/>
      <point x="178" y="322" smooth="yes"/>
      <point x="159" y="380" smooth="yes"/>
      <point x="159" y="416" type="curve" smooth="yes"/>
      <point x="159" y="445"/>
      <point x="173" y="461"/>
      <point x="221" y="461" type="curve"/>
      <point x="223" y="473" type="line"/>
      <point x="-25" y="473" type="line"/>
      <point x="-23" y="461" type="line"/>
      <point x="19" y="461" smooth="yes"/>
      <point x="52" y="451" smooth="yes"/>
      <point x="100" y="329" type="curve" smooth="yes"/>
      <point x="230" y="-3" type="line"/>
      <point x="289" y="-3" type="line"/>
      <point x="399" y="358" type="line"/>
      <point x="530" y="-3" type="line"/>
      <point x="589" y="-3" type="line"/>
      <point x="679" y="271" type="line" smooth="yes"/>
      <point x="738" y="450"/>
      <point x="742" y="461"/>
      <point x="798" y="461" type="curve"/>
      <point x="800" y="473" type="line"/>
      <point x="612" y="473" type="line"/>
    </contour>
  </outline>
</glyph>
<glyph name="x" format="1">
  <advance width="498"/>
  <unicode hex="0078"/>
  <outline>
    <contour>
      <point x="232" y="325" type="line" smooth="yes" name="hr00"/>
      <point x="205" y="372" smooth="yes"/>
      <point x="171" y="429" smooth="yes"/>
      <point x="171" y="439" type="curve" smooth="yes"/>
      <point x="171" y="457"/>
      <point x="185" y="461"/>
      <point x="220" y="461" type="curve"/>
      <point x="222" y="473" type="line"/>
      <point x="6" y="473" type="line"/>
      <point x="8" y="461" type="line"/>
      <point x="57" y="461" smooth="yes"/>
      <point x="82" y="438" smooth="yes"/>
      <point x="154" y="320" type="curve" smooth="yes"/>
      <point x="216" y="217" type="line"/>
      <point x="186" y="175" type="line" smooth="yes"/>
      <point x="89" y="40"/>
      <point x="81" y="12"/>
      <point x="2" y="12" type="curve"/>
      <point x="0" y="0" type="line"/>
      <point x="185" y="0" type="line"/>
      <point x="183" y="12" type="line"/>
      <point x="147" y="12" smooth="yes"/>
      <point x="136" y="21" smooth="yes"/>
      <point x="136" y="38" type="curve" smooth="yes"/>
      <point x="136" y="59" smooth="yes"/>
      <point x="168" y="113" smooth="yes"/>
      <point x="204" y="162" type="curve" smooth="yes"/>
      <point x="228" y="196" type="line"/>
      <point x="264" y="138" type="line" smooth="yes"/>
      <point x="294" y="89" smooth="yes"/>
      <point x="315" y="55" smooth="yes"/>
      <point x="315" y="33" type="curve" smooth="yes"/>
      <point x="315" y="15"/>
      <point x="301" y="12"/>
      <point x="264" y="12" type="curve"/>
      <point x="262" y="0" type="line"/>
      <point x="498" y="0" type="line"/>
      <point x="496" y="12" type="line"/>
      <point x="441" y="12" smooth="yes"/>
      <point x="412" y="26" smooth="yes"/>
      <point x="342" y="143" type="curve" smooth="yes"/>
      <point x="277" y="250" type="line"/>
      <point x="312" y="298" type="line" smooth="yes"/>
      <point x="409" y="433"/>
      <point x="412" y="461"/>
      <point x="491" y="461" type="curve"/>
      <point x="493" y="473" type="line"/>
      <point x="309" y="473" type="line"/>
      <point x="311" y="461" type="line"/>
      <point x="347" y="461" smooth="yes"/>
      <point x="362" y="452" smooth="yes"/>
      <point x="362" y="435" type="curve" smooth="yes"/>
      <point x="362" y="414" smooth="yes"/>
      <point x="330" y="360" smooth="yes"/>
      <point x="294" y="311" type="curve" smooth="yes"/>
      <point x="265" y="270" type="line"/>
    </contour>
  </outline>
</glyph>
<glyph name="y" format="1">
  <advance width="500"/>
  <unicode hex="0079"/>
  <outline>
    <contour>
      <point x="97" y="-210" type="curve" smooth="yes"/>
      <point x="167" y="-210"/>
      <point x="205" y="-155"/>
      <point x="249" y="-47" type="curve" name="hr01"/>
      <point x="100" y="329" type="line" smooth="yes"/>
      <point x="52" y="451"/>
      <point x="19" y="461"/>
      <point x="-23" y="461" type="curve"/>
      <point x="-25" y="473" type="line"/>
      <point x="223" y="473" type="line"/>
      <point x="221" y="461" type="line"/>
      <point x="173" y="461" smooth="yes"/>
      <point x="159" y="445" smooth="yes"/>
      <point x="159" y="416" type="curve" smooth="yes"/>
      <point x="159" y="380" smooth="yes"/>
      <point x="178" y="322" smooth="yes"/>
      <point x="206" y="252" type="curve" smooth="yes"/>
      <point x="283" y="58" type="line"/>
      <point x="361" y="298" type="line" smooth="yes"/>
      <point x="379" y="354" smooth="yes"/>
      <point x="384" y="386" smooth="yes"/>
      <point x="384" y="407" type="curve" smooth="yes"/>
      <point x="384" y="439"/>
      <point x="367" y="461"/>
      <point x="314" y="461" type="curve"/>
      <point x="312" y="473" type="line"/>
      <point x="500" y="473" type="line"/>
      <point x="498" y="461" type="line"/>
      <point x="442" y="461" smooth="yes"/>
      <point x="438" y="450" smooth="yes"/>
      <point x="379" y="271" type="curve" smooth="yes"/>
      <point x="289" y="-3" type="line" smooth="yes"/>
      <point x="230" y="-183" smooth="yes"/>
      <point x="148" y="-284" smooth="yes"/>
      <point x="63" y="-284" type="curve" smooth="yes"/>
      <point x="27" y="-284" smooth="yes"/>
      <point x="-4" y="-269" smooth="yes"/>
      <point x="-4" y="-240" type="curve" smooth="yes"/>
      <point x="-4" y="-211" smooth="yes"/>
      <point x="19" y="-197" smooth="yes"/>
      <point x="35" y="-197" type="curve" smooth="yes"/>
      <point x="64" y="-197" smooth="yes"/>
      <point x="73" y="-210" smooth="yes"/>
    </contour>
  </outline>
</glyph>
<glyph name="z" format="1">
  <advance width="456"/>
  <unicode hex="007A"/>
  <outline>
    <contour>
      <point x="231" y="22" type="line" smooth="yes" name="hr00"/>
      <point x="345" y="22"/>
      <point x="377" y="38"/>
      <point x="377" y="125" type="curve"/>
      <point x="389" y="128" type="line"/>
      <point x="394" y="94"/>
      <point x="401" y="43"/>
      <point x="401" y="0" type="curve"/>
      <point x="40" y="0" type="line"/>
      <point x="40" y="14" type="line"/>
      <point x="321" y="451" type="line"/>
      <point x="230" y="451" type="line" smooth="yes"/>
      <point x="116" y="451"/>
      <point x="84" y="435"/>
      <point x="84" y="348" type="curve"/>
      <point x="72" y="345" type="line"/>
      <point x="67" y="379"/>
      <point x="60" y="430"/>
      <point x="60" y="473" type="curve"/>
      <point x="416" y="473" type="line"/>
      <point x="416" y="462" type="line"/>
      <point x="128" y="22" type="line"/>
    </contour>
  </outline>
</glyph>
<glyph name="braceleft" format="1">
  <advance width="330"/>
  <unicode hex="007B"/>
  <outline>
    <contour>
      <point x="55" y="306" type="line" name="hr00"/>
      <point x="106" y="303" smooth="yes"/>
      <point x="117" y="270" smooth="yes"/>
      <point x="117" y="114" type="curve" smooth="yes"/>
      <point x="117" y="-1"/>
      <point x="144" y="-102"/>
      <point x="295" y="-102" type="curve"/>
      <point x="295" y="-75" type="line"/>
      <point x="221" y="-75" smooth="yes"/>
      <point x="192" y="2" smooth="yes"/>
      <point x="192" y="94" type="curve" smooth="yes"/>
      <point x="192" y="246"/>
      <point x="176" y="309"/>
      <point x="109" y="319" type="curve"/>
      <point x="176" y="329" smooth="yes"/>
      <point x="192" y="392" smooth="yes"/>
      <point x="192" y="544" type="curve" smooth="yes"/>
      <point x="192" y="636"/>
      <point x="221" y="713"/>
      <point x="295" y="713" type="curve"/>
      <point x="295" y="740" type="line"/>
      <point x="144" y="740" smooth="yes"/>
      <point x="117" y="639" smooth="yes"/>
      <point x="117" y="524" type="curve" smooth="yes"/>
      <point x="117" y="368"/>
      <point x="106" y="335"/>
      <point x="55" y="332" type="curve"/>
    </contour>
  </outline>
</glyph>
<glyph name="bar" format="1">
  <advance width="211"/>
  <unicode hex="007C"/>
  <outline>
    <contour>
      <point x="136" y="-194" type="line" name="hr00"/>
      <point x="75" y="-194" type="line"/>
      <point x="75" y="720" type="line"/>
      <point x="136" y="720" type="line"/>
    </contour>
  </outline>
</glyph>
<glyph name="braceright" format="1">
  <advance width="330"/>
  <unicode hex="007D"/>
  <outline>
    <contour>
      <point x="275" y="306" type="line" name="hr00"/>
      <point x="224" y="303" smooth="yes"/>
      <point x="213" y="270" smooth="yes"/>
      <point x="213" y="114" type="curve" smooth="yes"/>
      <point x="213" y="-1"/>
      <point x="186" y="-102"/>
      <point x="35" y="-102" type="curve"/>
      <point x="35" y="-75" type="line"/>
      <point x="109" y="-75" smooth="yes"/>
      <point x="138" y="2" smooth="yes"/>
      <point x="138" y="94" type="curve" smooth="yes"/>
      <point x="138" y="246"/>
      <point x="154" y="309"/>
      <point x="221" y="319" type="curve"/>
      <point x="154" y="329" smooth="yes"/>
      <point x="138" y="392" smooth="yes"/>
      <point x="138" y="544" type="curve" smooth="yes"/>
      <point x="138" y="636"/>
      <point x="109" y="713"/>
      <point x="35" y="713" type="curve"/>
      <point x="35" y="740" type="line"/>
      <point x="186" y="740" smooth="yes"/>
      <point x="213" y="639" smooth="yes"/>
      <point x="213" y="524" type="curve" smooth="yes"/>
      <point x="213" y="368"/>
      <point x="224" y="335"/>
      <point x="275" y="332" type="curve"/>
    </contour>
  </outline>
</glyph>
<glyph name="asciitilde" format="1">
  <advance width="550"/>
  <unicode hex="007E"/>
  <outline>
    <contour>
      <point x="452" y="295" type="line" name="hr00"/>
      <point x="427" y="317" smooth="yes"/>
      <point x="395" y="329" smooth="yes"/>
      <point x="363" y="329" type="curve" smooth="yes"/>
      <point x="301" y="329" smooth="yes"/>
      <point x="248" y="261" smooth="yes"/>
      <point x="176" y="261" type="curve" smooth="yes"/>
      <point x="146" y="261"/>
      <point x="118" y="271"/>
      <point x="98" y="295" type="curve"/>
      <point x="98" y="343" type="line"/>
      <point x="119" y="318" smooth="yes"/>
      <point x="147" y="309" smooth="yes"/>
      <point x="179" y="309" type="curve" smooth="yes"/>
      <point x="239" y="309" smooth="yes"/>
      <point x="292" y="377" smooth="yes"/>
      <point x="363" y="377" type="curve" smooth="yes"/>
      <point x="395" y="377"/>
      <point x="427" y="365"/>
      <point x="452" y="343" type="curve"/>
    </contour>
  </outline>
</glyph>
<glyph name="exclamdown" format="1">
  <advance width="244"/>
  <unicode hex="00A1"/>
  <outline>
    <contour>
      <point x="122" y="-236" type="curve" smooth="yes" name="hr00"/>
      <point x="155" y="-236" smooth="yes"/>
      <point x="167" y="-212" smooth="yes"/>
      <point x="167" y="-188" type="curve" smooth="yes"/>
      <point x="167" y="-60"/>
      <point x="135" y="153"/>
      <point x="135" y="298" type="curve"/>
      <point x="110" y="298" type="line"/>
      <point x="110" y="153" smooth="yes"/>
      <point x="78" y="-60" smooth="yes"/>
      <point x="78" y="-188" type="curve" smooth="yes"/>
      <point x="78" y="-212" smooth="yes"/>
      <point x="90" y="-236" smooth="yes"/>
    </contour>
    <contour>
      <point x="122" y="377" type="curve" smooth="yes"/>
      <point x="94" y="377" smooth="yes"/>
      <point x="70" y="400" smooth="yes"/>
      <point x="70" y="431" type="curve" smooth="yes"/>
      <point x="70" y="460" smooth="yes"/>
      <point x="94" y="483" smooth="yes"/>
      <point x="122" y="483" type="curve" smooth="yes"/>
      <point x="152" y="483" smooth="yes"/>
      <point x="175" y="460" smooth="yes"/>
      <point x="175" y="431" type="curve" smooth="yes"/>
      <point x="175" y="400" smooth="yes"/>
      <point x="152" y="377" smooth="yes"/>
    </contour>
  </outline>
</glyph>
<glyph name="cent" format="1">
  <advance width="550"/>
  <unicode hex="00A2"/>
  <outline>
    <contour>
      <point x="248" y="-70" type="line" name="hr00"/>
      <point x="284" y="-70" type="line"/>
      <point x="296" y="75" type="line"/>
      <point x="374" y="75"/>
      <point x="438" y="102"/>
      <point x="475" y="176" type="curve"/>
      <point x="460" y="184" type="line"/>
      <point x="430" y="127" smooth="yes"/>
      <point x="374" y="104" smooth="yes"/>
      <point x="319" y="104" type="curve" smooth="yes"/>
      <point x="312" y="104"/>
      <point x="305" y="104"/>
      <point x="299" y="105" type="curve"/>
      <point x="336" y="545" type="line"/>
      <point x="400" y="530" smooth="yes"/>
      <point x="385" y="453" smooth="yes"/>
      <point x="438" y="453" type="curve" smooth="yes"/>
      <point x="460" y="453" smooth="yes"/>
      <point x="475" y="465" smooth="yes"/>
      <point x="475" y="487" type="curve" smooth="yes"/>
      <point x="475" y="534"/>
      <point x="410" y="561"/>
      <point x="338" y="567" type="curve"/>
      <point x="351" y="713" type="line"/>
      <point x="315" y="713" type="line"/>
      <point x="302" y="568" type="line"/>
      <point x="160" y="564" smooth="yes"/>
      <point x="90" y="453" smooth="yes"/>
      <point x="90" y="321" type="curve" smooth="yes"/>
      <point x="90" y="179"/>
      <point x="168" y="98"/>
      <point x="261" y="79" type="curve"/>
    </contour>
    <contour>
      <point x="166" y="333" type="curve" smooth="yes"/>
      <point x="166" y="448"/>
      <point x="208" y="540"/>
      <point x="301" y="547" type="curve"/>
      <point x="264" y="116" type="line"/>
      <point x="208" y="141" smooth="yes"/>
      <point x="166" y="209" smooth="yes"/>
    </contour>
  </outline>
</glyph>
<glyph name="sterling" format="1">
  <advance width="550"/>
  <unicode hex="00A3"/>
  <outline>
    <contour>
      <point x="79" y="299" type="line"/>
      <point x="156" y="299" type="line"/>
      <point x="162" y="244" smooth="yes"/>
      <point x="169" y="195" smooth="yes"/>
      <point x="169" y="147" type="curve" smooth="yes"/>
      <point x="169" y="133"/>
      <point x="168" y="119"/>
      <point x="167" y="105" type="curve"/>
      <point x="154" y="109" smooth="yes"/>
      <point x="140" y="112" smooth="yes"/>
      <point x="128" y="112" type="curve" smooth="yes"/>
      <point x="89" y="112" smooth="yes"/>
      <point x="59" y="89" smooth="yes"/>
      <point x="59" y="47" type="curve" smooth="yes"/>
      <point x="59" y="18" smooth="yes"/>
      <point x="79" y="-10" smooth="yes"/>
      <point x="122" y="-10" type="curve" smooth="yes"/>
      <point x="163" y="-10"/>
      <point x="192" y="14"/>
      <point x="205" y="50" type="curve"/>
      <point x="258" y="24" smooth="yes"/>
      <point x="323" y="-5" smooth="yes"/>
      <point x="372" y="-5" type="curve" smooth="yes"/>
      <point x="461" y="-5"/>
      <point x="537" y="88"/>
      <point x="537" y="88" type="curve"/>
      <point x="527" y="103" type="line"/>
      <point x="488" y="76" smooth="yes"/>
      <point x="433" y="54" smooth="yes"/>
      <point x="379" y="54" type="curve" smooth="yes"/>
      <point x="326" y="54"/>
      <point x="264" y="73"/>
      <point x="218" y="89" type="curve"/>
      <point x="226" y="133" smooth="yes"/>
      <point x="229" y="177" smooth="yes"/>
      <point x="229" y="219" type="curve" smooth="yes"/>
      <point x="229" y="246"/>
      <point x="227" y="272"/>
      <point x="226" y="299" type="curve"/>
      <point x="389" y="299" type="line"/>
      <point x="389" y="337" type="line"/>
      <point x="223" y="337" type="line"/>
      <point x="221" y="367" smooth="yes"/>
      <point x="220" y="398" smooth="yes"/>
      <point x="220" y="429" type="curve" smooth="yes"/>
      <point x="220" y="538" smooth="yes"/>
      <point x="260" y="627" smooth="yes"/>
      <point x="342" y="627" type="curve" smooth="yes"/>
      <point x="442" y="627" smooth="yes"/>
      <point x="392" y="504" smooth="yes"/>
      <point x="456" y="504" type="curve" smooth="yes"/>
      <point x="478" y="504" smooth="yes"/>
      <point x="490" y="519" smooth="yes"/>
      <point x="490" y="540" type="curve" smooth="yes"/>
      <point x="490" y="591" smooth="yes"/>
      <point x="439" y="653" smooth="yes"/>
      <point x="340" y="653" type="curve" smooth="yes"/>
      <point x="182" y="653" smooth="yes"/>
      <point x="149" y="516" smooth="yes"/>
      <point x="149" y="429" type="curve" smooth="yes" name="hr01"/>
      <point x="149" y="396"/>
      <point x="150" y="366"/>
      <point x="153" y="337" type="curve"/>
      <point x="79" y="337" type="line"/>
    </contour>
    <contour>
      <point x="115" y="13" type="curve" smooth="yes"/>
      <point x="98" y="13" smooth="yes"/>
      <point x="84" y="26" smooth="yes"/>
      <point x="84" y="45" type="curve" smooth="yes"/>
      <point x="84" y="60" smooth="yes"/>
      <point x="93" y="80" smooth="yes"/>
      <point x="121" y="80" type="curve" smooth="yes"/>
      <point x="130" y="80"/>
      <point x="147" y="76"/>
      <point x="163" y="69" type="curve"/>
      <point x="158" y="36" smooth="yes"/>
      <point x="141" y="13" smooth="yes"/>
    </contour>
  </outline>
</glyph>
<glyph name="currency" format="1">
  <advance width="550"/>
  <unicode hex="00A4"/>
  <outline>
    <contour>
      <point x="124" y="134" type="line" name="hr00"/>
      <point x="191" y="201" type="line"/>
      <point x="213" y="185" smooth="yes"/>
      <point x="241" y="177" smooth="yes"/>
      <point x="274" y="177" type="curve" smooth="yes"/>
      <point x="307" y="177"/>
      <point x="336" y="186"/>
      <point x="358" y="201" type="curve"/>
      <point x="426" y="134" type="line"/>
      <point x="460" y="168" type="line"/>
      <point x="392" y="235" type="line"/>
      <point x="409" y="259" smooth="yes"/>
      <point x="418" y="288" smooth="yes"/>
      <point x="418" y="320" type="curve" smooth="yes"/>
      <point x="418" y="351"/>
      <point x="410" y="380"/>
      <point x="394" y="404" type="curve"/>
      <point x="460" y="470" type="line"/>
      <point x="426" y="504" type="line"/>
      <point x="360" y="438" type="line"/>
      <point x="337" y="454" smooth="yes"/>
      <point x="308" y="464" smooth="yes"/>
      <point x="274" y="464" type="curve" smooth="yes"/>
      <point x="241" y="464"/>
      <point x="212" y="454"/>
      <point x="189" y="438" type="curve"/>
      <point x="124" y="504" type="line"/>
      <point x="90" y="470" type="line"/>
      <point x="156" y="404" type="line"/>
      <point x="140" y="380" smooth="yes"/>
      <point x="131" y="351" smooth="yes"/>
      <point x="131" y="320" type="curve" smooth="yes"/>
      <point x="131" y="288"/>
      <point x="140" y="259"/>
      <point x="157" y="235" type="curve"/>
      <point x="90" y="168" type="line"/>
    </contour>
    <contour>
      <point x="274" y="420" type="curve" smooth="yes"/>
      <point x="335" y="420" smooth="yes"/>
      <point x="374" y="375" smooth="yes"/>
      <point x="374" y="320" type="curve" smooth="yes"/>
      <point x="374" y="266" smooth="yes"/>
      <point x="335" y="221" smooth="yes"/>
      <point x="274" y="221" type="curve" smooth="yes"/>
      <point x="214" y="221" smooth="yes"/>
      <point x="175" y="266" smooth="yes"/>
      <point x="175" y="320" type="curve" smooth="yes"/>
      <point x="175" y="375" smooth="yes"/>
      <point x="214" y="420" smooth="yes"/>
    </contour>
  </outline>
</glyph>
<glyph name="yen" format="1">
  <advance width="550"/>
  <unicode hex="00A5"/>
  <outline>
    <contour>
      <point x="85" y="369" type="line" name="hr00"/>
      <point x="192" y="369" type="line"/>
      <point x="245" y="267" type="line"/>
      <point x="85" y="267" type="line"/>
      <point x="85" y="229" type="line"/>
      <point x="245" y="229" type="line"/>
      <point x="245" y="206" type="line" smooth="yes"/>
      <point x="245" y="12"/>
      <point x="239" y="12"/>
      <point x="128" y="12" type="curve"/>
      <point x="126" y="0" type="line"/>
      <point x="434" y="0" type="line"/>
      <point x="432" y="12" type="line"/>
      <point x="322" y="12" smooth="yes"/>
      <point x="315" y="12" smooth="yes"/>
      <point x="315" y="206" type="curve" smooth="yes"/>
      <point x="315" y="229" type="line"/>
      <point x="475" y="229" type="line"/>
      <point x="475" y="267" type="line"/>
      <point x="315" y="267" type="line"/>
      <point x="355" y="369" type="line"/>
      <point x="475" y="369" type="line"/>
      <point x="475" y="407" type="line"/>
      <point x="370" y="407" type="line"/>
      <point x="451" y="603"/>
      <point x="473" y="631"/>
      <point x="542" y="631" type="curve"/>
      <point x="544" y="643" type="line"/>
      <point x="340" y="643" type="line"/>
      <point x="342" y="631" type="line"/>
      <point x="388" y="631" smooth="yes"/>
      <point x="406" y="628" smooth="yes"/>
      <point x="406" y="597" type="curve" smooth="yes"/>
      <point x="406" y="575" smooth="yes"/>
      <point x="381" y="504" smooth="yes"/>
      <point x="342" y="401" type="curve" smooth="yes"/>
      <point x="302" y="295" type="line"/>
      <point x="249" y="401" type="line" smooth="yes"/>
      <point x="194" y="512" smooth="yes"/>
      <point x="159" y="579" smooth="yes"/>
      <point x="159" y="606" type="curve" smooth="yes"/>
      <point x="159" y="628"/>
      <point x="178" y="631"/>
      <point x="219" y="631" type="curve"/>
      <point x="221" y="643" type="line"/>
      <point x="-8" y="643" type="line"/>
      <point x="-6" y="631" type="line"/>
      <point x="45" y="631"/>
      <point x="70" y="602"/>
      <point x="173" y="407" type="curve"/>
      <point x="85" y="407" type="line"/>
    </contour>
  </outline>
</glyph>
<glyph name="brokenbar" format="1">
  <advance width="211"/>
  <unicode hex="00A6"/>
  <outline>
    <contour>
      <point x="136" y="-194" type="line" name="hr00"/>
      <point x="75" y="-194" type="line"/>
      <point x="75" y="147" type="line"/>
      <point x="136" y="147" type="line"/>
    </contour>
    <contour>
      <point x="136" y="379" type="line"/>
      <point x="75" y="379" type="line"/>
      <point x="75" y="720" type="line"/>
      <point x="136" y="720" type="line"/>
    </contour>
  </outline>
</glyph>
<glyph name="section" format="1">
  <advance width="550"/>
  <unicode hex="00A7"/>
  <outline>
    <contour>
      <point x="263" y="-258" type="curve" smooth="yes" name="hr00"/>
      <point x="338" y="-258" smooth="yes"/>
      <point x="406" y="-230" smooth="yes"/>
      <point x="406" y="-136" type="curve" smooth="yes"/>
      <point x="406" y="15" smooth="yes"/>
      <point x="87" y="28" smooth="yes"/>
      <point x="87" y="226" type="curve" smooth="yes"/>
      <point x="87" y="302"/>
      <point x="143" y="357"/>
      <point x="221" y="373" type="curve"/>
      <point x="150" y="417" smooth="yes"/>
      <point x="87" y="468" smooth="yes"/>
      <point x="87" y="557" type="curve" smooth="yes"/>
      <point x="87" y="648" smooth="yes"/>
      <point x="167" y="709" smooth="yes"/>
      <point x="268" y="709" type="curve" smooth="yes"/>
      <point x="367" y="709" smooth="yes"/>
      <point x="445" y="665" smooth="yes"/>
      <point x="445" y="614" type="curve" smooth="yes"/>
      <point x="445" y="595" smooth="yes"/>
      <point x="428" y="579" smooth="yes"/>
      <point x="408" y="579" type="curve" smooth="yes"/>
      <point x="361" y="579" smooth="yes"/>
      <point x="352" y="683" smooth="yes"/>
      <point x="269" y="683" type="curve" smooth="yes"/>
      <point x="197" y="683" smooth="yes"/>
      <point x="149" y="641" smooth="yes"/>
      <point x="149" y="576" type="curve" smooth="yes"/>
      <point x="149" y="420" smooth="yes"/>
      <point x="468" y="423" smooth="yes"/>
      <point x="468" y="218" type="curve" smooth="yes"/>
      <point x="468" y="132"/>
      <point x="416" y="81"/>
      <point x="351" y="59" type="curve"/>
      <point x="414" y="20" smooth="yes"/>
      <point x="468" y="-29" smooth="yes"/>
      <point x="468" y="-113" type="curve" smooth="yes"/>
      <point x="468" y="-235" smooth="yes"/>
      <point x="364" y="-285" smooth="yes"/>
      <point x="262" y="-285" type="curve" smooth="yes"/>
      <point x="163" y="-285" smooth="yes"/>
      <point x="85" y="-241" smooth="yes"/>
      <point x="85" y="-190" type="curve" smooth="yes"/>
      <point x="85" y="-171" smooth="yes"/>
      <point x="102" y="-155" smooth="yes"/>
      <point x="122" y="-155" type="curve" smooth="yes"/>
      <point x="169" y="-155" smooth="yes"/>
      <point x="178" y="-258" smooth="yes"/>
    </contour>
    <contour>
      <point x="406" y="195" type="curve" smooth="yes"/>
      <point x="406" y="267"/>
      <point x="333" y="308"/>
      <point x="258" y="351" type="curve"/>
      <point x="192" y="347" smooth="yes"/>
      <point x="149" y="306" smooth="yes"/>
      <point x="149" y="245" type="curve" smooth="yes"/>
      <point x="149" y="164"/>
      <point x="235" y="122"/>
      <point x="318" y="79" type="curve"/>
      <point x="368" y="91" smooth="yes"/>
      <point x="406" y="125" smooth="yes"/>
    </contour>
  </outline>
</glyph>
<glyph name="dieresis" format="1">
  <advance width="413"/>
  <unicode hex="00A8"/>
  <outline>
    <contour>
      <point x="49" y="643" type="curve" smooth="yes" name="hr00"/>
      <point x="49" y="614" smooth="yes"/>
      <point x="74" y="589" smooth="yes"/>
      <point x="103" y="589" type="curve" smooth="yes"/>
      <point x="132" y="589" smooth="yes"/>
      <point x="157" y="614" smooth="yes"/>
      <point x="157" y="643" type="curve" smooth="yes"/>
      <point x="157" y="672" smooth="yes"/>
      <point x="132" y="697" smooth="yes"/>
      <point x="103" y="697" type="curve" smooth="yes"/>
      <point x="74" y="697" smooth="yes"/>
      <point x="49" y="672" smooth="yes"/>
    </contour>
    <contour>
      <point x="256" y="643" type="curve" smooth="yes"/>
      <point x="256" y="614" smooth="yes"/>
      <point x="281" y="589" smooth="yes"/>
      <point x="310" y="589" type="curve" smooth="yes"/>
      <point x="339" y="589" smooth="yes"/>
      <point x="364" y="614" smooth="yes"/>
      <point x="364" y="643" type="curve" smooth="yes"/>
      <point x="364" y="672" smooth="yes"/>
      <point x="339" y="697" smooth="yes"/>
      <point x="310" y="697" type="curve" smooth="yes"/>
      <point x="281" y="697" smooth="yes"/>
      <point x="256" y="672" smooth="yes"/>
    </contour>
  </outline>
</glyph>
<glyph name="copyright" format="1">
  <advance width="815"/>
  <unicode hex="00A9"/>
  <outline>
    <contour>
      <point x="407" y="705" type="curve" name="hr00"/>
      <point x="210" y="705" smooth="yes"/>
      <point x="50" y="545" smooth="yes"/>
      <point x="50" y="347" type="curve" smooth="yes"/>
      <point x="50" y="150" smooth="yes"/>
      <point x="210" y="-10" smooth="yes"/>
      <point x="407" y="-10" type="curve" smooth="yes"/>
      <point x="606" y="-10" smooth="yes"/>
      <point x="765" y="150" smooth="yes"/>
      <point x="765" y="347" type="curve" smooth="yes"/>
      <point x="765" y="545" smooth="yes"/>
      <point x="606" y="705" smooth="yes"/>
    </contour>
    <contour>
      <point x="407" y="27" type="curve"/>
      <point x="231" y="27" smooth="yes"/>
      <point x="87" y="172" smooth="yes"/>
      <point x="87" y="347" type="curve" smooth="yes"/>
      <point x="87" y="525" smooth="yes"/>
      <point x="231" y="668" smooth="yes"/>
      <point x="407" y="668" type="curve" smooth="yes"/>
      <point x="584" y="668" smooth="yes"/>
      <point x="728" y="525" smooth="yes"/>
      <point x="728" y="347" type="curve" smooth="yes"/>
      <point x="728" y="172" smooth="yes"/>
      <point x="584" y="27" smooth="yes"/>
    </contour>
    <contour>
      <point x="568" y="201" type="line"/>
      <point x="517" y="163" smooth="yes"/>
      <point x="471" y="151" smooth="yes"/>
      <point x="428" y="151" type="curve" smooth="yes"/>
      <point x="338" y="151" smooth="yes"/>
      <point x="269" y="220" smooth="yes"/>
      <point x="269" y="347" type="curve" smooth="yes"/>
      <point x="269" y="455" smooth="yes"/>
      <point x="317" y="545" smooth="yes"/>
      <point x="414" y="545" type="curve" smooth="yes"/>
      <point x="485" y="545"/>
      <point x="543" y="511"/>
      <point x="557" y="428" type="curve"/>
      <point x="565" y="427" type="line"/>
      <point x="565" y="526" type="line"/>
      <point x="539" y="545" smooth="yes"/>
      <point x="479" y="565" smooth="yes"/>
      <point x="414" y="565" type="curve" smooth="yes"/>
      <point x="279" y="565" smooth="yes"/>
      <point x="201" y="467" smooth="yes"/>
      <point x="201" y="347" type="curve" smooth="yes"/>
      <point x="201" y="203" smooth="yes"/>
      <point x="306" y="127" smooth="yes"/>
      <point x="418" y="127" type="curve" smooth="yes"/>
      <point x="474" y="127"/>
      <point x="531" y="145"/>
      <point x="578" y="183" type="curve"/>
    </contour>
  </outline>
</glyph>
<glyph name="ordfeminine" format="1">
  <advance width="377"/>
  <unicode hex="00AA"/>
  <outline>
    <contour>
      <point x="180" y="709" type="curve" smooth="yes" name="hr00"/>
      <point x="123" y="709" smooth="yes"/>
      <point x="60" y="692" smooth="yes"/>
      <point x="60" y="655" type="curve" smooth="yes"/>
      <point x="60" y="636" smooth="yes"/>
      <point x="69" y="626" smooth="yes"/>
      <point x="88" y="626" type="curve" smooth="yes"/>
      <point x="128" y="626" smooth="yes"/>
      <point x="116" y="691" smooth="yes"/>
      <point x="168" y="691" type="curve" smooth="yes"/>
      <point x="219" y="691" smooth="yes"/>
      <point x="229" y="652" smooth="yes"/>
      <point x="229" y="597" type="curve" smooth="yes"/>
      <point x="229" y="576" type="line"/>
      <point x="94" y="573" smooth="yes"/>
      <point x="41" y="532" smooth="yes"/>
      <point x="41" y="470" type="curve" smooth="yes"/>
      <point x="41" y="418" smooth="yes"/>
      <point x="77" y="387" smooth="yes"/>
      <point x="133" y="387" type="curve" smooth="yes"/>
      <point x="177" y="387"/>
      <point x="207" y="414"/>
      <point x="224" y="447" type="curve"/>
      <point x="230" y="447" type="line"/>
      <point x="231" y="427"/>
      <point x="234" y="401"/>
      <point x="237" y="391" type="curve"/>
      <point x="300" y="391"/>
      <point x="345" y="425"/>
      <point x="345" y="425" type="curve"/>
      <point x="339" y="434" type="line"/>
      <point x="320" y="426" smooth="yes"/>
      <point x="313" y="425" smooth="yes"/>
      <point x="306" y="425" type="curve" smooth="yes"/>
      <point x="289" y="425" smooth="yes"/>
      <point x="287" y="450" smooth="yes"/>
      <point x="287" y="539" type="curve" smooth="yes"/>
      <point x="287" y="604" type="line" smooth="yes"/>
      <point x="287" y="676" smooth="yes"/>
      <point x="246" y="709" smooth="yes"/>
    </contour>
    <contour>
      <point x="143" y="412" type="curve" smooth="yes"/>
      <point x="115" y="412" smooth="yes"/>
      <point x="102" y="437" smooth="yes"/>
      <point x="102" y="467" type="curve" smooth="yes"/>
      <point x="102" y="514"/>
      <point x="134" y="556"/>
      <point x="229" y="558" type="curve"/>
      <point x="229" y="486" smooth="yes"/>
      <point x="204" y="412" smooth="yes"/>
    </contour>
    <contour>
      <point x="45" y="297" type="line"/>
      <point x="324" y="297" type="line"/>
      <point x="324" y="337" type="line"/>
      <point x="45" y="337" type="line"/>
    </contour>
  </outline>
</glyph>
<glyph name="guillemotleft" format="1">
  <advance width="459"/>
  <unicode hex="00AB"/>
  <outline>
    <contour>
      <point x="30" y="293" type="curve" name="hr00"/>
      <point x="30" y="269"/>
      <point x="62" y="258"/>
      <point x="181" y="103" type="curve"/>
      <point x="209" y="124" type="line"/>
      <point x="117" y="293" type="line"/>
      <point x="209" y="462" type="line"/>
      <point x="181" y="483" type="line"/>
      <point x="62" y="328" smooth="yes"/>
      <point x="30" y="317" smooth="yes"/>
    </contour>
    <contour>
      <point x="200" y="293" type="curve"/>
      <point x="200" y="269"/>
      <point x="232" y="258"/>
      <point x="351" y="103" type="curve"/>
      <point x="379" y="124" type="line"/>
      <point x="287" y="293" type="line"/>
      <point x="379" y="462" type="line"/>
      <point x="351" y="483" type="line"/>
      <point x="232" y="328" smooth="yes"/>
      <point x="200" y="317" smooth="yes"/>
    </contour>
  </outline>
</glyph>
<glyph name="logicalnot" format="1">
  <advance width="550"/>
  <unicode hex="00AC"/>
  <outline>
    <contour>
      <point x="98" y="295" type="line" name="hr00"/>
      <point x="404" y="295" type="line"/>
      <point x="404" y="142" type="line"/>
      <point x="452" y="142" type="line"/>
      <point x="452" y="343" type="line"/>
      <point x="98" y="343" type="line"/>
    </contour>
  </outline>
</glyph>
<glyph name="registered" format="1">
  <advance width="815"/>
  <unicode hex="00AE"/>
  <outline>
    <contour>
      <point x="408" y="705" type="curve" smooth="yes" name="hr00"/>
      <point x="211" y="705" smooth="yes"/>
      <point x="50" y="545" smooth="yes"/>
      <point x="50" y="347" type="curve" smooth="yes"/>
      <point x="50" y="150" smooth="yes"/>
      <point x="211" y="-10" smooth="yes"/>
      <point x="408" y="-10" type="curve" smooth="yes"/>
      <point x="606" y="-10" smooth="yes"/>
      <point x="765" y="150" smooth="yes"/>
      <point x="765" y="347" type="curve" smooth="yes"/>
      <point x="765" y="545" smooth="yes"/>
      <point x="606" y="705" smooth="yes"/>
    </contour>
    <contour>
      <point x="408" y="27" type="curve" smooth="yes"/>
      <point x="231" y="27" smooth="yes"/>
      <point x="87" y="172" smooth="yes"/>
      <point x="87" y="347" type="curve" smooth="yes"/>
      <point x="87" y="525" smooth="yes"/>
      <point x="231" y="668" smooth="yes"/>
      <point x="408" y="668" type="curve" smooth="yes"/>
      <point x="586" y="668" smooth="yes"/>
      <point x="730" y="525" smooth="yes"/>
      <point x="730" y="347" type="curve" smooth="yes"/>
      <point x="730" y="172" smooth="yes"/>
      <point x="586" y="27" smooth="yes"/>
    </contour>
    <contour>
      <point x="627" y="143" type="line"/>
      <point x="555" y="145"/>
      <point x="534" y="283"/>
      <point x="464" y="342" type="curve"/>
      <point x="512" y="355" smooth="yes"/>
      <point x="554" y="395" smooth="yes"/>
      <point x="554" y="452" type="curve" smooth="yes"/>
      <point x="554" y="543" smooth="yes"/>
      <point x="468" y="560" smooth="yes"/>
      <point x="397" y="560" type="curve" smooth="yes"/>
      <point x="252" y="560" type="line"/>
      <point x="253" y="550" type="line"/>
      <point x="306" y="550" smooth="yes"/>
      <point x="310" y="538" smooth="yes"/>
      <point x="310" y="432" type="curve" smooth="yes"/>
      <point x="310" y="264" type="line" smooth="yes"/>
      <point x="310" y="158"/>
      <point x="306" y="143"/>
      <point x="253" y="143" type="curve"/>
      <point x="252" y="133" type="line"/>
      <point x="427" y="133" type="line"/>
      <point x="426" y="143" type="line"/>
      <point x="373" y="143" smooth="yes"/>
      <point x="367" y="158" smooth="yes"/>
      <point x="367" y="264" type="curve" smooth="yes"/>
      <point x="367" y="337" type="line"/>
      <point x="470" y="320" smooth="yes"/>
      <point x="489" y="133" smooth="yes"/>
      <point x="559" y="133" type="curve" smooth="yes"/>
      <point x="629" y="133" type="line"/>
    </contour>
    <contour>
      <point x="367" y="543" type="line"/>
      <point x="397" y="543" type="line" smooth="yes"/>
      <point x="455" y="543" smooth="yes"/>
      <point x="490" y="513" smooth="yes"/>
      <point x="490" y="451" type="curve" smooth="yes"/>
      <point x="490" y="380" smooth="yes"/>
      <point x="445" y="353" smooth="yes"/>
      <point x="396" y="353" type="curve" smooth="yes"/>
      <point x="367" y="353" type="line"/>
    </contour>
  </outline>
</glyph>
<glyph name="macron" format="1">
  <advance width="411"/>
  <unicode hex="00AF"/>
  <outline>
    <contour>
      <point x="75" y="609" type="line" name="hr00"/>
      <point x="336" y="609" type="line"/>
      <point x="336" y="672" type="line"/>
      <point x="75" y="672" type="line"/>
    </contour>
  </outline>
</glyph>
<glyph name="degree" format="1">
  <advance width="399"/>
  <unicode hex="00B0"/>
  <outline>
    <contour>
      <point x="199" y="742" type="curve" smooth="yes" name="hr00"/>
      <point x="115" y="742" smooth="yes"/>
      <point x="60" y="679" smooth="yes"/>
      <point x="60" y="602" type="curve" smooth="yes"/>
      <point x="60" y="526" smooth="yes"/>
      <point x="115" y="463" smooth="yes"/>
      <point x="199" y="463" type="curve" smooth="yes"/>
      <point x="285" y="463" smooth="yes"/>
      <point x="339" y="526" smooth="yes"/>
      <point x="339" y="602" type="curve" smooth="yes"/>
      <point x="339" y="679" smooth="yes"/>
      <point x="285" y="742" smooth="yes"/>
    </contour>
    <contour>
      <point x="199" y="702" type="curve" smooth="yes"/>
      <point x="260" y="702" smooth="yes"/>
      <point x="299" y="657" smooth="yes"/>
      <point x="299" y="602" type="curve" smooth="yes"/>
      <point x="299" y="548" smooth="yes"/>
      <point x="260" y="503" smooth="yes"/>
      <point x="199" y="503" type="curve" smooth="yes"/>
      <point x="139" y="503" smooth="yes"/>
      <point x="100" y="548" smooth="yes"/>
      <point x="100" y="602" type="curve" smooth="yes"/>
      <point x="100" y="657" smooth="yes"/>
      <point x="139" y="702" smooth="yes"/>
    </contour>
  </outline>
</glyph>
<glyph name="plusminus" format="1">
  <advance width="550"/>
  <unicode hex="00B1"/>
  <outline>
    <contour>
      <point x="98" y="295" type="line" name="hr00"/>
      <point x="251" y="295" type="line"/>
      <point x="251" y="142" type="line"/>
      <point x="299" y="142" type="line"/>
      <point x="299" y="295" type="line"/>
      <point x="452" y="295" type="line"/>
      <point x="452" y="343" type="line"/>
      <point x="299" y="343" type="line"/>
      <point x="299" y="496" type="line"/>
      <point x="251" y="496" type="line"/>
      <point x="251" y="343" type="line"/>
      <point x="98" y="343" type="line"/>
    </contour>
    <contour>
      <point x="98" y="0" type="line"/>
      <point x="452" y="0" type="line"/>
      <point x="452" y="48" type="line"/>
      <point x="98" y="48" type="line"/>
    </contour>
  </outline>
</glyph>
<glyph name="twosuperior" format="1">
  <advance width="390"/>
  <unicode hex="00B2"/>
  <outline>
    <contour>
      <point x="311" y="610" type="curve" smooth="yes"/>
      <point x="311" y="684" smooth="yes"/>
      <point x="250" y="706" smooth="yes"/>
      <point x="193" y="706" type="curve" smooth="yes"/>
      <point x="126" y="706" smooth="yes"/>
      <point x="74" y="681" smooth="yes"/>
      <point x="74" y="646" type="curve" smooth="yes"/>
      <point x="74" y="632" smooth="yes"/>
      <point x="86" y="620" smooth="yes"/>
      <point x="104" y="620" type="curve" smooth="yes"/>
      <point x="144" y="620" smooth="yes"/>
      <point x="141" y="683" smooth="yes"/>
      <point x="193" y="683" type="curve" smooth="yes" name="hr01"/>
      <point x="233" y="683" smooth="yes"/>
      <point x="251" y="653" smooth="yes"/>
      <point x="251" y="613" type="curve" smooth="yes"/>
      <point x="251" y="542"/>
      <point x="176" y="433"/>
      <point x="67" y="324" type="curve"/>
      <point x="67" y="311" type="line"/>
      <point x="321" y="311" type="line"/>
      <point x="321" y="404" type="line"/>
      <point x="298" y="404" type="line"/>
      <point x="298" y="355"/>
      <point x="229" y="344"/>
      <point x="126" y="343" type="curve"/>
      <point x="230" y="446" smooth="yes"/>
      <point x="311" y="532" smooth="yes"/>
    </contour>
  </outline>
</glyph>
<glyph name="threesuperior" format="1">
  <advance width="390"/>
  <unicode hex="00B3"/>
  <outline>
    <contour>
      <point x="301" y="619" type="curve" smooth="yes"/>
      <point x="301" y="569"/>
      <point x="258" y="538"/>
      <point x="216" y="524" type="curve"/>
      <point x="290" y="515" smooth="yes"/>
      <point x="318" y="466" smooth="yes"/>
      <point x="318" y="427" type="curve" smooth="yes"/>
      <point x="318" y="355" smooth="yes"/>
      <point x="248" y="305" smooth="yes"/>
      <point x="177" y="305" type="curve" smooth="yes"/>
      <point x="138" y="305"/>
      <point x="90" y="318"/>
      <point x="60" y="356" type="curve" name="hr01"/>
      <point x="81" y="374" type="line"/>
      <point x="106" y="346" smooth="yes"/>
      <point x="143" y="335" smooth="yes"/>
      <point x="169" y="335" type="curve" smooth="yes"/>
      <point x="216" y="335" smooth="yes"/>
      <point x="258" y="366" smooth="yes"/>
      <point x="258" y="419" type="curve" smooth="yes"/>
      <point x="258" y="500"/>
      <point x="169" y="509"/>
      <point x="116" y="509" type="curve" name="hr02"/>
      <point x="116" y="528" type="line"/>
      <point x="168" y="528" smooth="yes"/>
      <point x="241" y="554" smooth="yes"/>
      <point x="241" y="619" type="curve" smooth="yes"/>
      <point x="241" y="656" smooth="yes"/>
      <point x="225" y="683" smooth="yes"/>
      <point x="189" y="683" type="curve" smooth="yes"/>
      <point x="138" y="683" smooth="yes"/>
      <point x="139" y="620" smooth="yes"/>
      <point x="100" y="620" type="curve" smooth="yes"/>
      <point x="82" y="620" smooth="yes"/>
      <point x="69" y="632" smooth="yes"/>
      <point x="69" y="646" type="curve" smooth="yes"/>
      <point x="69" y="681" smooth="yes"/>
      <point x="123" y="706" smooth="yes"/>
      <point x="189" y="706" type="curve" smooth="yes"/>
      <point x="246" y="706" smooth="yes"/>
      <point x="301" y="687" smooth="yes"/>
    </contour>
  </outline>
</glyph>
<glyph name="acute" format="1">
  <advance width="321"/>
  <unicode hex="00B4"/>
  <outline>
    <contour>
      <point x="227" y="729" type="curve" smooth="yes" name="hr00"/>
      <point x="212" y="729" smooth="yes"/>
      <point x="201" y="724" smooth="yes"/>
      <point x="184" y="709" type="curve" smooth="yes"/>
      <point x="50" y="587" type="line"/>
      <point x="65" y="564" type="line"/>
      <point x="227" y="647" type="line" smooth="yes"/>
      <point x="257" y="663" smooth="yes"/>
      <point x="262" y="679" smooth="yes"/>
      <point x="262" y="694" type="curve" smooth="yes"/>
      <point x="262" y="713" smooth="yes"/>
      <point x="248" y="729" smooth="yes"/>
    </contour>
  </outline>
</glyph>
<glyph name="mu" format="1">
  <advance width="619"/>
  <unicode hex="00B5"/>
  <outline>
    <contour>
      <point x="433" y="265" type="curve" smooth="yes" name="hr00"/>
      <point x="433" y="174" smooth="yes"/>
      <point x="397" y="21" smooth="yes"/>
      <point x="286" y="21" type="curve" smooth="yes"/>
      <point x="213" y="21" smooth="yes"/>
      <point x="191" y="59" smooth="yes"/>
      <point x="191" y="130" type="curve" smooth="yes"/>
      <point x="191" y="483" type="line"/>
      <point x="77" y="479"/>
      <point x="50" y="472"/>
      <point x="50" y="472" type="curve"/>
      <point x="52" y="461" type="line"/>
      <point x="114" y="461" smooth="yes"/>
      <point x="121" y="442" smooth="yes"/>
      <point x="121" y="247" type="curve" smooth="yes"/>
      <point x="121" y="-145" type="line" smooth="yes"/>
      <point x="121" y="-210"/>
      <point x="125" y="-244"/>
      <point x="131" y="-279" type="curve"/>
      <point x="161" y="-279"/>
      <point x="189" y="-273"/>
      <point x="212" y="-265" type="curve"/>
      <point x="194" y="-237" smooth="yes"/>
      <point x="191" y="-161" smooth="yes"/>
      <point x="191" y="-52" type="curve" smooth="yes"/>
      <point x="191" y="17" type="line"/>
      <point x="213" y="-1" smooth="yes"/>
      <point x="241" y="-10" smooth="yes"/>
      <point x="274" y="-10" type="curve" smooth="yes"/>
      <point x="372" y="-10"/>
      <point x="412" y="65"/>
      <point x="433" y="129" type="curve"/>
      <point x="433" y="64"/>
      <point x="437" y="30"/>
      <point x="443" y="-5" type="curve"/>
      <point x="473" y="-5"/>
      <point x="501" y="1"/>
      <point x="524" y="9" type="curve"/>
      <point x="506" y="37" smooth="yes"/>
      <point x="503" y="113" smooth="yes"/>
      <point x="503" y="222" type="curve" smooth="yes"/>
      <point x="503" y="483" type="line"/>
      <point x="389" y="479"/>
      <point x="362" y="472"/>
      <point x="362" y="472" type="curve"/>
      <point x="364" y="461" type="line"/>
      <point x="426" y="461" smooth="yes"/>
      <point x="433" y="442" smooth="yes"/>
    </contour>
  </outline>
</glyph>
<glyph name="paragraph" format="1">
  <advance width="633"/>
  <unicode hex="00B6"/>
  <outline>
    <contour>
      <point x="576" y="590" type="line" name="hr00"/>
      <point x="278" y="590" type="line" smooth="yes"/>
      <point x="163" y="590" smooth="yes"/>
      <point x="69" y="496" smooth="yes"/>
      <point x="69" y="381" type="curve" smooth="yes"/>
      <point x="69" y="266"/>
      <point x="163" y="172"/>
      <point x="278" y="172" type="curve"/>
      <point x="278" y="-194" type="line"/>
      <point x="329" y="-194" type="line"/>
      <point x="329" y="545" type="line"/>
      <point x="438" y="545" type="line"/>
      <point x="438" y="-194" type="line"/>
      <point x="489" y="-194" type="line"/>
      <point x="489" y="545" type="line"/>
      <point x="576" y="545" type="line"/>
    </contour>
  </outline>
</glyph>
<glyph name="periodcentered" format="1">
  <advance width="173"/>
  <unicode hex="00B7"/>
  <outline>
    <contour>
      <point x="86" y="346" type="curve" smooth="yes" name="hr00"/>
      <point x="58" y="346" smooth="yes"/>
      <point x="34" y="323" smooth="yes"/>
      <point x="34" y="292" type="curve" smooth="yes"/>
      <point x="34" y="263" smooth="yes"/>
      <point x="58" y="240" smooth="yes"/>
      <point x="86" y="240" type="curve" smooth="yes"/>
      <point x="116" y="240" smooth="yes"/>
      <point x="139" y="263" smooth="yes"/>
      <point x="139" y="292" type="curve" smooth="yes"/>
      <point x="139" y="323" smooth="yes"/>
      <point x="116" y="346" smooth="yes"/>
    </contour>
  </outline>
</glyph>
<glyph name="cedilla" format="1">
  <advance width="450"/>
  <unicode hex="00B8"/>
  <outline>
    <contour>
      <point x="190" y="-83" type="line" name="hr00"/>
      <point x="265" y="-92" smooth="yes"/>
      <point x="285" y="-127" smooth="yes"/>
      <point x="285" y="-161" type="curve" smooth="yes"/>
      <point x="285" y="-193" smooth="yes"/>
      <point x="262" y="-224" smooth="yes"/>
      <point x="216" y="-224" type="curve" smooth="yes"/>
      <point x="198" y="-224"/>
      <point x="174" y="-216"/>
      <point x="157" y="-199" type="curve"/>
      <point x="139" y="-219" type="line"/>
      <point x="160" y="-244" smooth="yes"/>
      <point x="194" y="-258" smooth="yes"/>
      <point x="229" y="-258" type="curve" smooth="yes"/>
      <point x="286" y="-258" smooth="yes"/>
      <point x="345" y="-223" smooth="yes"/>
      <point x="345" y="-161" type="curve" smooth="yes"/>
      <point x="345" y="-91"/>
      <point x="291" y="-65"/>
      <point x="229" y="-65" type="curve"/>
      <point x="252" y="0" type="line"/>
      <point x="220" y="0" type="line"/>
    </contour>
  </outline>
</glyph>
<glyph name="onesuperior" format="1">
  <advance width="390"/>
  <unicode hex="00B9"/>
  <outline>
    <contour>
      <point x="222" y="708" type="line" name="hr00"/>
      <point x="187" y="687"/>
      <point x="142" y="666"/>
      <point x="79" y="638" type="curve"/>
      <point x="87" y="617" type="line"/>
      <point x="120" y="631" smooth="yes"/>
      <point x="146" y="642" smooth="yes"/>
      <point x="160" y="642" type="curve" smooth="yes"/>
      <point x="171" y="642" smooth="yes"/>
      <point x="178" y="633" smooth="yes"/>
      <point x="178" y="606" type="curve" smooth="yes"/>
      <point x="178" y="449" type="line" smooth="yes"/>
      <point x="178" y="338"/>
      <point x="174" y="326"/>
      <point x="108" y="326" type="curve"/>
      <point x="107" y="311" type="line"/>
      <point x="307" y="311" type="line"/>
      <point x="306" y="326" type="line"/>
      <point x="241" y="326" smooth="yes"/>
      <point x="236" y="338" smooth="yes"/>
      <point x="236" y="449" type="curve" smooth="yes"/>
      <point x="236" y="702" type="line"/>
    </contour>
  </outline>
</glyph>
<glyph name="ordmasculine" format="1">
  <advance width="406"/>
  <unicode hex="00BA"/>
  <outline>
    <contour>
      <point x="199" y="709" type="curve" smooth="yes"/>
      <point x="105" y="709" smooth="yes"/>
      <point x="51" y="636" smooth="yes"/>
      <point x="51" y="548" type="curve" smooth="yes"/>
      <point x="51" y="460" smooth="yes"/>
      <point x="109" y="387" smooth="yes"/>
      <point x="203" y="387" type="curve" smooth="yes"/>
      <point x="298" y="387" smooth="yes"/>
      <point x="354" y="460" smooth="yes"/>
      <point x="354" y="548" type="curve" smooth="yes"/>
      <point x="354" y="636" smooth="yes"/>
      <point x="295" y="709" smooth="yes"/>
    </contour>
    <contour>
      <point x="203" y="404" type="curve" smooth="yes"/>
      <point x="143" y="404" smooth="yes"/>
      <point x="111" y="468" smooth="yes"/>
      <point x="111" y="548" type="curve" smooth="yes"/>
      <point x="111" y="628" smooth="yes"/>
      <point x="139" y="692" smooth="yes"/>
      <point x="200" y="692" type="curve" smooth="yes"/>
      <point x="262" y="692" smooth="yes"/>
      <point x="293" y="628" smooth="yes"/>
      <point x="293" y="548" type="curve" smooth="yes"/>
      <point x="293" y="468" smooth="yes"/>
      <point x="265" y="404" smooth="yes"/>
    </contour>
    <contour>
      <point x="64" y="297" type="line"/>
      <point x="343" y="297" type="line"/>
      <point x="343" y="337" type="line" name="hr01"/>
      <point x="64" y="337" type="line"/>
    </contour>
  </outline>
</glyph>
<glyph name="guillemotright" format="1">
  <advance width="459"/>
  <unicode hex="00BB"/>
  <outline>
    <contour>
      <point x="429" y="293" type="curve" smooth="yes" name="hr00"/>
      <point x="429" y="317"/>
      <point x="397" y="328"/>
      <point x="278" y="483" type="curve"/>
      <point x="250" y="462" type="line"/>
      <point x="342" y="293" type="line"/>
      <point x="250" y="124" type="line"/>
      <point x="278" y="103" type="line"/>
      <point x="397" y="258" smooth="yes"/>
      <point x="429" y="269" smooth="yes"/>
    </contour>
    <contour>
      <point x="259" y="293" type="curve" smooth="yes"/>
      <point x="259" y="317"/>
      <point x="227" y="328"/>
      <point x="108" y="483" type="curve"/>
      <point x="80" y="462" type="line"/>
      <point x="172" y="293" type="line"/>
      <point x="80" y="124" type="line"/>
      <point x="108" y="103" type="line"/>
      <point x="227" y="258" smooth="yes"/>
      <point x="259" y="269" smooth="yes"/>
    </contour>
  </outline>
</glyph>
<glyph name="onequarter" format="1">
  <advance width="877"/>
  <unicode hex="00BC"/>
  <outline>
    <contour>
      <point x="256" y="-40" type="line"/>
      <point x="307" y="-40" type="line"/>
      <point x="609" y="683" type="line"/>
      <point x="558" y="683" type="line"/>
    </contour>
    <contour>
      <point x="211" y="653" type="line"/>
      <point x="176" y="632"/>
      <point x="131" y="611"/>
      <point x="68" y="583" type="curve"/>
      <point x="76" y="562" type="line"/>
      <point x="109" y="576" smooth="yes"/>
      <point x="135" y="587" smooth="yes"/>
      <point x="149" y="587" type="curve" smooth="yes"/>
      <point x="160" y="587" smooth="yes"/>
      <point x="167" y="578" smooth="yes"/>
      <point x="167" y="551" type="curve" smooth="yes"/>
      <point x="167" y="394" type="line" smooth="yes"/>
      <point x="167" y="283"/>
      <point x="163" y="271"/>
      <point x="97" y="271" type="curve"/>
      <point x="96" y="256" type="line"/>
      <point x="296" y="256" type="line"/>
      <point x="295" y="271" type="line"/>
      <point x="230" y="271" smooth="yes"/>
      <point x="225" y="283" smooth="yes"/>
      <point x="225" y="394" type="curve" smooth="yes"/>
      <point x="225" y="647" type="line"/>
    </contour>
    <contour>
      <point x="667" y="303" type="line"/>
      <point x="667" y="109" type="line"/>
      <point x="531" y="109" type="line"/>
    </contour>
    <contour>
      <point x="596" y="0" type="line"/>
      <point x="795" y="0" type="line"/>
      <point x="794" y="15" type="line"/>
      <point x="741" y="15"/>
      <point x="727" y="22"/>
      <point x="725" y="83" type="curve" name="hr01"/>
      <point x="797" y="83" type="line"/>
      <point x="797" y="109" type="line"/>
      <point x="724" y="109" type="line"/>
      <point x="724" y="392" type="line"/>
      <point x="694" y="396" type="line"/>
      <point x="491" y="107" type="line"/>
      <point x="491" y="83" type="line"/>
      <point x="666" y="83" type="line" name="hr02"/>
      <point x="663" y="22"/>
      <point x="651" y="15"/>
      <point x="597" y="15" type="curve"/>
    </contour>
  </outline>
</glyph>
<glyph name="onehalf" format="1">
  <advance width="877"/>
  <unicode hex="00BD"/>
  <outline>
    <contour>
      <point x="236" y="-40" type="line" name="hr00"/>
      <point x="287" y="-40" type="line"/>
      <point x="589" y="683" type="line"/>
      <point x="538" y="683" type="line"/>
    </contour>
    <contour>
      <point x="211" y="653" type="line"/>
      <point x="176" y="632"/>
      <point x="131" y="611"/>
      <point x="68" y="583" type="curve"/>
      <point x="76" y="562" type="line"/>
      <point x="109" y="576" smooth="yes"/>
      <point x="135" y="587" smooth="yes"/>
      <point x="149" y="587" type="curve" smooth="yes"/>
      <point x="160" y="587" smooth="yes"/>
      <point x="167" y="578" smooth="yes"/>
      <point x="167" y="551" type="curve" smooth="yes"/>
      <point x="167" y="394" type="line" smooth="yes"/>
      <point x="167" y="283"/>
      <point x="163" y="271"/>
      <point x="97" y="271" type="curve"/>
      <point x="96" y="256" type="line"/>
      <point x="296" y="256" type="line"/>
      <point x="295" y="271" type="line"/>
      <point x="230" y="271" smooth="yes"/>
      <point x="225" y="283" smooth="yes"/>
      <point x="225" y="394" type="curve" smooth="yes"/>
      <point x="225" y="647" type="line"/>
    </contour>
    <contour>
      <point x="759" y="299" type="curve" smooth="yes"/>
      <point x="759" y="373" smooth="yes"/>
      <point x="698" y="395" smooth="yes"/>
      <point x="641" y="395" type="curve" smooth="yes"/>
      <point x="574" y="395" smooth="yes"/>
      <point x="522" y="370" smooth="yes"/>
      <point x="522" y="335" type="curve" smooth="yes"/>
      <point x="522" y="321" smooth="yes"/>
      <point x="534" y="309" smooth="yes"/>
      <point x="552" y="309" type="curve" smooth="yes"/>
      <point x="592" y="309" smooth="yes"/>
      <point x="589" y="372" smooth="yes"/>
      <point x="641" y="372" type="curve" smooth="yes"/>
      <point x="681" y="372" smooth="yes"/>
      <point x="699" y="342" smooth="yes"/>
      <point x="699" y="302" type="curve" smooth="yes"/>
      <point x="699" y="231"/>
      <point x="624" y="122"/>
      <point x="515" y="13" type="curve"/>
      <point x="515" y="0" type="line"/>
      <point x="769" y="0" type="line"/>
      <point x="769" y="93" type="line"/>
      <point x="746" y="93" type="line"/>
      <point x="746" y="44"/>
      <point x="677" y="33"/>
      <point x="574" y="32" type="curve"/>
      <point x="678" y="135" smooth="yes"/>
      <point x="759" y="221" smooth="yes"/>
    </contour>
  </outline>
</glyph>
<glyph name="threequarters" format="1">
  <advance width="877"/>
  <unicode hex="00BE"/>
  <outline>
    <contour>
      <point x="266" y="-40" type="line"/>
      <point x="317" y="-40" type="line"/>
      <point x="619" y="683" type="line"/>
      <point x="568" y="683" type="line"/>
    </contour>
    <contour>
      <point x="300" y="564" type="curve" smooth="yes"/>
      <point x="300" y="514"/>
      <point x="257" y="483"/>
      <point x="215" y="469" type="curve"/>
      <point x="289" y="460" smooth="yes"/>
      <point x="317" y="411" smooth="yes"/>
      <point x="317" y="372" type="curve" smooth="yes"/>
      <point x="317" y="300" smooth="yes"/>
      <point x="247" y="250" smooth="yes"/>
      <point x="176" y="250" type="curve" smooth="yes"/>
      <point x="137" y="250"/>
      <point x="89" y="263"/>
      <point x="59" y="301" type="curve"/>
      <point x="80" y="319" type="line"/>
      <point x="105" y="291" smooth="yes"/>
      <point x="142" y="280" smooth="yes"/>
      <point x="168" y="280" type="curve" smooth="yes"/>
      <point x="215" y="280" smooth="yes"/>
      <point x="257" y="311" smooth="yes"/>
      <point x="257" y="364" type="curve" smooth="yes"/>
      <point x="257" y="445"/>
      <point x="168" y="454"/>
      <point x="115" y="454" type="curve"/>
      <point x="115" y="473" type="line"/>
      <point x="167" y="473" smooth="yes"/>
      <point x="240" y="499" smooth="yes"/>
      <point x="240" y="564" type="curve" smooth="yes" name="hr01"/>
      <point x="240" y="601" smooth="yes"/>
      <point x="224" y="628" smooth="yes"/>
      <point x="188" y="628" type="curve" smooth="yes"/>
      <point x="137" y="628" smooth="yes"/>
      <point x="138" y="565" smooth="yes"/>
      <point x="99" y="565" type="curve" smooth="yes"/>
      <point x="81" y="565" smooth="yes"/>
      <point x="68" y="577" smooth="yes"/>
      <point x="68" y="591" type="curve" smooth="yes"/>
      <point x="68" y="626" smooth="yes"/>
      <point x="122" y="651" smooth="yes"/>
      <point x="188" y="651" type="curve" smooth="yes"/>
      <point x="245" y="651" smooth="yes"/>
      <point x="300" y="632" smooth="yes"/>
    </contour>
    <contour>
      <point x="667" y="303" type="line"/>
      <point x="667" y="109" type="line"/>
      <point x="531" y="109" type="line"/>
    </contour>
    <contour>
      <point x="596" y="0" type="line"/>
      <point x="795" y="0" type="line"/>
      <point x="794" y="15" type="line" name="hr02"/>
      <point x="741" y="15"/>
      <point x="727" y="22"/>
      <point x="725" y="83" type="curve"/>
      <point x="797" y="83" type="line"/>
      <point x="797" y="109" type="line" name="hr03"/>
      <point x="724" y="109" type="line"/>
      <point x="724" y="392" type="line"/>
      <point x="694" y="396" type="line"/>
      <point x="491" y="107" type="line"/>
      <point x="491" y="83" type="line" name="hr04"/>
      <point x="666" y="83" type="line" name="hr06"/>
      <point x="663" y="22"/>
      <point x="651" y="15"/>
      <point x="597" y="15" type="curve" name="hr05"/>
    </contour>
  </outline>
</glyph>
<glyph name="questiondown" format="1">
  <advance width="363"/>
  <unicode hex="00BF"/>
  <outline>
    <contour>
      <point x="164" y="-236" type="curve" smooth="yes" name="hr00"/>
      <point x="262" y="-236" smooth="yes"/>
      <point x="343" y="-174" smooth="yes"/>
      <point x="343" y="-124" type="curve" smooth="yes"/>
      <point x="343" y="-102" smooth="yes"/>
      <point x="329" y="-88" smooth="yes"/>
      <point x="313" y="-88" type="curve" smooth="yes"/>
      <point x="250" y="-88" smooth="yes"/>
      <point x="280" y="-210" smooth="yes"/>
      <point x="165" y="-210" type="curve" smooth="yes"/>
      <point x="115" y="-210" smooth="yes"/>
      <point x="85" y="-184" smooth="yes"/>
      <point x="85" y="-121" type="curve" smooth="yes"/>
      <point x="85" y="1" smooth="yes"/>
      <point x="275" y="74" smooth="yes"/>
      <point x="275" y="193" type="curve" smooth="yes"/>
      <point x="275" y="232"/>
      <point x="255" y="273"/>
      <point x="203" y="318" type="curve"/>
      <point x="185" y="299" type="line"/>
      <point x="216" y="274" smooth="yes"/>
      <point x="228" y="250" smooth="yes"/>
      <point x="228" y="225" type="curve" smooth="yes"/>
      <point x="228" y="136" smooth="yes"/>
      <point x="16" y="14" smooth="yes"/>
      <point x="16" y="-109" type="curve" smooth="yes"/>
      <point x="16" y="-196" smooth="yes"/>
      <point x="78" y="-236" smooth="yes"/>
    </contour>
    <contour>
      <point x="202" y="377" type="curve" smooth="yes"/>
      <point x="230" y="377" smooth="yes"/>
      <point x="254" y="400" smooth="yes"/>
      <point x="254" y="431" type="curve" smooth="yes"/>
      <point x="254" y="460" smooth="yes"/>
      <point x="230" y="483" smooth="yes"/>
      <point x="202" y="483" type="curve" smooth="yes"/>
      <point x="172" y="483" smooth="yes"/>
      <point x="149" y="460" smooth="yes"/>
      <point x="149" y="431" type="curve" smooth="yes"/>
      <point x="149" y="400" smooth="yes"/>
      <point x="172" y="377" smooth="yes"/>
    </contour>
  </outline>
</glyph>
<glyph name="Aacute" format="1">
  <advance width="655"/>
  <unicode hex="00C1"/>
  <outline>
    <contour>
      <point x="512" y="44" type="curve" smooth="yes" name="hr00"/>
      <point x="512" y="16"/>
      <point x="489" y="12"/>
      <point x="443" y="12" type="curve"/>
      <point x="441" y="0" type="line"/>
      <point x="691" y="0" type="line"/>
      <point x="689" y="12" type="line"/>
      <point x="618" y="12" smooth="yes"/>
      <point x="607" y="27" smooth="yes"/>
      <point x="536" y="221" type="curve" smooth="yes"/>
      <point x="359" y="700" type="line"/>
      <point x="194" y="700" type="line"/>
      <point x="196" y="689" type="line"/>
      <point x="249" y="689" smooth="yes"/>
      <point x="264" y="680" smooth="yes"/>
      <point x="264" y="649" type="curve" smooth="yes"/>
      <point x="264" y="623" smooth="yes"/>
      <point x="256" y="591" smooth="yes"/>
      <point x="217" y="478" type="curve" smooth="yes"/>
      <point x="128" y="221" type="line" smooth="yes"/>
      <point x="61" y="27"/>
      <point x="36" y="12"/>
      <point x="-34" y="12" type="curve"/>
      <point x="-36" y="0" type="line"/>
      <point x="189" y="0" type="line"/>
      <point x="187" y="12" type="line"/>
      <point x="136" y="12" smooth="yes"/>
      <point x="111" y="15" smooth="yes"/>
      <point x="111" y="54" type="curve" smooth="yes"/>
      <point x="111" y="85"/>
      <point x="126" y="136"/>
      <point x="154" y="219" type="curve"/>
      <point x="459" y="219" type="line"/>
      <point x="493" y="126" smooth="yes"/>
      <point x="512" y="74" smooth="yes"/>
    </contour>
    <contour>
      <point x="303" y="646" type="line"/>
      <point x="451" y="243" type="line"/>
      <point x="162" y="243" type="line"/>
    </contour>
    <contour>
      <point x="383" y="869" type="curve" smooth="yes"/>
      <point x="372" y="869" smooth="yes"/>
      <point x="362" y="865" smooth="yes"/>
      <point x="348" y="856" type="curve" smooth="yes"/>
      <point x="185" y="757" type="line"/>
      <point x="196" y="732" type="line"/>
      <point x="379" y="788" type="line" smooth="yes"/>
      <point x="415" y="799" smooth="yes"/>
      <point x="422" y="818" smooth="yes"/>
      <point x="422" y="834" type="curve" smooth="yes"/>
      <point x="422" y="857" smooth="yes"/>
      <point x="403" y="869" smooth="yes"/>
    </contour>
  </outline>
</glyph>
<glyph name="Acircumflex" format="1">
  <advance width="655"/>
  <unicode hex="00C2"/>
  <outline>
    <contour>
      <point x="512" y="44" type="curve" smooth="yes" name="hr00"/>
      <point x="512" y="16"/>
      <point x="489" y="12"/>
      <point x="443" y="12" type="curve"/>
      <point x="441" y="0" type="line"/>
      <point x="691" y="0" type="line"/>
      <point x="689" y="12" type="line"/>
      <point x="618" y="12" smooth="yes"/>
      <point x="607" y="27" smooth="yes"/>
      <point x="536" y="221" type="curve" smooth="yes"/>
      <point x="359" y="700" type="line"/>
      <point x="194" y="700" type="line"/>
      <point x="196" y="689" type="line"/>
      <point x="249" y="689" smooth="yes"/>
      <point x="264" y="680" smooth="yes"/>
      <point x="264" y="649" type="curve" smooth="yes"/>
      <point x="264" y="623" smooth="yes"/>
      <point x="256" y="591" smooth="yes"/>
      <point x="217" y="478" type="curve" smooth="yes"/>
      <point x="128" y="221" type="line" smooth="yes"/>
      <point x="61" y="27"/>
      <point x="36" y="12"/>
      <point x="-34" y="12" type="curve"/>
      <point x="-36" y="0" type="line"/>
      <point x="189" y="0" type="line"/>
      <point x="187" y="12" type="line"/>
      <point x="136" y="12" smooth="yes"/>
      <point x="111" y="15" smooth="yes"/>
      <point x="111" y="54" type="curve" smooth="yes"/>
      <point x="111" y="85"/>
      <point x="126" y="136"/>
      <point x="154" y="219" type="curve"/>
      <point x="459" y="219" type="line"/>
      <point x="493" y="126" smooth="yes"/>
      <point x="512" y="74" smooth="yes"/>
    </contour>
    <contour>
      <point x="303" y="646" type="line"/>
      <point x="451" y="243" type="line"/>
      <point x="162" y="243" type="line"/>
    </contour>
    <contour>
      <point x="209" y="732" type="line"/>
      <point x="189" y="754" type="line"/>
      <point x="269" y="845" type="line" smooth="yes"/>
      <point x="296" y="875" smooth="yes"/>
      <point x="307" y="883" smooth="yes"/>
      <point x="327" y="883" type="curve" smooth="yes"/>
      <point x="347" y="883" smooth="yes"/>
      <point x="358" y="875" smooth="yes"/>
      <point x="385" y="845" type="curve" smooth="yes"/>
      <point x="465" y="754" type="line"/>
      <point x="445" y="732" type="line"/>
      <point x="327" y="809" type="line"/>
    </contour>
  </outline>
</glyph>
<glyph name="Atilde" format="1">
  <advance width="655"/>
  <unicode hex="00C3"/>
  <outline>
    <contour>
      <point x="512" y="44" type="curve" smooth="yes"/>
      <point x="512" y="16"/>
      <point x="489" y="12"/>
      <point x="443" y="12" type="curve"/>
      <point x="441" y="0" type="line" name="hr01"/>
      <point x="691" y="0" type="line"/>
      <point x="689" y="12" type="line"/>
      <point x="618" y="12" smooth="yes"/>
      <point x="607" y="27" smooth="yes"/>
      <point x="536" y="221" type="curve" smooth="yes"/>
      <point x="359" y="700" type="line" name="hr02"/>
      <point x="194" y="700" type="line"/>
      <point x="196" y="689" type="line"/>
      <point x="249" y="689" smooth="yes"/>
      <point x="264" y="680" smooth="yes"/>
      <point x="264" y="649" type="curve" smooth="yes"/>
      <point x="264" y="623" smooth="yes"/>
      <point x="256" y="591" smooth="yes"/>
      <point x="217" y="478" type="curve" smooth="yes"/>
      <point x="128" y="221" type="line" smooth="yes"/>
      <point x="61" y="27"/>
      <point x="36" y="12"/>
      <point x="-34" y="12" type="curve"/>
      <point x="-36" y="0" type="line"/>
      <point x="189" y="0" type="line"/>
      <point x="187" y="12" type="line"/>
      <point x="136" y="12" smooth="yes"/>
      <point x="111" y="15" smooth="yes"/>
      <point x="111" y="54" type="curve" smooth="yes"/>
      <point x="111" y="85"/>
      <point x="126" y="136"/>
      <point x="154" y="219" type="curve"/>
      <point x="459" y="219" type="line"/>
      <point x="493" y="126" smooth="yes"/>
      <point x="512" y="74" smooth="yes"/>
    </contour>
    <contour>
      <point x="303" y="646" type="line"/>
      <point x="451" y="243" type="line"/>
      <point x="162" y="243" type="line"/>
    </contour>
    <contour>
      <point x="478" y="849" type="line"/>
      <point x="462" y="775" smooth="yes"/>
      <point x="433" y="746" smooth="yes"/>
      <point x="396" y="746" type="curve" smooth="yes"/>
      <point x="341" y="746" smooth="yes"/>
      <point x="306" y="788" smooth="yes"/>
      <point x="258" y="788" type="curve" smooth="yes"/>
      <point x="234" y="788"/>
      <point x="214" y="776"/>
      <point x="201" y="743" type="curve"/>
      <point x="177" y="752" type="line"/>
      <point x="193" y="826" smooth="yes"/>
      <point x="222" y="855" smooth="yes"/>
      <point x="259" y="855" type="curve" smooth="yes"/>
      <point x="314" y="855" smooth="yes"/>
      <point x="349" y="813" smooth="yes"/>
      <point x="397" y="813" type="curve" smooth="yes"/>
      <point x="421" y="813"/>
      <point x="441" y="825"/>
      <point x="454" y="858" type="curve"/>
    </contour>
  </outline>
</glyph>
<glyph name="Aring" format="1">
  <advance width="655"/>
  <unicode hex="00C5"/>
  <outline>
    <contour>
      <point x="303" y="892" type="curve" smooth="yes" name="hr00"/>
      <point x="243" y="892" smooth="yes"/>
      <point x="204" y="847" smooth="yes"/>
      <point x="204" y="793" type="curve" smooth="yes"/>
      <point x="204" y="750"/>
      <point x="228" y="714"/>
      <point x="267" y="700" type="curve"/>
      <point x="194" y="700" type="line"/>
      <point x="196" y="689" type="line"/>
      <point x="249" y="689" smooth="yes"/>
      <point x="264" y="680" smooth="yes"/>
      <point x="264" y="649" type="curve" smooth="yes"/>
      <point x="264" y="623" smooth="yes"/>
      <point x="256" y="591" smooth="yes"/>
      <point x="217" y="478" type="curve" smooth="yes"/>
      <point x="128" y="221" type="line" smooth="yes"/>
      <point x="61" y="27"/>
      <point x="36" y="12"/>
      <point x="-34" y="12" type="curve"/>
      <point x="-36" y="0" type="line"/>
      <point x="189" y="0" type="line"/>
      <point x="187" y="12" type="line"/>
      <point x="136" y="12" smooth="yes"/>
      <point x="111" y="15" smooth="yes"/>
      <point x="111" y="54" type="curve" smooth="yes"/>
      <point x="111" y="85"/>
      <point x="126" y="136"/>
      <point x="154" y="219" type="curve"/>
      <point x="459" y="219" type="line"/>
      <point x="493" y="126" smooth="yes"/>
      <point x="512" y="74" smooth="yes"/>
      <point x="512" y="44" type="curve" smooth="yes"/>
      <point x="512" y="16"/>
      <point x="489" y="12"/>
      <point x="443" y="12" type="curve"/>
      <point x="441" y="0" type="line"/>
      <point x="691" y="0" type="line"/>
      <point x="689" y="12" type="line"/>
      <point x="618" y="12" smooth="yes"/>
      <point x="607" y="27" smooth="yes"/>
      <point x="536" y="221" type="curve" smooth="yes"/>
      <point x="359" y="700" type="line"/>
      <point x="339" y="700" type="line"/>
      <point x="378" y="714" smooth="yes"/>
      <point x="402" y="750" smooth="yes"/>
      <point x="402" y="793" type="curve" smooth="yes"/>
      <point x="402" y="847" smooth="yes"/>
      <point x="364" y="892" smooth="yes"/>
    </contour>
    <contour>
      <point x="303" y="646" type="line"/>
      <point x="451" y="243" type="line"/>
      <point x="162" y="243" type="line"/>
    </contour>
    <contour>
      <point x="303" y="732" type="curve" smooth="yes"/>
      <point x="274" y="732" smooth="yes"/>
      <point x="258" y="758" smooth="yes"/>
      <point x="258" y="793" type="curve" smooth="yes"/>
      <point x="258" y="825" smooth="yes"/>
      <point x="274" y="853" smooth="yes"/>
      <point x="303" y="853" type="curve" smooth="yes"/>
      <point x="331" y="853" smooth="yes"/>
      <point x="347" y="825" smooth="yes"/>
      <point x="347" y="793" type="curve" smooth="yes"/>
      <point x="347" y="758" smooth="yes"/>
      <point x="331" y="732" smooth="yes"/>
    </contour>
  </outline>
</glyph>
<glyph name="AE" format="1">
  <advance width="923"/>
  <unicode hex="00C6"/>
  <outline>
    <contour>
      <point x="849" y="143" type="line" name="hr00"/>
      <point x="849" y="56"/>
      <point x="732" y="23"/>
      <point x="567" y="23" type="curve"/>
      <point x="531" y="39" smooth="yes"/>
      <point x="526" y="72" smooth="yes"/>
      <point x="526" y="211" type="curve" smooth="yes"/>
      <point x="526" y="340" type="line"/>
      <point x="715" y="340"/>
      <point x="730" y="321"/>
      <point x="730" y="232" type="curve"/>
      <point x="741" y="230" type="line"/>
      <point x="741" y="473" type="line"/>
      <point x="730" y="471" type="line"/>
      <point x="730" y="383"/>
      <point x="715" y="362"/>
      <point x="526" y="362" type="curve"/>
      <point x="526" y="677" type="line"/>
      <point x="708" y="677"/>
      <point x="812" y="651"/>
      <point x="812" y="558" type="curve"/>
      <point x="824" y="556" type="line"/>
      <point x="824" y="700" type="line"/>
      <point x="221" y="700" type="line"/>
      <point x="223" y="689" type="line"/>
      <point x="276" y="689" smooth="yes"/>
      <point x="291" y="680" smooth="yes"/>
      <point x="291" y="649" type="curve" smooth="yes"/>
      <point x="291" y="605" smooth="yes"/>
      <point x="271" y="542" smooth="yes"/>
      <point x="244" y="478" type="curve" smooth="yes"/>
      <point x="134" y="221" type="line" smooth="yes"/>
      <point x="54" y="32"/>
      <point x="22" y="12"/>
      <point x="-48" y="12" type="curve"/>
      <point x="-50" y="0" type="line"/>
      <point x="176" y="0" type="line"/>
      <point x="174" y="12" type="line"/>
      <point x="123" y="12" smooth="yes"/>
      <point x="98" y="15" smooth="yes"/>
      <point x="98" y="54" type="curve" smooth="yes"/>
      <point x="98" y="85" smooth="yes"/>
      <point x="126" y="138" smooth="yes"/>
      <point x="161" y="219" type="curve" smooth="yes"/>
      <point x="213" y="340" type="line"/>
      <point x="457" y="340" type="line"/>
      <point x="457" y="226" type="line" smooth="yes"/>
      <point x="457" y="32"/>
      <point x="449" y="12"/>
      <point x="359" y="12" type="curve"/>
      <point x="357" y="0" type="line"/>
      <point x="861" y="0" type="line"/>
      <point x="861" y="145" type="line"/>
    </contour>
    <contour>
      <point x="457" y="362" type="line"/>
      <point x="222" y="362" type="line"/>
      <point x="359" y="682" type="line"/>
      <point x="449" y="681" smooth="yes"/>
      <point x="457" y="656" smooth="yes"/>
      <point x="457" y="464" type="curve" smooth="yes"/>
    </contour>
  </outline>
</glyph>
<glyph name="Ccedilla" format="1">
  <advance width="712"/>
  <unicode hex="00C7"/>
  <outline>
    <contour>
      <point x="324" y="-83" type="line" name="hr00"/>
      <point x="399" y="-92" smooth="yes"/>
      <point x="419" y="-127" smooth="yes"/>
      <point x="419" y="-161" type="curve" smooth="yes"/>
      <point x="419" y="-193" smooth="yes"/>
      <point x="396" y="-224" smooth="yes"/>
      <point x="350" y="-224" type="curve" smooth="yes"/>
      <point x="332" y="-224"/>
      <point x="308" y="-216"/>
      <point x="291" y="-199" type="curve"/>
      <point x="273" y="-219" type="line"/>
      <point x="294" y="-244" smooth="yes"/>
      <point x="328" y="-258" smooth="yes"/>
      <point x="363" y="-258" type="curve" smooth="yes"/>
      <point x="420" y="-258" smooth="yes"/>
      <point x="479" y="-223" smooth="yes"/>
      <point x="479" y="-161" type="curve" smooth="yes"/>
      <point x="479" y="-91"/>
      <point x="425" y="-65"/>
      <point x="363" y="-65" type="curve"/>
      <point x="382" y="-9" type="line"/>
      <point x="390" y="-9" smooth="yes"/>
      <point x="398" y="-10" smooth="yes"/>
      <point x="407" y="-10" type="curve" smooth="yes"/>
      <point x="536" y="-10"/>
      <point x="616" y="27"/>
      <point x="682" y="77" type="curve"/>
      <point x="682" y="107" type="line"/>
      <point x="615" y="59" smooth="yes"/>
      <point x="542" y="19" smooth="yes"/>
      <point x="407" y="19" type="curve" smooth="yes"/>
      <point x="232" y="19" smooth="yes"/>
      <point x="137" y="160" smooth="yes"/>
      <point x="137" y="350" type="curve" smooth="yes"/>
      <point x="137" y="544" smooth="yes"/>
      <point x="223" y="686" smooth="yes"/>
      <point x="399" y="686" type="curve" smooth="yes"/>
      <point x="526" y="686"/>
      <point x="613" y="647"/>
      <point x="648" y="522" type="curve"/>
      <point x="659" y="520" type="line"/>
      <point x="659" y="648" type="line"/>
      <point x="620" y="669" smooth="yes"/>
      <point x="509" y="709" smooth="yes"/>
      <point x="399" y="709" type="curve" smooth="yes"/>
      <point x="179" y="709" smooth="yes"/>
      <point x="50" y="549" smooth="yes"/>
      <point x="50" y="350" type="curve" smooth="yes"/>
      <point x="50" y="167"/>
      <point x="165" y="18"/>
      <point x="351" y="-6" type="curve"/>
    </contour>
  </outline>
</glyph>
<glyph name="Ecircumflex" format="1">
  <advance width="616"/>
  <unicode hex="00CA"/>
  <outline>
    <contour>
      <point x="542" y="143" type="line" name="hr00"/>
      <point x="542" y="56"/>
      <point x="425" y="23"/>
      <point x="260" y="23" type="curve"/>
      <point x="224" y="39" smooth="yes"/>
      <point x="219" y="72" smooth="yes"/>
      <point x="219" y="211" type="curve" smooth="yes"/>
      <point x="219" y="340" type="line"/>
      <point x="408" y="340"/>
      <point x="423" y="321"/>
      <point x="423" y="232" type="curve"/>
      <point x="434" y="230" type="line"/>
      <point x="434" y="473" type="line"/>
      <point x="423" y="471" type="line"/>
      <point x="423" y="383"/>
      <point x="408" y="362"/>
      <point x="219" y="362" type="curve"/>
      <point x="219" y="677" type="line"/>
      <point x="401" y="677"/>
      <point x="505" y="651"/>
      <point x="505" y="558" type="curve"/>
      <point x="517" y="556" type="line"/>
      <point x="517" y="700" type="line"/>
      <point x="50" y="700" type="line"/>
      <point x="52" y="689" type="line"/>
      <point x="142" y="689" smooth="yes"/>
      <point x="150" y="668" smooth="yes"/>
      <point x="150" y="474" type="curve" smooth="yes"/>
      <point x="150" y="226" type="line" smooth="yes"/>
      <point x="150" y="32"/>
      <point x="142" y="12"/>
      <point x="52" y="12" type="curve"/>
      <point x="50" y="0" type="line"/>
      <point x="554" y="0" type="line"/>
      <point x="554" y="145" type="line"/>
    </contour>
    <contour>
      <point x="190" y="732" type="line"/>
      <point x="170" y="754" type="line"/>
      <point x="250" y="845" type="line" smooth="yes"/>
      <point x="277" y="875" smooth="yes"/>
      <point x="288" y="883" smooth="yes"/>
      <point x="308" y="883" type="curve" smooth="yes"/>
      <point x="328" y="883" smooth="yes"/>
      <point x="339" y="875" smooth="yes"/>
      <point x="366" y="845" type="curve" smooth="yes"/>
      <point x="446" y="754" type="line"/>
      <point x="426" y="732" type="line"/>
      <point x="308" y="809" type="line"/>
    </contour>
  </outline>
</glyph>
<glyph name="Edieresis" format="1">
  <advance width="616"/>
  <unicode hex="00CB"/>
  <outline>
    <contour>
      <point x="542" y="143" type="line" name="hr00"/>
      <point x="542" y="56"/>
      <point x="425" y="23"/>
      <point x="260" y="23" type="curve"/>
      <point x="224" y="39" smooth="yes"/>
      <point x="219" y="72" smooth="yes"/>
      <point x="219" y="211" type="curve" smooth="yes"/>
      <point x="219" y="340" type="line"/>
      <point x="408" y="340"/>
      <point x="423" y="321"/>
      <point x="423" y="232" type="curve"/>
      <point x="434" y="230" type="line"/>
      <point x="434" y="473" type="line"/>
      <point x="423" y="471" type="line"/>
      <point x="423" y="383"/>
      <point x="408" y="362"/>
      <point x="219" y="362" type="curve"/>
      <point x="219" y="677" type="line"/>
      <point x="401" y="677"/>
      <point x="505" y="651"/>
      <point x="505" y="558" type="curve"/>
      <point x="517" y="556" type="line"/>
      <point x="517" y="700" type="line"/>
      <point x="50" y="700" type="line"/>
      <point x="52" y="689" type="line"/>
      <point x="142" y="689" smooth="yes"/>
      <point x="150" y="668" smooth="yes"/>
      <point x="150" y="474" type="curve" smooth="yes"/>
      <point x="150" y="226" type="line" smooth="yes"/>
      <point x="150" y="32"/>
      <point x="142" y="12"/>
      <point x="52" y="12" type="curve"/>
      <point x="50" y="0" type="line"/>
      <point x="554" y="0" type="line"/>
      <point x="554" y="145" type="line"/>
    </contour>
    <contour>
      <point x="150" y="793" type="curve" smooth="yes"/>
      <point x="150" y="764" smooth="yes"/>
      <point x="175" y="739" smooth="yes"/>
      <point x="204" y="739" type="curve" smooth="yes"/>
      <point x="233" y="739" smooth="yes"/>
      <point x="258" y="764" smooth="yes"/>
      <point x="258" y="793" type="curve" smooth="yes"/>
      <point x="258" y="822" smooth="yes"/>
      <point x="233" y="847" smooth="yes"/>
      <point x="204" y="847" type="curve" smooth="yes"/>
      <point x="175" y="847" smooth="yes"/>
      <point x="150" y="822" smooth="yes"/>
    </contour>
    <contour>
      <point x="357" y="793" type="curve" smooth="yes"/>
      <point x="357" y="764" smooth="yes"/>
      <point x="382" y="739" smooth="yes"/>
      <point x="411" y="739" type="curve" smooth="yes"/>
      <point x="440" y="739" smooth="yes"/>
      <point x="465" y="764" smooth="yes"/>
      <point x="465" y="793" type="curve" smooth="yes"/>
      <point x="465" y="822" smooth="yes"/>
      <point x="440" y="847" smooth="yes"/>
      <point x="411" y="847" type="curve" smooth="yes"/>
      <point x="382" y="847" smooth="yes"/>
      <point x="357" y="822" smooth="yes"/>
    </contour>
  </outline>
</glyph>
